<?xml version="1.0" encoding="UTF-8"?> <svg xmlns="http://www.w3.org/2000/svg" viewBox="0 0 236.2 83.7"><path d="M15.8 43.3v-.9c0-2.2-1.4-4-2.6-5.6a15.2 15.2 0 01-2.8-7.7c-.2-1.3-.1-1.3-1.4-.9-1.8.7-3.6 1.2-5.5.3a5.2 5.2 0 01-3-4.4 13.2 13.2 0 011-5.8A5 5 0 014 15.2 8.3 8.3 0 019.3 13a5 5 0 014 1.3 1.1 1.1 0 001.8 0 12.3 12.3 0 012.4-2.1c2-1 3.8-2.3 5.9-3.1a23.6 23.6 0 0114.9-.7c.6.1 1.2 0 1.7.2-.2.8-1 .9-1.7 1a4.3 4.3 0 00-1.7.4 1.5 1.5 0 01-1.3.1 6 6 0 00-4.1-.9 25.6 25.6 0 00-7.8 1.8 8.8 8.8 0 00-2.6 1.5 9.6 9.6 0 01-2.7 1.7 7.2 7.2 0 00-2.8 2.6 24.4 24.4 0 00-3.4 6.7 2 2 0 000 1c.2 2.3.1 4.7.7 7a12.3 12.3 0 002 4.1 13.8 13.8 0 011 1.6c.4.7.7.8 1.2.1A9.8 9.8 0 0119 35c1-.8 1-1 .2-2-1.7-2-2.3-4.5-2.5-7a3.9 3.9 0 000-.6c-.6-3.2.9-5.8 2.6-8.3a7.4 7.4 0 015.7-2.8 11.9 11.9 0 016.5 1 1.9 1.9 0 001.8-.1 14.2 14.2 0 015.3-1.8 6.4 6.4 0 015.2 1.7c1.9 1.7 3 3.9 4.3 6 1.2 1.8.7 4 .6 6-.3 2.8-1.7 5-3.3 7.1-1 1.3-1 1.3.1 2.4a12.3 12.3 0 011 1c.7 1 .8 1 1.7 0a4 4 0 001-4.1 8 8 0 01.2-4 50.4 50.4 0 001.1-5.7c.3-3.5-.5-7.7-4.5-9.8a55 55 0 00-8-3.7A5.5 5.5 0 0142 9a1.7 1.7 0 00.8 1 58.4 58.4 0 015.8 3.4c.5.3.9.1 1.3-.2 2.9-2.6 6.2-2.7 9.6-1.4a6.4 6.4 0 002 .4 7 7 0 012.2.1c.2.2.7 0 .8.4a.5.5 0 01-.2.2c-.4.2-1 .2-1.3.3a1.9 1.9 0 01-.8 0l-2-.3a2 2 0 00-1.7.4 1.4 1.4 0 01-1.2.4.9.9 0 01-.3-.2.4.4 0 010-.3l.2-.2-.4-.2a10.4 10.4 0 00-3.6.5 4 4 0 00-1.9 1.2 1.3 1.3 0 00-.2 1.5c.2.5.7.6 1.2.5a3 3 0 011 0c.5.3 1.3.2 1.5 1s.6.6 1 .4c.7-.4 1.2-1 2-.8l-2.3 5c-.5-.2-.4-.6-.3-1 0-.5-.1-.7-.6-.6-.4-.5-1-.3-1.4-.5-.1-.3.3-.8-.3-1-.2-.2-.2-.5-.5-.4s-.3.5-.3.8c0 .5.4.2.6.2a1.2 1.2 0 01.4.8.8.8 0 01-.5.6c-.1.1-.3.3-.2.5.3.8 0 1.3-.7 1.4 0 .6.6.6.6 1.1-.2.3-.6.3-.8.6a7.6 7.6 0 00-.1 3 1.4 1.4 0 01-.2.8 7.2 7.2 0 00-.6 5.8 1.4 1.4 0 01.1.8c-.2.6.5.3.7.5a2 2 0 01-.4 1.6 16.8 16.8 0 01-3 3.7c-.2.2-.2.5-.1.8a6.8 6.8 0 010 3l-.5 1a9 9 0 01-3.4 4c-2.2 1.7-4.9 2.2-7.4 3.2a12.2 12.2 0 01-6.2.4 1.2 1.2 0 00-.4 0c-3 .6-5.6-1-8.3-1.8-3.5-1-5.2-3.9-5.7-7.4a1.5 1.5 0 00-.2-.7z" fill="#44413d"></path><path d="M90.5 71a1 1 0 00-.5 1c-.2 1.4-1.1 2-2.4 2.3a12 12 0 01-4.7.2c-1.8-.3-3.6 0-5.2-.8-.3-.2-.5 0-.8.2a3.6 3.6 0 01-4.3-.5c-.3-.2-.5-.6-1-.2a1 1 0 00-.3 1.3 22 22 0 011.3 5.2c.2 2.8-1 4.2-3.8 4a8.7 8.7 0 01-3.8-1.2 2.8 2.8 0 01-1-3.6 12.4 12.4 0 013.4-4l1.8-1.5c-1.7.3-3 .8-4.5.5a.7.7 0 00-.4.2 2 2 0 01-3.4-.7c-.4-.7-.5-.7-1-.1-1.2 1.4-2 1.5-3.6.8a.7.7 0 00-.8 0c-1 .7-1.5 0-2-.7a10.8 10.8 0 01-1.2-4.7 9 9 0 00-.6-3.3 2.2 2.2 0 00-.8 1.3c-.2 1-1 1.3-1.7 1.7s-1-.2-1.2-.8a31.7 31.7 0 00-3-4.1 3.7 3.7 0 00-.2 2 17.2 17.2 0 01.4 5.6c0 .7 0 1.4.9 1.5a.7.7 0 01.6.8.8.8 0 01-.8.7l-4 .3c-.5 0-1-.2-1-.7a.8.8 0 011-.8c1.2.1 1.3-.6 1.2-1.6a36.4 36.4 0 010-8 2.5 2.5 0 00-.6-2.2c-.5-.5-1-1.2-.1-1.7.7-.4 1.2 0 1.6.7 1.2 2.2 3.3 3.4 4.7 5.3.3.5.5 0 .6-.3.7-2 2.2-3.2 3.4-4.9.3-.4.7-1 1.4-.6s.3 1 0 1.5c-1.2 2.3-.7 4.6-.2 7 .2.5 0 1.4.7 1.6s.8-.7 1.2-1.1a4.6 4.6 0 014.5-1.1 1.4 1.4 0 011 1.6 6.7 6.7 0 00.5 3.1c.2.5.4 1.1 1 .9s.3-.8.1-1.2a4.4 4.4 0 013.7-5.6 2.5 2.5 0 012.4 1c.8 1.2 1.6 2.3 1.4 3.8 0 .3 0 .6.2.7s.4-.2.6-.4a6.6 6.6 0 00.6-1 4.5 4.5 0 015.3-2.3c1 .2 1.4.6 1.3 1.5a4.2 4.2 0 00.2 2.3c.4.8 1.2 1 1.7.3a21.2 21.2 0 014.2-5.3 14.7 14.7 0 01-4.6-.5 1.4 1.4 0 01-1.2-1.5c0-.7.5-1.1 1-.7 1.5 1.2 3 1.1 4.8 1h1c.5 0 1 0 1.2.5a1.1 1.1 0 01-.2 1.3 48 48 0 01-3.8 4.6c-.3.3-.7.6-.6 1s.7.3 1.1.3a12 12 0 004-.2 2.2 2.2 0 001.6-1.6 30.1 30.1 0 001-4.8c.1-.6.2-1.3 1-1.2s.8.7.8 1.3a8.1 8.1 0 00.7 4.1 4.5 4.5 0 003.2 2.5c.7.1 1-.3 1-.8.2-1 .3-2.2.3-3.2a.7.7 0 00-.7-.8c-.4 0-.9-.2-.8-.8s.5-1 1-.7c1.4.7 2.7-.1 4-.2 2.8-.2 4.2 2 3.1 4.6a5.8 5.8 0 00-.3 1.1.8.8 0 00.4 1c.5.2.6-.3.7-.6a.7.7 0 01.8-.4.9.9 0 01.7.7 1.6 1.6 0 01-1.2 2 2.3 2.3 0 01-3-2.2 3.6 3.6 0 01.5-2.4c.6-.6.8-1.2.2-1.9a2 2 0 00-2.6-.5 2.1 2.1 0 00-1.2 2 10.4 10.4 0 01-.4 3c-.5 1.5-1.3 2-3 1.7-2.1-.4-4-1.1-4.5-3.6z" fill="#cd4b0a"></path><path d="M185.8 71.9a3.4 3.4 0 003.8-.6c1.2-1 1.9-2.4 3.4-3.1.4-.2.2-.9.2-1.3a16.6 16.6 0 01.9-7 3.3 3.3 0 012.6-2.5 1.8 1.8 0 011.8.5 2.2 2.2 0 01.4 2 .8.8 0 01-.8.7c-.6 0-.7-.3-.7-.8 0-1.3-.7-.9-1.3-.5a2.5 2.5 0 00-1.1 2.2c0 1.9-.5 3.8-.3 5.7 0 .3-.1.7.2.8a33.6 33.6 0 003.3 1.2c.4 0 .3-.4.3-.7V65a9.2 9.2 0 013-6.3 2.2 2.2 0 012.5-.4 2 2 0 011 2.2c0 .5-.2.9-.7 1s-.7-.4-.8-.8c-.3-1.2-.7-1.4-1.4-.4a8.6 8.6 0 00-2 4.6v3.6c0 .2-.1.6.2.7s.5-.1.6-.3l.4-.3c.4-.3.9-.5 1.3 0s0 .9-.3 1.3a4 4 0 01-1.5 1 1 1 0 00-.6 1 28.8 28.8 0 01-.4 5.3c-.1 1.2-.9 1.8-1.9 1.6a1.7 1.7 0 01-1.2-2.2c0-.4.2-.8.6-.7s.5.3.6.6-.1.8.3.8.4-.5.4-.8l.2-4.3a1 1 0 00-.6-1.1l-2.4-.9c-.8-.4-1.2 0-1.2.9a27.4 27.4 0 01-.2 5.5 5.7 5.7 0 01-.6 1.6c-.6 1-1.5 1-2.4.6a1.7 1.7 0 01-1.1-2 .8.8 0 01.7-.8c.4 0 .7.3.8.7s0 .9.6.8.7-.7.7-1.1c0-2 .5-3.9-.2-6-1.9 2-3.8 4-7 3.2a7.4 7.4 0 01-2.6-1.5 2 2 0 01-.5-1.2 13 13 0 010-3 6.4 6.4 0 012.6-3.7 4.8 4.8 0 014 .2c1.3 1 1.4 2.2 1.1 3.7-.9 1.5-2.4 1.7-4 1.6-.7 0-1.7-.5-2 .4s.6 1.4 1.3 1.8z" fill="#cd4b0b"></path><path d="M166 65.2c2 0 3.5 1 3.5 2.6a2 2 0 01-1.2 2 5.5 5.5 0 01-4 .4c-.9-.2-1 0-.8.8a2.3 2.3 0 003.6 1.3c.4-.3.9-.7 1.4-.2s0 1-.4 1.4a3.8 3.8 0 01-4.5.2c-.6-.4-1-.5-1.5.1a1.6 1.6 0 01-2.7-.4 6 6 0 01-1-3.3 31.1 31.1 0 01.2-5c.2-.7 0-1.2-.9-1.1a1.5 1.5 0 01-.7 0c-.3-.2-.8-.3-.8-.8a.8.8 0 01.9-.9c1.4.1 1.9-.6 2-1.8.1-1.1.4-2.1-.6-3-.6-.5-.2-1.2.6-1.3s1.7.7 1.8 1.9a8.2 8.2 0 01-.3 3c-.5 1.8-.1 2.2 1.6 1.8.5 0 1-.3 1.2.3s-.2 1-.8 1.3a2.4 2.4 0 01-1.1.2c-1.1-.2-1.5.4-1.5 1.3 0 1.9-.4 3.8.3 5.6.2.3.3 1 .9.7s.7-.6.5-1.2c-.5-2.5.5-4.8 2.4-5.6a4.4 4.4 0 011.9-.3z" fill="#cd4a0a"></path><path d="M114.5 81.3a2.4 2.4 0 01-.1-3.9c.2-.2.5-.4.8-.2s.3.4.3.7v1c0 .5.1 1 .7 1s.6-.6.7-1a49.8 49.8 0 000-5.7c-.1-1.6-.6-3-.6-4.6 0-.7-.4-.8-.9-.7l-.7.1c-.5 0-1.3.4-1.5-.4s.6-1 1.2-1.2 1.6.2 2-.5a10.2 10.2 0 00.2-2.2c.5-2.3.6-4.7 2-6.8a4.3 4.3 0 013.5-1.9 2 2 0 011.9 2.8c-.2.4-.5.8-1 .7s-.6-.6-.6-1 .2-.7-.2-.9a.9.9 0 00-1 .3l-2.2 2.4a1 1 0 00-.3.6c0 1.7-.4 3.4-.3 5.2 0 1.2.2 1.3 1.4 1 .5-.2 1-.5 1.4 0 .3.8-.1 1.2-1 1.3l-.7.1c-1.3.3-1.1.3-1.1 1.6 0 2 .3 3.9.2 5.8 0 1.1.2 2.2.1 3.2a3.7 3.7 0 01-1.7 3.2 2.2 2.2 0 01-2.5 0z" fill="#cd4a09"></path><path d="M8.3 67a14.7 14.7 0 01.2 4.1c0 .8.2.9 1 .7 2.8-.9 5.2-5.5 4.4-8.5a2.8 2.8 0 00-1.9-2.2c-2.5-.8-5-1.4-7.5-1a2.4 2.4 0 01-.5 0c-.4 0-1 0-1-.5s.5-.7.9-.8a13.2 13.2 0 013.8-.2A22.7 22.7 0 0113 60a3 3 0 011.1.7c1.1 1.2 2.3 5 1 7a12 12 0 00-1.2 1.7c-1.4 2.8-4 3.9-6.8 4.4a15 15 0 01-4.3.2c-.5 0-1.2-.1-1.1-.8s.7-.6 1.2-.5a15.3 15.3 0 003.5-.1c.8 0 .8-.5.8-1.1L6.7 63a3.7 3.7 0 010-.5c0-.5.2-1 .8-1s.8.5.8 1v4.5z" fill="#d15b20"></path><path d="M154 70.8c-.2.1-.8-.3-1 .4a1.3 1.3 0 001 1.5 6.5 6.5 0 001.5.2c.5 0 1 .1 1 .6s-.4 1-.9 1a3.8 3.8 0 01-3.8-1.2c-.5-.6-.8-.6-1.4 0-1.2 1.3-3.2 1.5-5.1.5a4 4 0 01-2.2-3.6c.2-1.9 2.7-3.9 4.9-3.7a4.1 4.1 0 013 1.3c.4.5.6.3.8-.1a3.5 3.5 0 014.4-1.3 2 2 0 011.3 2.3 2.3 2.3 0 01-2 2 13.5 13.5 0 01-1.5.1z" fill="#ce4f10"></path><path d="M199.8 35c1.6 2 1 4.2-1.2 5l-1.1.5a3 3 0 01-.6 0c-.4 0-.8 0-.9-.5s.3-.6.5-.7a2.7 2.7 0 001.6-2.1 2.3 2.3 0 01.2-.8 1.3 1.3 0 00-.5-2.1c-.5-.3-.5-1-.6-1.5a4 4 0 00-1.1-2.5 9.6 9.6 0 00-3 .5 3.7 3.7 0 01-4.5-1c-.3-.7 0-1.1.6-1.5 1.1-1.2 2.8-1 4.2-1.4a14.6 14.6 0 014-.2c1.3 0 1.8.6 1.6 1.8a1.4 1.4 0 001.1 1.8v.3c.5 1.1.8 2.3 0 3.4-.1.4-.4.7-.3 1z" fill="#ddc204"></path><path d="M217.4 69.5l-.3 2a4.8 4.8 0 00.1 2.8c.2.4.2.9-.3 1.1s-.9 0-1.1-.5a3.2 3.2 0 01-.5-2c0-1.2.3-2.3.4-3.5 0-.5.2-1-.5-1.3a1.5 1.5 0 00-1.5.2 8 8 0 01-2 1.5c-.4.1-.4.5-.4.8l-.1 2.2a2.6 2.6 0 01-.7 1.8c-.4.4-.9 1-1.5.5s0-.9.3-1.3a8.8 8.8 0 00.6-5.8c-.4-2.4 0-4.8 0-7.2 0-.8.6-1.7-1-1.6-.4 0-.6-.4-.5-.8a2 2 0 012-1.2 1.2 1.2 0 011.3 1.4 31.8 31.8 0 01-.5 4.9 5.7 5.7 0 00.1 3.8c.3.6.5.5.9.1a4.2 4.2 0 011-.7c2.4-1.2 4.2 0 4.2 2.8z" fill="#d15a1f"></path><path d="M224.5 30.7a20 20 0 00-2.1 4.9.4.4 0 01-.2 0c-.4-.4-.4-1.4-1.3-1a2.5 2.5 0 00-1.6 2c0 1 .6 1 1.2.7 1-.6 1.2-.1 1.1.8a5 5 0 001.4 1.8 1.3 1.3 0 01-2.2-.2c-.4-.6-.7-.5-1.2-.4-.5-.4-.8-1-1.4-1.4a.8.8 0 01-.4-1 1.2 1.2 0 00-.3-1.4.9.9 0 010-.7.7.7 0 01.3-.2c.4-.2.7-.4.6-1a6.3 6.3 0 010-2c.2-.4.3-1 .7-1.3a2.6 2.6 0 00.8-1.5 1.7 1.7 0 01.1-.3 5.8 5.8 0 013.4-3c-.5-.5-1.7 0-1.6-1.2a.6.6 0 01.2-.2c.8-.3 1.6-.4 1.9-1.3.1-.6.3-1-.2-1.4a1 1 0 00-1.4.1c-.3.2-.5.6-.9.6-.5-1.3 0-2.1 1.2-2a6 6 0 012.4.1c.5.2.6-.2.5-.5a2.3 2.3 0 01.7-1.7l1.7-2.4c.2-.2.4-.5.7 0a2.6 2.6 0 01-1 2.4c-.5.4-1 1-.5 1.6s1 .2 1.5 0a3.4 3.4 0 001.7.2c.5.5 0 .8-.1 1.2a1.7 1.7 0 01-.6.6 1.4 1.4 0 00-.7 2 1.2 1.2 0 01-.5 1.7l-.3.2c-.3.3-.5.1-.5-.2 0-.7-.2-1.5-.1-2.2v-.3c.1-1-.1-1.3-1-.9a3.5 3.5 0 00-1.5 3c0 1 .8 1.1 1.6 1.3 1.4.4.2 1 0 1.5l-.4.4a.6.6 0 01-.5-.2c-.3-.5-.7-1-1.2-.3s-1 1-.2 1.6a1 1 0 01.2 1.5z" fill="#030302"></path><path d="M42.3 9.1a14.2 14.2 0 00-4.2 1.2l-.1.1a1 1 0 01-.8 0 2.7 2.7 0 01-.8-.6 1.2 1.2 0 011.2-.5 4 4 0 002.4-.7.8.8 0 01.6-.3 51.3 51.3 0 005.8-1.7c1.6-.3 3-1.2 4.7-1.4a1.3 1.3 0 001-1A13.2 13.2 0 0153.4.9a.4.4 0 01.7-.2.7.7 0 01.2 1l-.7 1.6c0 .2-.3.5 0 .7a.6.6 0 00.9-.3l.7-1.5A13 13 0 0156 .8c.2-.3.5-.6 1-.3s.2.6.1 1a4.5 4.5 0 00-.7 1.8 2.5 2.5 0 002.1-1.9c.2-.6.4-1.7 1.3-1.3s.1 1.2 0 1.8c-.6 1.3-.4 2 .8 2.6.3.2.7.3 1 .6s.6.5.3 1a.8.8 0 01-1 .2A5.5 5.5 0 0158.7 5a1 1 0 00-1.6-.1c.5.3 1.2.4 1.6.8s.8.7.5 1.2-.8.3-1.3.1c-1.1-.5-2.4-.7-3.6-1.3.3.6.9.6 1.3 1s1 .5.7 1.1-.9.6-1.3.3a10.3 10.3 0 01-3-1.5c-1.2-.5-2.3.3-3.4.5A10 10 0 0045 8.5a5.4 5.4 0 01-2.6.6z" fill="#343434"></path><path d="M221 70.5c-.5.2-1-.4-1.3.4s.3 1.1.8 1.4a2 2 0 002.7 0c.3-.4.7-.6 1.1-.3a.8.8 0 010 1.3c-.7.7-1.3 1.3.1 2 .6.3.3 1-.4 1.1a1.4 1.4 0 01-2-1.2c0-.4 0-.8-.5-.8s-.4.4-.5.8c-.2 1.2-.8 1.6-2 1.2-.3 0-.6-.1-.6-.5s.1-.5.4-.6c1-.7 1-1.3.3-2.2a5 5 0 01-.4-5.4 4.1 4.1 0 014-2.4c1.4 0 2.2.7 2.4 1.8a3 3 0 01-1.8 3 7.5 7.5 0 01-2.4.4z" fill="#cd4c0c"></path><path d="M229.3 67.1a6.5 6.5 0 013.3-1c2 .1 3.2 1.7 2.6 3.7l-.9 2.7c-.3 1.2 0 1.5 1 1.6.4 0 .8 0 .9.5s-.4.7-.8.8a2.2 2.2 0 01-3-2 6.8 6.8 0 011-3.5c.2-.6.6-1.2 0-1.8a1.7 1.7 0 00-2-.1c-1.8.8-3.3 2-3 4.3a12.3 12.3 0 01-.1 2.3c0 .6-.3 1.1-1 1s-1-.5-.9-1.1l.4-4a19 19 0 00.1-3.7c0-1 .5-1.2 1.4-1.3s.9.6.9 1.2a2.6 2.6 0 00.1.4z" fill="#cd4b0a"></path><path d="M188.7 29.7c1.6 1.5 3.3 1.4 5.2.5a8.5 8.5 0 012.4-.3 11.7 11.7 0 011 3 3.4 3.4 0 00.9 1.9.9.9 0 01.2 1.2 3.8 3.8 0 00-.3 1.5c-.3 1.5-1.4 2-2.7 2h-3a6.3 6.3 0 01-1-.2c-1.3-.2-2 .5-1.9 1.7.1.8-.4.5-.7.4a8.4 8.4 0 01-2.2-1.4l-.6-.5c-.4-.5-1.2 0-1.6-.7.6-1 1.5-1.3 2.3-.5l.2.2c.4.4.8 1.1 1.4 1s.5-1 .7-1.7c.9-.6 1.7-.2 2.5.1a6.8 6.8 0 004.1-.1 1.6 1.6 0 001-2.1 18 18 0 01-1.1-3c-.6-1.4-.5-1.4-2-1l-.6.1-1.4.3a1.5 1.5 0 00-1.5 1.3c0 .5-.3 1-1 .6-.2-.3 0-.9-.5-1a.7.7 0 00-.8.4c-.2.7.5.5.7.8a.8.8 0 01.1 1.1 1.8 1.8 0 00-.1 1.7c-.3.4-.6.4-1 .3a1.3 1.3 0 01-.4-1.1c0-.4 0-.9-.4-1s-1 .1-1.3.5a1.2 1.2 0 00-.3.7c-.2 1.3-1 1.6-2 1.5-.6 0-1.3.2-1.7-.4.6-1 1.9-1.2 2.4-2.2a2.3 2.3 0 011.3-1.8l3-1.6c.5-.2 1.1-.2 1-.9s-.6-.5-1-.6-.9-.1-1-.5c-.1-.3.2-.4.4-.5a.8.8 0 011.3.3z" fill="#030303"></path><path d="M185.5 64.2a2.1 2.1 0 01-.3.5c-2 1.4-2.3 3.4-2 5.6a5.7 5.7 0 010 .7c-.8-.2-.5-.8-.6-1.2a11.8 11.8 0 010 1.3 1.2 1.2 0 00.4 1.2c.6.4.5-.1.6-.4l2.4 1.7c-.7 0-1.3-.4-1.9.5-.3.6-2 .3-2.8-.5a1.2 1.2 0 00-1.7-.3 3 3 0 01-4.2-3.1 6 6 0 015.1-5.7c1.4-.2 2.1.4 2.1 1.9a9 9 0 00.1 1.2 5.7 5.7 0 012.8-3.4z" fill="#d25e24"></path><path d="M141.4 69.6c0 1.7 0 3 2 3.5.5.1.6.7.2 1.2a1 1 0 01-1.5.2 4.6 4.6 0 01-1.9-3.3 20.5 20.5 0 01.5-6.7 2.6 2.6 0 00.2-1.8c-.3-.7-1-.1-1.5-.3s-1-.2-1-.8.4-.9 1-1c1.7-.4 2-1 1.4-2.7a7.5 7.5 0 00-.4-1.1c-.2-.4-.3-.8.1-1s.9 0 1 .4a6.7 6.7 0 01.9 2.9c0 1.7.2 1.8 2 1.9.5 0 1.6-.6 1.6.6 0 1-1 1-1.7 1s-1.4-.4-1.9 0-.2 1.3-.3 1.9l-.7 5.1z" fill="#ce4e0f"></path><path d="M30.1 71.4a8 8 0 00-.8 0 2 2 0 01-2.3-1.3 2.6 2.6 0 011-2.9 11.5 11.5 0 014.6-1.6 1.7 1.7 0 01.7 0c.4.1.7.4.7.8s-.4.5-.8.5a9.6 9.6 0 00-3.7 1c-.8.2-1.4.7-1.1 1.6s1 .6 1.6.5a8.8 8.8 0 014 .4 2.4 2.4 0 011.8 2.4c0 1.3-.9 1.8-2 2-1.9.5-3.8-.2-5.8 0a.5.5 0 01-.4-.5c0-.4.3-.6.7-.7a12.5 12.5 0 013.5 0 4.7 4.7 0 001.6 0c.5 0 1-.2 1-.8a1.1 1.1 0 00-.8-1 7.5 7.5 0 00-3.5-.4z" fill="#cf5012"></path><path d="M114.5 81.3c2.7.9 4.4-1.7 4.1-4.1a58.2 58.2 0 01-.2-6.9 7.6 7.6 0 000-1c-.3-1.5-.2-1.8 1.4-2 .8 0 1.5-.1 1.5-1.2.4.8.1 1.8.5 2.6a7.7 7.7 0 01.3 1.8c.2.6.4 1 1.1 1a1.3 1.3 0 001.3-1l.5-2.3c.1-.4.3-.9.9-.8s.6.5.6 1a26.5 26.5 0 00.1 4.2.6.6 0 01-.3.6.5.5 0 01-.7-.3c-.4-.8-.9-.5-1.5-.2a2.2 2.2 0 01-3-1.1 3 3 0 00-1.1-1.3c-1-.6-1-1-.2-1.8l.7-.7h-.4c-1.3 0-1.6.5-1.5 1.8.2 2.8.3 5.7.3 8.6 0 2.2-1.5 3.7-3.3 3.6-.4 0-.8-.1-1-.5z" fill="#ce4d0e"></path><path d="M15.6 74.3l-.3-.2c-1.3-2.2-.2-4.5 1.7-5.8a8.8 8.8 0 012.1-1 .9.9 0 011.2.5c.3.5-.2.7-.6 1a8.8 8.8 0 00-1.7.8l-.3.2a2.3 2.3 0 00-1.2 1.5c-.2.7-.4 1.5.4 2a1.9 1.9 0 002.5-.5 2 2 0 00.3-.5 3 3 0 01.5-1 1.8 1.8 0 00.4-1.6 2.3 2.3 0 010-.8c0-.6.4-1.1 1-1.1s.8.5.8 1.1a17.7 17.7 0 00.2 3.1 1.3 1.3 0 001.6 1.4c.5-.3.8-1 1.4-.5.4 1-.5 1.3-1 1.7a1.6 1.6 0 01-2-.1c-.5-.4-.8-1.3-1.4-1.2s-.8.9-1.4 1.2a4.3 4.3 0 01-4.2-.2z" fill="#ce4f11"></path><path d="M83.9 33.3v2.1c0 .4 0 .8.3 1s.7-.2 1-.4c2.4-2.1 5-4 7.5-5.8a.4.4 0 01.1.5 21.4 21.4 0 00-2.2 2.6 6.6 6.6 0 01-2.8 2.1 2.1 2.1 0 00-1.4 2c0 .5.4.5.8.6a.3.3 0 010 .5 6.6 6.6 0 01-2 1.4 1.6 1.6 0 00-.9 2 6.3 6.3 0 01.3 2.1c0 1 .6 1.9.2 2.8-1-.4-1.6-.9-1-2.1a2.3 2.3 0 00-.6-2.4 4.8 4.8 0 01-.8-1.5c-.4-.9-.5-1.5.5-2s.2-1.1-.1-1.7a2 2 0 010-1.3 12.4 12.4 0 00.8-2.4.2.2 0 01.3-.1z" fill="#5a5352"></path><path d="M119.2 30.8a2.6 2.6 0 00-1 1.5c0 .3-.2.8.3 1s.6-.2.8-.5a2.7 2.7 0 011-1.2.5.5 0 01.2.3 1.5 1.5 0 01-.4 1 1.5 1.5 0 00-.3 1.5c-.6.3-1.3.2-2 .4-.9-.8-1.7-.3-2.5.1-.3.2-.4.2-.6 0l-.8-.1c-.5.2-.8 0-1-.5 0-.3-.3-.4-.6-.2a.7.7 0 00-.5.5c0 .3.2.3.5.4s.5.1.4.5l-4.4 2.6a.2.2 0 01-.2 0c0-.6.5-.8 1-1s-.3-.3-.1-.4c.2-.6.7-.9.9-1.4 0-.7-.5-.5-.9-.5a4.8 4.8 0 01-2.1.3.2.2 0 010-.3c1.3-1.3 3.2-1.9 4.6-3a10.8 10.8 0 002.6-2 .6.6 0 01.1.6c-.1.5-.7.8-.7 1.4.4.3 1.1-.1 1.4.5.2.5-.2.8-.5 1.2a10 10 0 012-.2c.8 0 .8-.4.4-1a4.5 4.5 0 01.7-1.4 1 1 0 011.7-.1z" fill="#5c5652"></path><path d="M206.1 74c-2.3 0-3.4-1.3-3.2-3.6s2.1-4.1 4.2-3.8a1.7 1.7 0 011.4 1.8 1 1 0 01-.4 1 .8.8 0 01-1-.2 1.3 1.3 0 00-1.9 0 2 2 0 00-.6 2.2c.2.8.9 1 1.6 1s.8-.4 1.1-.8.6-.6 1-.4.4.7.4 1a2.4 2.4 0 01-2.6 1.9z" fill="#d0581c"></path><path d="M83.7 33.3c-.1.8 0 1.7-.7 2.4-.4 0-.4-.3-.6-.6-.5-1-.7-1-1.4 0-.2.2-.3.4-.6.5-.7-.6-1.3-.6-1.9.2s-1.4.3-2 .9-1 .3-1-.5c.2-1.3 1.4-1.4 2.2-2 .4 0 .6-.4 1-.4 1 0 1-.5 1.2-1.1a7.8 7.8 0 01.4-1.5c1-1.4.2-3 .5-4.6s.2-1.6 1.6-1.9 1.8.2 1.7 1.5a1.3 1.3 0 01-.3.8c-.7.2-.4-.7-1-.9-.3.7-1 1.2-.7 2 .1.6.7.5 1.1.5.6.1 1.1-.4 1.7-.1-.5 1.2.1 2 .8 2.8l-1.4 1c-.6.3-.7-.3-.7-.6a1.3 1.3 0 00-1.6-1c-.6.1-.9.8-.8 1.4 0 .7.7 1 1.4 1 .4.2.7-.1 1 .2z" fill="#191715"></path><path d="M126.1 16.6c-.4 1.1-.2 2.4-.6 3.7l-1 3.5c-.6.4-.6-.2-.6-.5-.2-.6-.4-1-1-.8s-1.3.6-1 1.4a1 1 0 001.3.6c.3-.1.7-.6 1-.2s-.2.7-.4 1l-1.4 2c-.9 0-.6-.6-.5-1s.2-.8-.3-1l-.3-.2c-.2-.5-1.3-.3-1-1.3.7-.8.8-2 2-2.6.2-.2 0-.6 0-.8a3.4 3.4 0 01.1-2.7 8.5 8.5 0 00.5-2.7 2.2 2.2 0 00-1-2.1 1.5 1.5 0 01-.5-1 1.7 1.7 0 01.3-1c.3 0 .5.2.6.4 1 1 1.4 1 2.4.1a1 1 0 01.5-.3l.5 1c0 .5 0 1-.5 1.2a1.3 1.3 0 00-1 1.5 1.7 1.7 0 001.5 1.5.6.6 0 01.4.3z" fill="#100f0f"></path><path d="M182.9 24l-1.4 3a24.6 24.6 0 00-1.7 2.2c-.2.3-.4.5-.8.3s-.8-.3-.7-.8.5-.4.8-.5a2.3 2.3 0 001.5-2 3 3 0 00-.7-2.8c-.3-.3-.6-.3-.8 0a5.7 5.7 0 00-.5 1.3c-.2.5-.5 1-1.2 1-.6-.2-.8-.5-.6-1.1.7-1.5 1.2-3.2 3-3.7a1.7 1.7 0 011-.5l1.9.2c.5 0 1 .3 1.2-.3s-.4-.7-.8-.9a1.5 1.5 0 01-1-1.5 1.8 1.8 0 011.5-1.8c.3 0 .4.2.4.4-.5 1.4.6 1.5 1.4 1.9a1.4 1.4 0 01-.1.7 1.2 1.2 0 00.4 1.3c.4.4.8.1 1.2 0a1.2 1.2 0 01.4-.2.5.5 0 01.4.4 1 1 0 010 .6c-.3.6-1 .5-1.5.5-.9.1-1.9-.3-2.7.3-.5.3-1 0-1.4 0s-.7-.3-1 .1.2.7.4 1c.3.6 1 .5 1.4.9z" fill="#090908"></path><path d="M15.8 43.3l1.1 3.4a7.1 7.1 0 004 4.2c1.7.7 3.7 1 5.5 1.8 1.6.6 3.4-.1 5 .3 2.2.6 4.3-.3 6.3-.9a17.4 17.4 0 004.7-1.7 13.5 13.5 0 005-4.9c.3 1.4-.8 2.2-1.6 2.9a15.6 15.6 0 01-7.2 4 4 4 0 00-2.4 1c-.3.4-.7.3-1 .3h-7.5c-.8 0-1.4-.6-2.1-.8-2.7-.8-5.6-1.3-7.5-3.6-1.5-1.7-2.7-3.5-2.3-6z" fill="#dcc3a2"></path><path d="M189.1 38c.7 1 0 1.6-.6 2s-1.3-.5-1.5-1c-.8-1.3-1.6-.9-2.4-.2-.2 1.2-1 1.5-2 1.5a3.9 3.9 0 01-1.6 0 3.3 3.3 0 00-1.3-.5c-2 0-2.9-.7-3.3-2.7.3-1.8 1-2.4 2.4-2.3a.7.7 0 01.3.8c-.3.4-1 .2-1.2.8a1.6 1.6 0 00.1 1.6 1.2 1.2 0 001.4.7 2.9 2.9 0 012 .3 1.7 1.7 0 002.2-.5 3.4 3.4 0 00-2.2.1 1 1 0 01-1.1-.3c-.2-.3-.4-.7.1-.9l1 .1 1.8.1c.9 0 1.6 0 1.6-1.2a1.7 1.7 0 011-1.4 1.3 1.3 0 011.2-.1 1 1 0 01.5 1.1 1.6 1.6 0 000 1.2c.6.2 1.5-.2 1.6.9z" fill="#b8a114"></path><path d="M131.4 71.3a9.4 9.4 0 00.3 2c.1.4.2.8-.3 1a1.8 1.8 0 01-1.6 0 .8.8 0 01-.3-1.1c.6-1.1.3-2.3.4-3.5.1-.6-.3-1-.9-1.1a.7.7 0 01-.6-1 .7.7 0 01.9-.5 1.9 1.9 0 001.5-.5 2.1 2.1 0 013.1 1 .8.8 0 01-.2 1c-.3.3-.6.1-1 0-1-.8-1-.7-1.2.5v2.2z" fill="#cd4b0b"></path><path d="M46.5 6.7A66 66 0 0140 8.6c-1.8.3-3.5-.3-5.2-.6a21 21 0 00-11 1.1 35 35 0 00-4.5 2.3 29.5 29.5 0 00-4.5 3.4.9.9 0 01-1.3 0c-3-2.3-5.7-2.3-8.7 0a6.5 6.5 0 01-.7.5.3.3 0 01-.5 0 8.2 8.2 0 017.2-2.4 4.3 4.3 0 012.6 1.3 1 1 0 001.5 0A29 29 0 0126 8a12.8 12.8 0 014-.6h5.7c1 0 2-.2 2.7.7.3.3.9.2 1.3.1a35.8 35.8 0 005-1.3 3.3 3.3 0 011.8-.4v.1z" fill="#c5ba98"></path><path d="M97.1 16l-.5 1.3c-.2.3-.4.2-.7 0s-.4-.7-.7-.3a.7.7 0 00-.1.9c1.4 1.2.2 2-.4 3a.4.4 0 01-.3-.1c-.4-.6-.2-1.7-1.5-1.4-.4 0-.4-.5-.3-.9.6-1.3 1.3-2.5 1.8-3.9.7-1.6.2-3.3.2-5a2 2 0 01.1-.7.5.5 0 01.4-.4c.3 0 .5.2.5.4a8.8 8.8 0 00.4 1.2c.3.6.6 1.2 1.5 1.2.6 0 .8.3.6 1v.6c-.1.5-.2 1.1-.9.4-.2-.2-.5-.2-.7.1s-.8.7-.6 1.3.6 0 .9 0c.7 0 .8.2.3 1.3z" fill="#141211"></path><path d="M68.5 60.6c.2-3.4-.5-6.9 0-10.3.4-2.6.1-5.1.3-7.7 0-1-.9-.8-1.4-.8-.9 0-1.7 0-2-1 0-.3 0-.5.3-.5.8 1 2 .9 3 1l.8.2a.9.9 0 01.3.2c.1.6-.9 1.4.3 1.9a.5.5 0 010 .5 1 1 0 01-.2.2c-.7.6-.4 1.1 0 1.6a2 2 0 01.3 1.8c-.1.4-.2.7.1 1a.7.7 0 010 .6c-.5.6-.1 1 .1 1.5s.7 1 .3 1.6a.8.8 0 01-.7.1c-.6-.3-1-.2-1 .6a3.9 3.9 0 00.1 1.1c0 .6.5 1 .4 1.6 0 .3-.5.2-.5.6 0 1 .6 2 .5 3.2a2.5 2.5 0 01-.7 1.2.3.3 0 01-.3-.2z" fill="#786e58"></path><path d="M89.4 63.3c-1.9-1.3-2-2.4-.2-4.3a3.5 3.5 0 011.6-.7c1.6 0 2.7.6 3 1.8a2.9 2.9 0 01-2.2 3.2 3.7 3.7 0 01-2.2 0z" fill="#cf5315"></path><path d="M151 31.3l-.5.9c-.1.2-.4.3-.4.6 0 .7-.3 1-1 .8s-1 0-.9.7c.1.6-.3.8-.7 1a1.6 1.6 0 00-.4 2.4 3.8 3.8 0 001.3.5c.5.4.4.7-.2.9-.8.2-1.7 0-2.5.1-.3 0-.5-.1-.6-.4a4 4 0 01.2-1.6c.1-.5 0-.8-.5-.8a.8.8 0 01-.5-.1c-.2-.4.2-.6.4-1 0-.4 1.1 0 .6-.8a.7.7 0 01.1-.5 5 5 0 001.2-1.5c.5-.7 1.6-.2 2.2-.8 1.3-.6 1.9-2 3-2.9.2-.4 0-.6-.3-.9s-.6-.6-.1-1a2 2 0 011.3 0 .7.7 0 01.2.6c.1 1.6-.8 2.7-1.8 3.8z" fill="#121313"></path><path d="M119.8 34.2c-.5-.2-1.2-.4-.2-1 .4-.3.3-1 .8-1.3.8-1.6 2.2-1.4 3.6-1.3a3 3 0 011.6.9c.2.3 0 .4-.2.6a2 2 0 00-1.4.8c-.4.4-.7.2-.8-.3a.7.7 0 00-1-.6 1.4 1.4 0 00-1.1.8c-.2.4 0 .7.4 1s.7.4.6 1c-.8 1-1.8 2-1.5 3.7-.3.4-.6.2-1 0-1.4-.8-2-.7-2.8.7a2.6 2.6 0 01-.3.5.5.5 0 01-.3 0 1.4 1.4 0 01-.5-1.4 8 8 0 001.7-1.4 2.3 2.3 0 011.5-.6c1.3-.2 1.6-1 1-2z" fill="#0a0a09"></path><path d="M121.6 25c.7.2 1.1.4.6 1.2-.2.4-.3.8.2 1.2-.2.4-.5.6-.8.8-.5-.2-1-.4-1.3.2-.1.3 0 .6.4.7-.2.8-.9 1.2-1.5 1.7-.7-.6-1.2-.3-1.6.4-.2.4-.2.9-.6 1.1-.4.8-1 .5-1.6.2a9.3 9.3 0 01-1-.8c-.5-.6-.2-1.2 0-1.8s.3-1 .8-1a2.7 2.7 0 002.1-1.7 1.5 1.5 0 01.7-.2c.4 0 .8 0 .6-.6a2.2 2.2 0 01-.1-.8c.5-.8.8-1.7 1.8-1.9a.2.2 0 010 .3c.1.7 1.3.3 1.3 1-.3.5-.8.2-1 .4s-.7.4-.7.9a.5.5 0 00.4.4c.4.1.6-.2.9-.4s0-.9.4-1.2z" fill="#b39e20"></path><path d="M85.5 49.3c.1 2-.1 4 .5 6a3.2 3.2 0 01-1.4 3.5 1.8 1.8 0 01-2 .2c-.7-.3-.8-1-.8-1.7a55.2 55.2 0 00-.8-11.8.6.6 0 010-.7.5.5 0 01.5.2 4.8 4.8 0 01.5 3 3.7 3.7 0 00.1 1.5 2.4 2.4 0 01.1.4c.2 1.3 0 2.6.1 3.9.1.3.2.7.5 1a.6.6 0 01.2.2.6.6 0 010 .3 1 1 0 000 1.1c1.2.6 2 .2 2.2-1.2a5.4 5.4 0 00-.4-2 5.8 5.8 0 01-.3-1.3 2.3 2.3 0 01.1-.7 1.6 1.6 0 01.2-.5c.3-.4.2-.9.4-1.2a.3.3 0 01.3-.2z" fill="#645b5b"></path><path d="M3.6 15.3h.5c-2.6 1.4-3 4-3.3 6.4a13.4 13.4 0 00-.1 1.8 5 5 0 006.4 5 11.5 11.5 0 002.2-.7c1-.5 1 .2 1.2.8a27.3 27.3 0 001.3 5.4c.8 2 2.3 3.5 3.3 5.3a5.4 5.4 0 01.7 3.2c-.3-.3-.2-.7-.2-1a13.6 13.6 0 00-2.3-3.9 17 17 0 01-3-7 1.2 1.2 0 00-.2-.4c0-2 0-2.1-2-1.4a6.6 6.6 0 01-4.7 0 4.7 4.7 0 01-2.2-2c-2.5-3.7-.4-6.9.8-10.2a2.6 2.6 0 011.6-1.3z" fill="#a79662"></path><path d="M90.8 37.7c-.6-.2-1 .2-1.5.4a1.7 1.7 0 01-1.3.2c-.7-.2-.4-.7-.1-1a42.5 42.5 0 014.1-3.8 2.6 2.6 0 011.6-.4c1 0 1.3.4 1.1 1.5 0 .5-.8.7-.6 1.3a.4.4 0 01-.2.2c-.9.4-1.5 1.2-2.5 1.4a2.8 2.8 0 01-.6.2z" fill="#d9be05"></path><path d="M217.7 35.5c.7.2.9.7.5 1.2s-.2.9.3 1.1 1.1.7 1 1.5v.2a3.4 3.4 0 00-.7 1c-.1.3-.2.5-.5.7a2.8 2.8 0 01-2.2 1.6c-.5-1.3-1.1-2.5 0-3.8.4-.4-.2-1-.2-1.4a3.8 3.8 0 011.8-2.1z" fill="#058fcf"></path><path d="M228.4 25.2a1.6 1.6 0 000-1.9 1.2 1.2 0 01.7-1.8 3.7 3.7 0 00.9-.7 8.1 8.1 0 012.7 1.2c1 1.7.1 3.3-1.7 3.4-.9 0-1.7-.6-2.6-.2z" fill="#0d8bc6"></path><path d="M42.3 9.1a6.8 6.8 0 002.5-.8.6.6 0 01.7 0c-.7.8-1.8.7-2.8 1.2l4.7 2.6a3.9 3.9 0 01.8.4c.8.8 1.3.6 2.2-.1a5.3 5.3 0 014.1-1.7 21 21 0 002.5 0c1 0 2 0 2.8.8a2.8 2.8 0 001.9.4c.7 0 1.4-.2 2 .3a18.7 18.7 0 01-5.3-.6 7.8 7.8 0 00-8.4 1.7c-.6.7-1 .5-1.7.1-2.1-1.2-4-2.8-6.4-3.4l-.3-.3c0-.4.5-.3.7-.6z" fill="#d1c8af"></path><path d="M218.3 41.2c.1-.3 0-.6.3-.8a2.8 2.8 0 01.6.1 1.7 1.7 0 012 1.1A2 2 0 00223 43c.2 0 .6 0 .7.2.5 1.3 1.6.9 2.5.8.7.3 1.1 1 2 .9h1c.5.3 1.3 0 1.6.7a19.7 19.7 0 01-7.1-.2 6.7 6.7 0 01-3.7-2.6 5.8 5.8 0 00-1.7-1.5z" fill="#1d1c1c"></path><path d="M94.7 34.6c-.2-1.3-1.5-1.8-2.7-.8a53.6 53.6 0 00-4 3.7c-.2.2-.5.5-.1.8a.5.5 0 01-.7.2V38c-.1-.9.8-1.3 1.1-2a20 20 0 003.6-3.8 6.5 6.5 0 00.9-1.7v-.4a1.1 1.1 0 01.8-.7 1.5 1.5 0 012.2.1c.7.8.2 1.5-.3 2.1-.4.4-1 .4-1.5.5.6.3 1 .5 1.2 1.1a.8.8 0 01-.2.5c-.1.3 0 .7-.3.8z" fill="#ceb50c"></path><path d="M183 22c.7-.6 1.5-.5 2.3-.5s1.6.3 2.2-.5a1.3 1.3 0 011.2.2.9.9 0 00.8.4 22.9 22.9 0 003.8 0c.6-.2 1.3-.5 1.2-1.3a1.5 1.5 0 00-1.3-1.3c-.5 0-1 0-1.3-.2a10.1 10.1 0 00-2.2 0h-1.9c-.3-.2-.6-.4-1-.4-.5 0-1 .2-1.6 0-1.7-.2-1.7-.2-1.3-1.6 0-.2.1-.2.2 0 0 .7.1 1 1.2 1 2.7-.2 5.4.3 8.2.3a2.2 2.2 0 012 2.2 2.5 2.5 0 01-2.5 2.1c-1.4 0-2.9 0-4.3-.2l-3-.2c-1.4-.2-2.3.1-2.5 1.6a1.1 1.1 0 01-.1-1.6z" fill="#7c7a6e"></path><path d="M200.2 30.3c.9.6 1.4.3 1.6-.7a3.9 3.9 0 011.6-2.3c1.2 0 2 .5 2 1.4a2.2 2.2 0 01-2 2.3c-.5-.6.2-.8.4-1.1s.4-.6.1-.9a.4.4 0 00-.4-.1.8.8 0 00-.6.7 1.7 1.7 0 00.4 1.3c.5 1 1.4.6 2.2.6a1.3 1.3 0 011 .4 1.1 1.1 0 01-.2 1.4c-1.1-1-2.4-.7-3.6-.3-.5.2-1 .5-.7 1a.8.8 0 001.3.6l2.2-1c.2-.1.5-.3.7 0a.8.8 0 01-.4 1c-1.1.3-2 1.3-3.2 1.3a2.1 2.1 0 01-1-.4l-.4-.8c-.1-1-.4-2 .6-2.7.7-.4 0-.7-.4-.9s-1.2.1-1.2-.7z" fill="#b39f1e"></path><path d="M216 37.6c.5.7.8 1.3 0 2.1-.6.5-.3 1.4 0 2 .2.4.6.7.1 1l-.8.7a7 7 0 01-3.7 1.2c-.5 0-1 0-1.1-.6-.1-1 .3-1.1 1.2-.9 1.8.5 2.9 0 3.2-1.5v-.3c0-.5 0-1-.7-.5a5.2 5.2 0 01-3.1.9c-1 0-2.7-.1-3.3-1.5a.3.3 0 01.2-.3c.5 0 .9.2 1.3.4a5.4 5.4 0 004.2-.5c1-.6 1.6-1.6 2.5-2.2z" fill="#161511"></path><path d="M133.9 30.6a5.4 5.4 0 011.5-2.2c1.6-.8 3.1-1.3 4.9-.7a3.2 3.2 0 002.5 1.1c.6 0 1 .7.7 1.5a1.2 1.2 0 01-1.6.8 1 1 0 00-1.5.2 1 1 0 01-.8 0c-.5-.5 0-.8.3-1.1.5-.7.4-1.1-.4-1.3a4.7 4.7 0 00-4 1c-.2.2-.6.5-.4 1s.6.2 1 .2a8.3 8.3 0 011.8-.3c.4 0 1 0 1 .7a1.1 1.1 0 01-1 .5h-.6c-.8-.1-1.6.3-2.5.1s-1-.7-1-1.5z" fill="#b49e1d"></path><path d="M226.3 18a2.6 2.6 0 00-.5 2c.2.8-.3 1-.9.6-.8-.7-1.7-.4-2.6-.5-.5 0-.9.1-.7.8.2.4-.5.7-.2 1.1.1.4-.2.3-.4.4a4.5 4.5 0 00-2.6-.2.6.6 0 01.3.4l-.1.1a1.7 1.7 0 01.3-3.4 6 6 0 011.8.2c2.3.7 4.3.6 5.5-1.8.2 0 .2.2 0 .3z" fill="#276d8e"></path><path d="M213.6 27.8a5 5 0 01-1.2 6.6h-.4c-.2-.7-.6 0-.8 0-.6 0-1.2.8-1.8 0a4.5 4.5 0 012.6-1.3c.3 0 .6 0 .6-.4s-.5-.1-.7-.3c0-1 .9-.9 1.5-1a5.7 5.7 0 01-2.5-1 1.9 1.9 0 00-1-.2 4.9 4.9 0 01-.5 0c-.3 0-.8 0-.9-.4 1.2-.9 2.3-.4 3.5 0 .5 0 1.2.7 1.6 0s-.4-1.3-1-1.5a9.8 9.8 0 00-4-1c-.8.1-1.4.3-1 1.3a.6.6 0 01-.2.7.7.7 0 01-.5 0 1.7 1.7 0 01-.7-1.2c0-1.4.5-1.9 1.8-1.8a20 20 0 014.2.5 4 4 0 011.4 1z" fill="#b4a121"></path><path d="M180.4 37.4c-.2.8.1 1.3.9 1a7.8 7.8 0 012.8-.2c-.7 1.4-1.7 1.7-3 1a2 2 0 00-1.5-.2 1.8 1.8 0 01-2.2-2c0-1 .6-1.5 1.7-1.3.2.1.4 0 .5-.2z" fill="#dec301"></path><path d="M129 41.6h-.3c-.3-.4-.8-.8-1-1.2a.9.9 0 01.2-1.1.4.4 0 01.5.1c.2.5.3 1 1 1a1.4 1.4 0 001.2-1.4.6.6 0 01.5-.3 2.4 2.4 0 01.5 0 8.8 8.8 0 001.9.3 1.4 1.4 0 001.6-.8c.3-.6.7-.8 1.3-.5a6.4 6.4 0 001 .6c.2.1.6.2.5.6s-.4.5-.7.6a1.8 1.8 0 01-.5 0c-.4 0-.8 0-.9.5s.2.8.7 1 .8.1 1.1.4c0 .4-.2.5-.4.5a4.7 4.7 0 00-1.3 0c-1 .2-2.1.4-2-1.2 0-.3-.4-.4-.6-.4a4 4 0 00-2.5.8 3.3 3.3 0 01-1.8.5z" fill="#221f13"></path><path d="M226.2 44.1c-1.3.5-2 .4-2.5-.7-.2-.3-.3-.3-.6-.3-1.2.4-1.8-.5-2.2-1.3s-.6-1.2-1.6-.9l-.2-.2a1.1 1.1 0 01.5-1.4l.2-.2c.3-.2.2-.7.6-.7s.3.5.4.8a1.4 1.4 0 002.2.7c.5 0 .6.4.8.8a2 2 0 001.2 1.8 3 3 0 011.2 1c0 .2.3.4 0 .6z" fill="#b09a19"></path><path d="M84.8 10.4c.2-.2.4-.4.8-.4.1.6-.4.8-.6 1.1s-.4.7 0 1 .7.1 1 0c.9-.8.9-1 0-1.7a.3.3 0 01-.1-.4c0-.2 0-.3.2-.4 1 0 1.3-.6 1.2-1.6.4-.4.7-1 1.3-1a4.2 4.2 0 011 .3 1.4 1.4 0 01.8 1c0 .4.5.3.7.4 0 .9-.8 1-1.4 1.4a2 2 0 00-2.1 1.6 2.7 2.7 0 01-1 1.4c-1.4.7-2 .5-2.7-.7a4.3 4.3 0 010-1 2 2 0 01.1-.4 1.1 1.1 0 01.8-.6z" fill="#ae9a21"></path><path d="M133.3 40c.8-.3.9.4.9 1s0 1.1 1 .7c.7-.3 1.6.2 2.4-.2a.6.6 0 01.3-.2 1.6 1.6 0 011 0c.5.2.6-.3.7-.6a1 1 0 011-.5c.2 0 .3.3.3.5a2.7 2.7 0 004 1.6 3.8 3.8 0 012-.2.3.3 0 010 .5c-2.5 1.3-5.1.8-7.5 0a9.4 9.4 0 00-4.8-.3 3.9 3.9 0 01-2.2.2 4.9 4.9 0 01-2 0l-.5-.3c.6-.7 1.5-.5 2.2-.5 1.7 0 1.8-.1 1.2-1.6z" fill="#676160"></path><path d="M52.2 6.5a8.3 8.3 0 003 1.6c.3.1.8.2 1-.3s-.3-.7-.7-.9a7.7 7.7 0 01-2-1c.6-.6 1-.8 1.8-.2A14.3 14.3 0 0058.2 7c.3.1.6.2.8-.2s0-.7-.3-.8l-2.4-1.1c1-.6 2-1.2 2.7.1a3.9 3.9 0 001.8 1.1c.3.2.7.3 1-.1s-.2-.7-.4-1-.6-.2-.8-.5a1.2 1.2 0 011.2.5c.3.3.7.7.3 1.2a1 1 0 01-1.3.3c-.7-.3-1.3-1-1.5.5 0 .6-.8.5-1.3.3L56 6.5c.4.8.7 1.3.2 1.8s-1 .2-1.5 0c-1.8-1-3.7-2-5.8-1.1a3.3 3.3 0 013.2-.7z" fill="#d2d2d2"></path><path d="M98 12.2c-.1-.2.3-.6-.3-.7-1.6-.3-2-.7-2.3-2.1 0-.3.2-.7-.2-.7s-.3.5-.4.7c-.6-.2-.9-.9-1.6-1a.4.4 0 010-.3 1.5 1.5 0 00.6-1.1 1.7 1.7 0 011.7-1.7c1 0 1.2.7 1.5 1.3 0 .5-.4 1.1.5 1.1a.4.4 0 01.4.4.8.8 0 01-.4.4c-.5.2-1.2 0-1.2.8a1.7 1.7 0 001.3 1.6c.2.1.5.1.7.4 0 .3 0 .6-.2 1z" fill="#bca514"></path><path d="M188.1 30.1l.8.2a.8.8 0 01.7.8c0 .4-.2.6-.6.7a25.6 25.6 0 00-3.6 1.8c-.7.4-1.4.8-1.6 1.7a4.7 4.7 0 01.4-2.9 4 4 0 002-1.5 1.6 1.6 0 012-.8z" fill="#0b86c1"></path><path d="M58.8 40.6l-3-.3c-.5 0-1 0-1.2-.5a.7.7 0 01.5-.3 7.3 7.3 0 01.9 0c.4 0 1 0 1-.5a1.1 1.1 0 00-.7-1.2l-.7-.4c0-.5.4-.5.7-.7s.4 0 .5 0a3.1 3.1 0 003.3.2c.8.2 1.8-.4 2 .9 0 .2-.3.2-.5.2-1.4 0-1.6.2-1.5 1.6.2 1.1-.6 1-1.3 1z" fill="#443f34"></path><path d="M116.5 39.8c-.1-1.1.7-1.7 1.5-2a1.2 1.2 0 011.8.5c.2.4.5.2.8.2.3.4.1.8.2 1.2-.2.3 0 .8-.4 1a3 3 0 01-3.9-.8z" fill="#0a86bf"></path><path d="M186.7 40c.4.4.8.6 1.3.9a10 10 0 001.4.5c-.7-.5-.4-1-.1-1.4.8-1.2 1.8-1.2 3-.7a1.4 1.4 0 011 1.3 1.4 1.4 0 01-.7 1.2 2 2 0 01-1.4.2 5.8 5.8 0 01-4.5-2z" fill="#198abc"></path><path d="M96.3 28.2a11.3 11.3 0 015-1.5 2 2 0 012.2 1.3 1.9 1.9 0 01-1.4 2.7l-2.2.5c-2.2.2-2.5 0-3-2a2.1 2.1 0 00-.5-.7v-.3z" fill="#ad991c"></path><path d="M65.7 40.2c-.3.1-.2.3-.3.5a2.8 2.8 0 01-1-.4c-.6-.6-1-.6-1.6 0-.3.3-.8.2-1.3.2 0-.4.3-.5.5-.7a4.8 4.8 0 011-.5 2.2 2.2 0 01.9 0 1.2 1.2 0 001.7-.4l1-1.9a5.8 5.8 0 01.6-.4c.6-.5 1.2-1.3 2.1-.7a3.6 3.6 0 01-.6 3 5.5 5.5 0 01-3 1.3z" fill="#dfded7"></path><path d="M205.4 37c.9.3 1 1.2 1.4 2a1.8 1.8 0 01-1.8 1.2 1.8 1.8 0 01-1.7-1.3 6.5 6.5 0 00-1-2c-.4-.4-.3-.8.2-1 1.3-.4 2 .5 2.9 1z" fill="#0d88bf"></path><path d="M166.4 41.5a5.7 5.7 0 01-1.8-6.8 2 2 0 000-1.9.5.5 0 01.4-.3.6.6 0 01.3 0c.2.5 1 .4 1 1 0 .3-1.2.4-.1.9.3.2.5.4.4.8-.9.7-1.2 2.9-.5 4a4.3 4.3 0 01.8 2.3.4.4 0 01-.5 0z" fill="#696162"></path><path d="M92.7 18.7c.1.2 0 .5.3.5 1.4 0 1.4 0 1.5 1.6-.5 1-1.3.3-2 .4 1.2 0 1.2 1 1.4 1.8a5.3 5.3 0 01-.9 1.5.2.2 0 01-.3 0c.2-1.2-.9-1.3-1.5-1.7-.2-.1-.3.2-.4.3s-.5.7-1 .7a.5.5 0 01-.2-.1 1.7 1.7 0 01.5-1.3 23.7 23.7 0 002.2-3.5.3.3 0 01.4-.2z" fill="#8f7f35"></path><path d="M221.6 38c-.3-.1 0-.5-.3-.8-.6 0-.8 1-1.6.5-.6-.2-1-.4-.7-1.2a3 3 0 011.1-1.8c1.6-1 2-.9 2.3.9 0 1-1 1.5-.8 2.5z" fill="#ccb20c"></path><path d="M202.6 36l-.2.6c1 .5.9 1.7 1.3 2.5a1.4 1.4 0 002.3.4l.8-.5c.3.5 1.2.3 1 1-.3.4-.7.4-1 .4-1.7.3-1.7.3-1.8 1.9a.5.5 0 01-.6 0l-.2-.3c-1.5-2-3.3-3.7-2.6-6.5a1 1 0 011 .3v.2q0 .2 0 0z" fill="#161511"></path><path d="M119.8 34.2c.6 0 1 .3.9 1a1.7 1.7 0 01-1.4 1.4c-1 .2-1.9.3-2.4 1.4-.1.3-.7.5-1.2.3-.3.2-.3-.1-.4-.2-.7-1-.4-2.2-.6-3.3l.4.2c.5-.6 1-.8 1.6-.3.4.4.7.1 1 0 .6-.6 1.4-.4 2.1-.5z" fill="#ae9b28"></path><path d="M180 21c-1.6.7-2.2 2.2-2.9 3.5-.3.6-.1.8.3 1a3.4 3.4 0 01-.7 1.6.8.8 0 00-.2 1c.3.8.2 1.5-.8 1.9-.6.2-.4 1.2-1.3 1.1a.5.5 0 010-.4c1.3-2.7 1.7-5.6 3-8.3.4-.6-.1-.8-.6-.9s-1 .3-1.4-.2c.2-.5.3-.9.8-1a1.6 1.6 0 002.2.2 3 3 0 011.6.6z" fill="#544b46"></path><path d="M125.2 11.2c-1.1 1.8-2.1 1.7-3.4-.2-.7-.4-.5-.8-.2-1.3A2 2 0 01123 9a2.7 2.7 0 012.3 2.3z" fill="#cbb210"></path><path d="M114.6 30a1.8 1.8 0 000 1.6c-1 0-.8-.6-.5-1.2v-.7c-.2-2.3-1-4.5-1.4-6.8 1.3-1 1.4-1.7.7-3.5v-.6c.5-.1.8.2 1 .5a8.4 8.4 0 01.2 3c0 .5 0 .6.5.6a4.8 4.8 0 01.8 2c-.2.5-.8.2-1 .6-1.2.7-.2 1.5-.1 2.3s-.2 1.4-.2 2.1z" fill="#443d36"></path><path d="M221 22.2l.4-.1c.5-.4.5-1.2 1.3-1.3s1.4.1 1.6.9a2.4 2.4 0 01-1.2 2.3 9.2 9.2 0 01-1.1.2 1.7 1.7 0 01-1-.5l-.7-.3a.2.2 0 010-.2 2.3 2.3 0 01.8-1z" fill="#c2ad14"></path><path d="M77 6c2-1.8 3.3-1.4 5.8.4.5.3 1 .6 1.3 1.2-.4.6-.8.2-1.2.1a1.2 1.2 0 01-.3-.4c-.3-.8-1.1-1-2-1.4.2.6.5 1 .3 1.6a1.6 1.6 0 01-1 1A2.5 2.5 0 0176.8 7a1 1 0 01.2-1z" fill="#ac9a2f"></path><path d="M122.9 8.9c-.2.4-.6.6-.9.8a.8.8 0 00-.2 1.3c0 .3 0 .7-.3 1-.5 0-.7-.3-.9-.6s-.5-.3-.8-.2a.5.5 0 01-.5-.2 1 1 0 01.2-.8c.6-1.2.5-1.4-.8-1.5-.6 0-1.4.1-1.6-.8a4 4 0 014 .2c.5.3 1.3.2 1.8.8z" fill="#090807"></path><path d="M195.4 39.3c2.6 0 2.3-2.3 3-3.7a.3.3 0 000-.4c-1.7-1-1.3-2.7-1.8-4.1-.2-.4 0-.8-.3-1.2a4.5 4.5 0 011.1 2.7 2.6 2.6 0 001.3 2.1c.3.2.6.4.3.8a8.2 8.2 0 00-.8 2.7c-.3 1-1.2 1.3-2.3 1.8l1.6.5c-.2.3-.5.3-.8.4-.2.3-.5.1-.8.3a1 1 0 01-.3 0c-1.3-.9-1.4-1.1-.2-2z" fill="#b59f16"></path><path d="M235.6 23c1 1.4.6 2.5-1 2.7-.6.1-1.3.3-1.9-.2-.2-1 .5-1.9.6-2.9 0-.3.5-.4 1-.2.3.4 1 0 1.3.6z" fill="#e0c203"></path><path d="M165 32.6l-.4.2c-1.5 0-3 0-3.6 1.8-.3 0-.6.1-.7-.3.4-.8 1.2-1.5.8-2.6-.2-.5-.4-.8-.9-.3a1.8 1.8 0 01-1.3-.6c1.8-1.6 6.1-2.7 8.2-.9a.2.2 0 010 .3c-.6.2-1-.2-1.6-.4a3 3 0 00-2.5 0c-.4.2-.7.5-.6 1s-.1 1.2.7 1.3a7.8 7.8 0 011.3.1.8.8 0 01.5.4z" fill="#554b42"></path><path d="M126.1 16.6c-1.1.3-1.7-.5-2-1.3s-.4-1.8.9-2.2a1.2 1.2 0 00.7-.9c.5 1 1 2 .8 3.2a2.1 2.1 0 01-.4 1.2z" fill="#cfb60c"></path><path d="M108 38h.3c-.3.3-.2.8-.7 1-1.8 0-3.5 0-5.3.2-.4 0-.8.1-.8.5s.6.5 1 .4a7.7 7.7 0 001.8-.6 2.4 2.4 0 012.4 0 12.8 12.8 0 01-5.5 1.8 1.6 1.6 0 01-.8-.6 1.6 1.6 0 01-.2-.3 1.4 1.4 0 01.3-1.6c.9-.9 2.1-.6 3.2-.7a19 19 0 003.2-.4 1 1 0 011.1.3z" fill="#b19a24"></path><path d="M76.8 41.2a1.4 1.4 0 011.4-1.9h1.6a.6.6 0 01.2.2c.3.2.6 0 .9 0a1 1 0 011.2 1c0 .7-.5 1-1.1 1a2 2 0 00-1.4.3 2.1 2.1 0 01-1.3.2c-.5 0-.6-.8-1.2-.8a.2.2 0 01-.3 0z" fill="#187fae"></path><path d="M235.6 23c-.4-.4-1 .3-1.4-.3-.3-.8-1.1-.5-1.7-.7a10 10 0 01-2.5-1.2c0-.3.8-.6.2-1 0-.5.4-.6.6-1 .3-.4.9-.8 1-1.4.5-1-.2-2 .2-3a1 1 0 01.8-.3c.6.3.6.8.7 1.3.1 1.3-1 2-1.5 3a8.8 8.8 0 00-.6 1c-.6 1.5-.6 1.7 1 2a6 6 0 012.5.8c.3 0 .7.3.7.8z" fill="#69755c"></path><path d="M174.2 19c.5-1.2 1.6-1.2 2.6-1.3 2 0 2 0 2.6-2l1.4-4a1.7 1.7 0 011.1-1.2.5.5 0 01.2.3 6.4 6.4 0 01-1.1 2.7 6.3 6.3 0 00-1 3.5c0 1.6-.3 1.8-2 1.6a7.8 7.8 0 00-1.6 0c-.4 0-.4.3-.4.5a1.8 1.8 0 01-1.8-.1z" fill="#5b5355"></path><path d="M130.3 31.3a1.6 1.6 0 01.4.8c.4.7 0 1.2-.6 1.5a2.4 2.4 0 00-1.3 1.3c-1.2.5-.8-.7-1.1-1.1a2.2 2.2 0 00-.9-1.5c-.3-.3-.7-.5-.5-1 .8-.5.6-1.4.8-2.2.5-.5.7 0 1 .2.2.7.2 1.5 1.3 1 .5-.1.6.6 1 1z" fill="#080808"></path><path d="M113.3 19c1.2.9.8 2.2.7 3.3 0 .9-1 .2-1.3.6a2.7 2.7 0 01-.8-3.3c.3-.4.5-1 1.2-.9a.5.5 0 01.2.2z" fill="#ceb40c"></path><path d="M68.5 60.6h.3c.4.6 0 1.2 0 1.9a1 1 0 00.9.8c.4 0 1 .5 1.2-.3 0-.7.8-.8 1-1.4a2 2 0 00.1-1.4 1.7 1.7 0 010-.3 3.3 3.3 0 01-.1-.7 29.7 29.7 0 01-.3-3V56a3.4 3.4 0 00.2-1.3v-1a2.6 2.6 0 00-.2-1.3c-.2-.6-.4-1.1.2-1.6a.4.4 0 01.4.1c.5 3.2 0 6.4.4 9.5a3.8 3.8 0 01-1.5 3.9 1.4 1.4 0 01-1.7.2c-.7-.4-1.3-1-1.2-2l.3-1.8z" fill="#686163"></path><path d="M226.6 27.7c-.1-.3.2-.5.3-.7s.3-.7-.3-.6a1.6 1.6 0 01-1.8-1 2.3 2.3 0 01.3-2.5c.4-.5.6-1.5 1.6-1.4.4 0 .8-.4 1.1 0a1 1 0 010 1.2c-.5-.4-1-.6-1.5 0s-1.2 1.2-.8 2.1a.6.6 0 00.6.4c.5 0 .6-.3.7-.7.3-.5.1-1.3.9-1.5a8.2 8.2 0 00.4 2.5 5.5 5.5 0 01-1.5 2.2z" fill="#b29a1a"></path><path d="M76.5 36.4a5.9 5.9 0 002.8-1.6c.6-.5.6.5 1 .7.4.5 0 .8-.2 1.1a2 2 0 00-1.5.7c-.8 1-2 .9-3 1a4.6 4.6 0 01.9-1.9z" fill="#b9a41d"></path><path d="M233.5 15.3c-.5-.2-.4-1-.8-1.2-1.5-.8-2.8-.5-3.4.8-.1.4-.3.7-.8.7-.6-.2-.6.3-.8.6a8.5 8.5 0 01-1.4 1.8v-.3a26 26 0 013.8-4.9 2.3 2.3 0 012.9-.2 2 2 0 01.5 2.7z" fill="#4f4541"></path><path d="M106.7 39.5c-1.3-.2-2.4.4-3.6.9a2.4 2.4 0 01-1.4.1c-.4 0-.7-.1-.7-.5a.8.8 0 01.5-1 4.9 4.9 0 011.5-.2c1.3-.1 2.6.4 3.9-.4.4-.3.5.3.7.5-.3.3-.5.6-1 .6z" fill="#dfc303"></path><path d="M206.4 28.3l.4.8c-.2 1-1.2 1.6-1.2 2.6a5.5 5.5 0 01-1.5.2c-.8 0-1-.2-.8-1a2.1 2.1 0 001.6-1c.6-1.3.3-2-1-2.3a1.9 1.9 0 01-.5-.3l.1-.2a1.4 1.4 0 011-.5c1 .1 1.4 1 1.9 1.7z" fill="#040403"></path><path d="M122.2 64.8c-.8 0-1.2-.6-1.2-1.5s.4-1.6 1.4-1.7 1.4.5 1.5 1.4a1.6 1.6 0 01-1.7 1.8z" fill="#d25e25"></path><path d="M98.3 11.3a2 2 0 01-2.2-1.5c-.3-.9-.2-1.5.9-1.5a4.4 4.4 0 00.9-.2 1.8 1.8 0 01.4 3.2z" fill="#dec303"></path><path d="M230.9 45.5c-.6-.3-1.3 0-1.7-.7-.7-.4-.7-1-.2-1.5.6.6 1 1.3 2 1.2.4 0 .8 0 .8-.6s-.3-.4-.6-.5c-.7-.3-1.4.3-2.1 0-.2-.8.3-.9.8-1 .3-.1.8.2 1-.3-1.6-.2-3.2 0-4.9-.1-.5 0-1.2.2-1.3-.7l6.2.1a2.2 2.2 0 012 1.5 1.7 1.7 0 01-.3 1.8 1.6 1.6 0 01-1.7.8z" fill="#ad9b2f"></path><path d="M106.9 34.7v.3c-.5.9-1.3 1.5-1.9 2.3s-1.6.6-2.4.6a5.5 5.5 0 00-2.9.8c-1.2-.4-2.6-.2-3.6-1.2a.4.4 0 010-.4c3.4 1.3 6.3-.1 9.3-1.7a3.6 3.6 0 011.5-.7z" fill="#5d5355"></path><path d="M62.1 40l-.5.5a6.6 6.6 0 01-2.8.1c.8-.1 1.7-.1 1-1.4-.4-.5.1-1 .5-1.4a1.2 1.2 0 011.7.1c1 .6 1 1 .1 2.1z" fill="#ceb50a"></path><path d="M96.1 37.1v.3a.5.5 0 01-.3.4c-.7.2-1.3.6-1.3 1.5a1.7 1.7 0 01-.5.6.3.3 0 01-.3-.1 10.8 10.8 0 01-2.9-2.1l.3-.3A2.2 2.2 0 0094 36a.5.5 0 01.2 0z" fill="#464143"></path><path d="M128 29.5c-.3 0-.3-.8-.7-.2a2.7 2.7 0 00-3 1.5 6.5 6.5 0 01-1.2 0 2.9 2.9 0 00-2.7 1v-.3c1.7-1.5 3.4-3.3 6-3.2a2.5 2.5 0 011.7.7.4.4 0 01-.1.5z" fill="#403f41"></path><path d="M125.1 63.5c0-.7.2-1.5 1.3-1.6.7 0 1.4.8 1.4 1.7a1.4 1.4 0 01-1.4 1.6c-1-.1-1.3-.7-1.3-1.7z" fill="#cd4b0a"></path><path d="M117.1 8c.5.6 1.3.2 2 .3.4.1 1 0 1 .6a1.1 1.1 0 01-.4 1.4 1.8 1.8 0 01-1.6.8h-.3c-2.2.5-2.8-.1-2.4-2.3a1.8 1.8 0 011.7-.9z" fill="#a49120"></path><path d="M133.3 40a1 1 0 01.6 1.5c-.2.6-.7.4-1.2.4-1 0-1.8.2-2.8.3a1.6 1.6 0 01-.9-.6c1.4-.5 2.6-1.8 4.3-1.5z" fill="#d2b80b"></path><path d="M127.8 33.8c.7 0 0 1.3 1 1.2.2.3.2 1 1 .5.2-.2.3-.8.8-.5s.2.7.1 1.1c0 .8-1.1 1.8.4 2.3a.2.2 0 01.1.1v.1c-.9.3-1.3-.2-1.6-1-.2-.5-.5-.7-1-.5-.2 0 0 .2 0 .4a5 5 0 00-1.1 2 .3.3 0 01-.4.3 2.4 2.4 0 01-.2-2.2 32.2 32.2 0 00.9-3.8z" fill="#49403a"></path><path d="M122 34.8c0-.3-.3-.5-.6-.6-.5-.3-1-.8-.7-1.5a1.8 1.8 0 011.7-1c.7-.1 1 .2 1 1s.4.2.6.3a5.8 5.8 0 01-2 1.8z" fill="#bea614"></path><path d="M168.1 36.1a6.6 6.6 0 01.9 1.9 1 1 0 010 .6 1.3 1.3 0 01-1.8.9 2 2 0 01-1.3-2.2c.1-1 .8-1.4 1.7-1.3a.8.8 0 01.5.1z" fill="#baa527"></path><path d="M123.8 25.3c0-.4.2-.6.4-1-.6.2-.9.7-1.5.6a1.6 1.6 0 01-1.2-1c-.2-.5 0-.7.3-1 .5-.5 1-1 1.7-.8a1 1 0 01.6 1c0 .3-.2.8.4.8 0 .5 0 1.1-.7 1.4z" fill="#167ba9"></path><path d="M77 6v1.1a2.6 2.6 0 00-1.2 1.1 7 7 0 00-.9 1.3c-.1.5.4.7.5 1.1.3.7.2 1.5-.5 1.4-1.5-.2-2 1-2.8 1.6a.3.3 0 01-.3 0 16.1 16.1 0 012.6-4.7l2-2.4c0-.2.2-.5.6-.5z" fill="#8a7e58"></path><path d="M202.6 36v-.2a1.4 1.4 0 001.3-.6 1 1 0 011-.4c1 0 1.2-.5 1.2-1.3v-.1c.3-.5.2-1 .3-1.5a.6.6 0 01.2-.2c.6 0 1.2-.2.9.7a2.5 2.5 0 00-.4 2.4c0 .4.2.9-.5.7-1.1-.1-1.4.5-1.2 1.4a1.3 1.3 0 01-1.5-.5 1 1 0 00-1.3-.4z" fill="#181713"></path><path d="M182.7 41.3a3.6 3.6 0 01-5-.2 9.5 9.5 0 01-1.4-1.8c-.5-.9-.9-.6-1.3 0s-.5 1.3-1.4 1.3l-.2-.1c-.4-.4-.3-.9 0-1.3a2.7 2.7 0 001.5-1 1.3 1.3 0 011.2-.3c.9.5 1 1.6 1.7 2.2a3.6 3.6 0 004.1 1 .6.6 0 01.8.1z" fill="#a8a48f"></path><path d="M95.5 5.3c-.8.5-1.8.9-1.4 2.3.3.7-.5.3-.8.4-.5.2-.6 0-.6-.5 0-1.4-.1-1.5-1.5-1.2-.8 0-1.2.8-1.8 1.1-.3 0-.7 0-.8-.4C90.3 6 92 5 94 5c.5 0 1 0 1.5.3z" fill="#151411"></path><path d="M130.7 36.1l-.1-1.1c-.7.4-.8 1.7-1.8 1-.5-.2-.3-.6 0-1 0-.6.1-1.3 1-1.4a1.2 1.2 0 00.9-1.4c.8 1.3.5 2.6 0 4z" fill="#8a7a39"></path><path d="M206.6 35.5c.6 0 .3-.4.2-.7a1.9 1.9 0 01.6-2.5 1 1 0 011-.1c1 .9 1 1.6.1 3.3a1.8 1.8 0 01-1.9 0z" fill="#1183be"></path><path d="M151 31.3v-.5a4.8 4.8 0 001.7-3.2c.9-.4 1.4-.2 1.6.6a3.4 3.4 0 01.1 1.4 1.2 1.2 0 01-.5 1 5.5 5.5 0 01-1.4.3z" fill="#c0aa11"></path><path d="M147 37.9a1.7 1.7 0 01.5-2.9c.5-.2.7-.3.4-1a.6.6 0 01.7-1c1 .4 1.4.2 1.6-.7l.3-.2a23 23 0 01-1 4.3.4.4 0 01-.5-.6c0-.1.2-.3 0-.4s-.2.3-.5.3c-1.2-.1-1.5.1-1.5 1.3 0 .3.2.6 0 .9z" fill="#1f769d"></path><path d="M24.2 73.4c-1 .3-1.6 0-1.8-1.2a26.6 26.6 0 01-.1-3c0-.6 0-1.3-.7-1.3s-.7.7-.7 1.3c0 .9.5 1.8-.6 2.5-.2-.5 0-.9 0-1.3 0-1.4 0-1.5-1.4-1-.4.1-.7.4-1.2.1.4-.7 1.2-.8 1.8-1 .3-.1.8-.2.7-.7s-.6-.4-1-.3l-2.2.9a2.7 2.7 0 013.6-.7.7.7 0 00.4 0c1.4-.4 1.5.5 1.6 1.5l.1 2.7a1.4 1.4 0 001.5 1.5z" fill="#e8af92"></path><path d="M160.4 34.2c0 .3.3.3.6.4-.2.3 0 1-.6 1a2.5 2.5 0 00-1.8-1.4 9.5 9.5 0 00-.2-1.8c.1-.6-.4-1.2-.2-1.8l.7.2a1 1 0 011.2.6c1 .2 1.3.7.6 1.5a1.2 1.2 0 00-.3 1.3z" fill="#a18d27"></path><path d="M147 37.9c-.2-.7-.5-1.4 0-2s1-1 1.5-.2a.5.5 0 01.6.2l.4.5c.2.5-.2 1-.3 1.4l-1.2.5a1.2 1.2 0 01-1-.4z" fill="#0891d2"></path><path d="M182.7 41.3c-.6-.2-1 .3-1.4.4a4 4 0 01-3.7-1.4 2.8 2.8 0 012.4 0 5.1 5.1 0 002.8.2h-.6a2.3 2.3 0 01-.8 0c-.2-.1-.5-.2-.4-.5 1.3 0 2.7.3 3.5-1.2.4.5 1.3 0 1.5.8a1.6 1.6 0 00-1.7.5 11.2 11.2 0 01-1.6 1.1z" fill="#544c4e"></path><path d="M55.1 39.8h-.5l-2.6-2a.3.3 0 010-.3.8.8 0 011-.3c.3.1.5.5.8.2s0-.7-.1-1a1.5 1.5 0 010-.9.6.6 0 01.2-.2c.5-.2.7.2 1 .5a2.3 2.3 0 001.1.8.5.5 0 01.3.2l-.7.5a8 8 0 00-.5 2.5z" fill="#0d0c0a"></path><path d="M224.7 41.3c.3.7 1 .5 1.5.4h4.5c.4 0 .8 0 1 .5-1.1.3-2.2-.2-3.4.1-1-.1-1.6.7-2.2 1.3-.8-.8-2.2-1-2.6-2.3 0-.3 0-.5.2-.6z" fill="#0b0a09"></path><path d="M10 30.1c.7.4.6 1.1.7 1.6a12.6 12.6 0 001.9 4.4l2.6 4a1.8 1.8 0 01.4 1.4 52.4 52.4 0 01-3.7-5.5c-.9-1.8-2.1-3.6-1.8-5.9z" fill="#ecdcac"></path><path d="M224.5 30.7c.2-.6.2-1.1-.4-1.5-.4-.1-.9-.4-.6-.7.5-.6.5-1.5 1.4-1.7.7-.1.7.4 1 .8a2 2 0 00.3.5 9 9 0 01-1.7 2.6z" fill="#c1a812"></path><path d="M112.3 15.3l.2-1.7a.5.5 0 01.4-.3 3.2 3.2 0 01.7 0 3 3 0 01.5 3.5 1 1 0 01-1.1.3.9.9 0 01-.7-.8v-1z" fill="#c2aa15"></path><path d="M182 10.8v-.4a1.3 1.3 0 011.6-.5c.7.3 1.4.8 1.4 1.7a10.8 10.8 0 01-.9 5.2h-.2c0-.3 0-.5-.3-.6a1.3 1.3 0 01.3-1.1 2.5 2.5 0 00.3-2.1c-.2-.8-.4-1.4-1.2-1.6a1 1 0 00-1-.6z" fill="#4c5258"></path><path d="M158.8 39.8a1.3 1.3 0 01-.7 1.1 1 1 0 01-.6.1 1.4 1.4 0 01-.4 0 1.6 1.6 0 01-.8-2.6 1.3 1.3 0 011.5-.4 1.5 1.5 0 011 1.8z" fill="#b29c1c"></path><path d="M97.1 16c0-.3.4-.6.1-1.1-.6 0-1.4 1-1.7 0-.3-1 .5-1.6 1-2s.9.3 1.2.7l.3-.6c.5 1.2-.3 2-.9 3z" fill="#918136"></path><path d="M85.6 31.3c-1.6-1-1.7-1.5-.7-2.8l.1-.1c1.4-.3 1.7-.2 2 1.2 0 .4-.3.7-.5 1a1.2 1.2 0 01-.9.7z" fill="#1b81b0"></path><path d="M221 23.7a1 1 0 011 .5c0 1.8-1.4 3-2 4.5a5.2 5.2 0 01-.8 1.7c-.5.2-.3.9-.7 1.2-.3 1 .2 2.3-.9 3.2 0 0-.2.3-.4.2a43.7 43.7 0 013.8-9.6 2 2 0 000-1.7z" fill="#bcb8b0"></path><path d="M99.7 31l1.8-.6c1.8-.4 2-.6 2-2.4a1 1 0 01.5 1.4 2.7 2.7 0 01-1.9 1.6 17.4 17.4 0 00-5.7 1.7L95 33.8v-.6a3.9 3.9 0 013-2 3.5 3.5 0 001.7-.3z" fill="#5b584d"></path><path d="M52 37.5v.3c-.7-.1-1 .2-1.4.7-.7.9-1 2.3-2.4 2.5-.3.1-.1.4 0 .6a5.7 5.7 0 01-.3 3 17.7 17.7 0 00-.2-3.3.7.7 0 01.3-.7c1.1-1.1 1.9-2.5 3-3.7.5-.3.9.1 1 .6z" fill="#e1ce90"></path><path d="M72.6 40.4l-.1 1.5a.3.3 0 01-.3 0 1 1 0 01-.3-1 1.4 1.4 0 00-1.4-1.7c-1-.5-.3-1.2-.3-1.9.1-.6.5-1.1 1.2-1s.8.6.8 1.2a1.8 1.8 0 00.2.7c0 .7.5 1.4.2 2.2z" fill="#988627"></path><path d="M152.5 30.9c.2-.6.7-.5 1.1-.4a2.7 2.7 0 011.9 1.9l.3 1.4a7.6 7.6 0 00.2 1.2 4 4 0 01.1 1c0 .7-.5 1.3-.6 2a3 3 0 00.6 3.1.4.4 0 010 .3 1.4 1.4 0 01-1.3-1.5 8.1 8.1 0 01.3-3.1 6.2 6.2 0 00-.5-4.7c-.4-.8-1.4-.9-2.1-1.2z" fill="#7c7771"></path><path d="M85.5 49.3h-.2l-.5.4c-1.2 0-2-.6-1.9-1.5s.8-1.3 2-1.2a1.6 1.6 0 01.6 2.3z" fill="#cdb40d"></path><path d="M85.8 10l.1.2c.4.3 1.4-.3 1.3.6a2.6 2.6 0 01-1.7 1.9c-.3.1-.7-.1-1-.4a.8.8 0 010-1l1-1.2a.3.3 0 01.3-.1z" fill="#dfc403"></path><path d="M92.7 24.4h.3a4.1 4.1 0 01-1.9 2.2.5.5 0 01-.5 0 12.9 12.9 0 00-.2-1.6c-.2-.7-.2-1.5.7-1.7s1.5.2 1.6 1.1z" fill="#3183a9"></path><path d="M76.5 36.4c-.4.6.1 1.6-.9 2a2.8 2.8 0 01-1 .8c-.9-.2-1.3-1-2-1.3a.4.4 0 010-.4c.1-.2.3-.1.5 0-.1-.2-.3-.1-.5-.2-.3 0-.4-.3-.2-.6a2.5 2.5 0 011.1 0c1 .8 1.5-.2 2.2-.5 0 1 .4.4.8.2z" fill="#322e2c"></path><path d="M204.4 42.2h.7a.5.5 0 01.3 0 8 8 0 005.2 1.6c1 .9 2.1.3 3.2 0 .5 0 .8-.7 1.5-.5-1.2 1.4-2.8 1.3-4.4 1.3a9.4 9.4 0 01-6-2 3.3 3.3 0 01-.5-.4z" fill="#76746e"></path><path d="M183 22l.2 1.5c0 .2 0 .4-.3.5a1.9 1.9 0 01-2-1.2c-.2-.3-.5-.6-.1-1a1 1 0 011-.3l1.3.5z" fill="#0c85c0"></path><path d="M94.7 20.8a6.3 6.3 0 01.6-1.1c.4-.6.5-.9-.3-1.2-.5-.3-.5-1.6 0-2s.7-.2.9.2.1.7.7.5c.2.8-.3 1.3-.6 1.8a11.6 11.6 0 01-1.5 3c-.4-.5 0-.8.2-1.2z" fill="#8f7f35"></path><path d="M89.4 63.3a11.6 11.6 0 001.7 0 2.7 2.7 0 002.4-3.3c-.2-1.3-1.8-1.9-3.4-1.3l-1 .3c.4-.7 1.2-.6 1.9-.8-.4-.7-1.2-1.3-.4-2 .3.5.6 1.1 1.2 1.4-.2.5 0 .6.5.7A2.3 2.3 0 0194 61a3.1 3.1 0 01-2.3 2.6c-.8 0-1.6.3-2.3-.3z" fill="#f0cbb9"></path><path d="M188.1 30.1a2 2 0 00-1.8 1.1c-.4.6-1 1.5-2 1.2a7.6 7.6 0 015-4c0 .5-.7.7-.5 1.3a1.1 1.1 0 00-1.6.2c.2.2.7 0 1 .3z" fill="#343b3e"></path><path d="M208.4 35.5c-.2-.4 0-.6.2-1a1.8 1.8 0 00-.3-2.2c-.4-.2-.3-.5 0-.6a.8.8 0 011.2.5 9.4 9.4 0 010 2 1.5 1.5 0 001.8-.3.8.8 0 011 0l-.3.4-1.3.7c-.3.2-.7 0-1 .1s-.8.5-1.3.4z" fill="#151410"></path><path d="M155.6 27.8a1.9 1.9 0 012.5 2.1 2 2 0 01-.8.2c-.6 0-1.3.2-1.7-.4a1.5 1.5 0 010-1.9z" fill="#dcc208"></path><path d="M158.7 34.3c1.2-.2 1.6.1 1.7 1.4a.7.7 0 01-.6.7l-.3.3c-.3.2-.7.5-1.1.2a1.1 1.1 0 01-.5-1.2c.2-.6 0-1.3.8-1.4z" fill="#c0a912"></path><path d="M83.7 33.3a1.8 1.8 0 01-2.1-.2c-.6-.4-1-.8-.7-1.6.3-.5.5-1.3 1.2-1.2s1.6.2 1.7 1.2c0 .4 0 .8.5.9l-.4.9z" fill="#94832f"></path><path d="M85 47a1.1 1.1 0 01-.5.1c-.9 0-1.5.4-1.3 1.4s1 1.2 1.9.8c.2.3 0 .6-.2.8a1.1 1.1 0 01-1.2.1c-1.2 0-1.3-1-1.4-2 0-1.6 1-2.1 2.3-1.5.6-1-.3-1.9 0-2.8A9 9 0 0185 47z" fill="#92812b"></path><path d="M72.3 42a.7.7 0 00.2 0c.6 1 0 2.2 0 3.3a.4.4 0 01-.3-.2c-.2-1-1.3-.3-1.6-1s0-1.3.1-2c.4-.8 1-.1 1.6-.1z" fill="#1180b5"></path><path d="M72.4 45.3h.1a2.1 2.1 0 010 2 1 1 0 01-.8.6c-1.4 0-1.6-.3-1.3-1.7a2 2 0 011.8-1z" fill="#0f82b7"></path><path d="M201.6 35.4a5.4 5.4 0 001.5 4.5 9.1 9.1 0 011.1 2 6.3 6.3 0 01-2.8-5v-1.3c-.2-.9-.9-1.2-1.6-.6a.8.8 0 010-1 1.4 1.4 0 011.6.7z" fill="#999698"></path><path d="M15.6 74.3a14.6 14.6 0 002.2.5 2.7 2.7 0 002.6-1.1c.6-.9 1-1 1.6 0a1.9 1.9 0 003.3.2 1.5 1.5 0 00.3-1c.5.3.3.7 0 1a2.2 2.2 0 01-3.6.2c-.7-.7-1-.6-1.6 0a3.7 3.7 0 01-4.8.2z" fill="#e8af92"></path><path d="M72.6 37.8c1-.1 1.3.9 2 1.4a2.7 2.7 0 01-2 1.2c-.2-.7-.8-1.3-.2-2-.2-.4-.1-.5.2-.6z" fill="#c8b010"></path><path d="M179.6 35.5l-.1.5-.4-.3-.3-.7c-.5-.7-.2-1.6-.4-2.3a10.6 10.6 0 00-.1-1.3 3.4 3.4 0 00.4-1.3.8.8 0 01.4-.6c.7-.3 1-1 1.4-1.6.3-.3.4-.8 1-.8A5.8 5.8 0 01180 29c-1.4 1.7-1 3.6-.7 5.6l.2.9z" fill="#42656a"></path><path d="M140.3 28a6.7 6.7 0 00-4.1.3c-.3 0-.5.3-.8 0 2.4-1.8 5-1.7 7.4-.2a.2.2 0 010 .2c-.4.3-.9.1-1.3 0s-.8-.5-1.2-.3z" fill="#605c54"></path><path d="M90.7 26.5l.4.1a5.1 5.1 0 01-2.6 2.2c-.8-.4-.4-1-.3-1.6a2 2 0 011-1 1.9 1.9 0 01.9 0 1 1 0 01.6.3z" fill="#b9a41f"></path><path d="M174.2 19c.6 0 1.2-.2 1.8.1a.7.7 0 01.2 1.3c-.3.2-.2.8-.8.9-1.4-.5-1.6-1-1.2-2.3z" fill="#b29c1e"></path><path d="M93.7 39.8h.3a2.2 2.2 0 011.8.3 4.2 4.2 0 002.8.5 6.8 6.8 0 011.8 0 1.4 1.4 0 01.8.7c-2.7.3-5.2.2-7.5-1.5z" fill="#625a44"></path><path d="M82.6 7.4l.3.2c-.2 1.4 0 1.6 1.4 1.2a.3.3 0 01.4.2l.1 1.4-.6.6a3.5 3.5 0 00-1.7-1 1.4 1.4 0 01-1-2.2c.2-.5.5-.8 1.1-.4z" fill="#ac9821"></path><path d="M112.3 15.3c.2.6 0 1.7 1 1.6s.9-1 .8-1.8.5-1.8-1-1.7c.1-.9.6-.7 1-.3 1 .8.5 4-.7 4.4-1 .3-.2 1-.3 1.4-.6 0-.8.6-1.2.7a1.6 1.6 0 01.1-1 6 6 0 010-1.4 5.9 5.9 0 01.3-2z" fill="#443d36"></path><path d="M115.4 8.8a1.7 1.7 0 01.1.4c.2 2 .3 2 2.3 1.6a2 2 0 01.4 0 .4.4 0 010 .5 2.5 2.5 0 01-1.3.8c-1.5.4-2.5-.6-2.3-2.2a1 1 0 01.2-.6c.3 0 .2-.5.6-.5z" fill="#12110e"></path><path d="M127.8 33.8a8.5 8.5 0 01-.8 3.8 3.5 3.5 0 000 2.2c-.8-1-.3-2-.2-3a18.3 18.3 0 01.6-2c.4-1.7-.2-2.5-2-2.7l.2-.4c.1-.4.3-.6.6-.3.6.8 1.7 1.2 1.6 2.4z" fill="#7e6c3f"></path><path d="M159.6 36.4h.2l-1 3.4-.2-.5c-.2-.7-.6-1.2-1.4-1.1a1.1 1.1 0 00-1 1 1.2 1.2 0 001 1.5h.3c-.2.7-.6.5-1 .4a1.5 1.5 0 01-1-1.3c-.1-1.3.7-2.1 2.1-2.2 1.2.5 1.4-.7 2-1.2z" fill="#706644"></path><path d="M174.5 30.7v.5c.4.4.2.8 0 1.2a2.6 2.6 0 00-.2 1.2c.3 1.7-1.1 2.4-2 3.5a.6.6 0 01-.6.1c-.3-.8.7-1 .8-1.7 1.2-1.5 1.2-3.3 2-4.8z" fill="#696161"></path><path d="M115.3 38l.4.3.6 1.6a2.2 2.2 0 01.5 1c.5 1.3.5 1.4 2 1.3a1.5 1.5 0 01.6 0 .5.5 0 01.3.2c-.5.9-1.4.8-2.1.6a1.7 1.7 0 01-1.4-1.5c-.2-1.1-.8-2.2-1-3.4z" fill="#beb89e"></path><path d="M84.7 9c-.6-.2-1 1-1.7.3-.6-.6-1-1.1 0-1.7.3-.1.6.3 1 0 .5.4 1 .7.7 1.4z" fill="#dec302"></path><path d="M95.2 59.1c-.5 0-.8-.3-.8-.7a1.5 1.5 0 011.4-1.4c.4 0 .8.2.8.7a1.7 1.7 0 01-1.4 1.4z" fill="#ce4e0e"></path><path d="M232.5 22c1.1-.3 1.7 0 1.7.7-.5-.3-1 0-1 .5a7 7 0 01-.6 2.4 3.5 3.5 0 01-1.7-.3 2.1 2.1 0 001.6-3.3z" fill="#0b0e0c"></path><path d="M112.7 35.5a.7.7 0 00-.6-.3c-.4 0-1 .2-.8-.5a1.4 1.4 0 011.2-1.1c.5 0 1 0 .8.6s.3.5.6.6a3 3 0 01-1.2.7z" fill="#807348"></path><path d="M155.6 27.8v.7c0 1.1.3 1.5 1.4 1.4.4 0 .8-.3 1.2 0v.2a.8.8 0 01-.6.5 2.4 2.4 0 01-2.7-1 2 2 0 010-2 .8.8 0 01.7.2z" fill="#ac951b"></path><path d="M168.1 36.1h-.3c-.2-.3 0-.8 0-1.2a4.8 4.8 0 010-1.2c.7-.7.2-1.5 0-2.3-.3-.5-.7-.8-.8-1.2v-.3c1.3.6 2.3 3.1 1.8 4.4-.2.6 0 1.4-.7 1.9z" fill="#8b867c"></path><path d="M94.6 64.8a1.2 1.2 0 01-1.2-1 .7.7 0 01.7-1 1.2 1.2 0 011.4 1.1c0 .5-.3.8-.9.9z" fill="#d1591e"></path><path d="M46.5 6.7a.2.2 0 000-.2L51 5A1.5 1.5 0 0052 4c.4-1 .5-2.3 1.4-3-.3 1.2-1 2.3-1.2 3.6a1 1 0 01-.8.7c-1.7.3-3.2 1.2-5 1.4z" fill="#44413d"></path><path d="M185.8 71.9c-.7 0-1-.5-1.3-1-.4-1-.2-1.4.9-1.4a9.6 9.6 0 011 0 4.3 4.3 0 004.2-1.4 2.4 2.4 0 01-2.2 1.7 10 10 0 01-2.7 0c-.3 0-.8-.2-1 .2s0 .8.4 1 .5.6.7.9z" fill="#d25e24"></path><path d="M94.7 20.8c.2.5-.3.8-.2 1.2l-.6 1-.3-.1c0-1.3-.7-1.5-1.8-1.4 0-.7.4-1 1-.7s1.1.5 1.7 0z" fill="#0b0b09"></path><path d="M213.6 27.8a2.2 2.2 0 01-1.1-.7l-3.5-1.5a5.6 5.6 0 00-2.3-.1c-.3 0-.6.1-.8-.1.7-.8 1.8-.6 2.6-.4a6.7 6.7 0 015 2.8z" fill="#bab6b8"></path><path d="M127 39.8c.3-.9.4-2 1.5-2.4.9 0 1 .4.6 1a2 2 0 01-1.1.9 1.3 1.3 0 00-.2 1.2l-.1.2a1 1 0 01-.7-.9z" fill="#7e6c3f"></path><path d="M207.8 40c0-.5-1-.3-1-1 1 .1 2 .9 3 1a5.9 5.9 0 003.8-.5.2.2 0 010 .2 4.5 4.5 0 01-4.3.6l-1.5-.3z" fill="#a3a3a4"></path><path d="M166.4 41.5h.4a1.4 1.4 0 01.5 0c1.5 1 3 .4 4.5 0a.6.6 0 01.3.2c-1.4 1.9-4.3 1.4-5.7-.2z" fill="#e1dab0"></path><path d="M205.8 25.4c1.2-.2 2.3-.6 3.4 0l-.1.2c-1.7 0-3.1.8-4.7 1.2l-.9.3c.4-1.2 1.4-1.4 2.3-1.7z" fill="#b2afb1"></path><path d="M128 29.5l.1-.5a3.4 3.4 0 012.2 2.3c-.4-.3-.5-1-1.5-.5-1.2.6-.6-.8-.8-1.3z" fill="#a79124"></path><path d="M213.6 39.8v-.3c1.5-.9 2.2-2.5 3.3-3.7a2.5 2.5 0 00.3-.8l.5-.3v.8a8.5 8.5 0 00-1.7 2 5.5 5.5 0 01-2.4 2.3z" fill="#928f90"></path><path d="M66.1 13l1 .7a6.3 6.3 0 011.5 1.1c.2.3.4.5 0 .7a1 1 0 01-.4 0c-.7-.5-1.8-.4-2.1-1.6-.1-.4-1-.4-1.4-.6a.7.7 0 01-.3-.6h.1c.7-.5 1.1.1 1.6.2z" fill="#5c5554"></path><path d="M131 38.6a.8.8 0 010-.2h2c.8 0 1.3-.2.7-1.1a2.2 2.2 0 01-.2-.8l.1-.1a.7.7 0 01.4.2 2.2 2.2 0 01.7 1.2c.2.8-.1 1.2-1 1.3a6 6 0 01-2-.3h-.4c-.2 0-.3 0-.2-.2z" fill="#b3afaa"></path><path d="M80 36.6l.2-1.1.6-.5c.6.7.2 1.6.4 2.4-.3.7.1 1.6-.8 2.1a.5.5 0 01-.6 0v-.3c.8-.8.4-1.7.3-2.6z" fill="#504f48"></path><path d="M87 61.5a.9.9 0 01-1 .7.8.8 0 01-.8-1 1 1 0 011.8.2z" fill="#d1591d"></path><path d="M145.3 29.6c1.2 1.1 1.2 1.1 2-.5a2.3 2.3 0 01.3-.4.6.6 0 01.2.3c.1.8-.4 1.5-.3 2.3-.3.3-.7.3-1.1.4-.7 0-.9-.6-1-1a1.4 1.4 0 01-.2-.9.3.3 0 01.1-.2z" fill="#95abb6"></path><path d="M88.4 27.3a1.9 1.9 0 000 1.5 10.7 10.7 0 01-2 1.9.7.7 0 01.4-.8c.3-.6 0-1.4.5-2 .3-.3.5-.9 1.1-.6z" fill="#726442"></path><path d="M52.2 6.5a4.7 4.7 0 00-3.2.7 18 18 0 00-3.4 1.1h-.7A27.5 27.5 0 0151 6.2c.3 0 .8-.2 1.1.3z" fill="#44413d"></path><path d="M154.7 27.6c.6.6-.4 1.2.2 1.8a.6.6 0 01-.7.3c0-1.9-.1-2-1.5-2V27a.7.7 0 011 0z" fill="#423d28"></path><path d="M68.6 15.3c0-.5-.4-.7-.8-1s-.7-.2-.6-.7a.8.8 0 01.8.4c1 1.2 2.2 1 3.4.4.3.6 0 .8-.4 1l-2.5.4a.3.3 0 010-.5z" fill="#d2c884"></path><path d="M95.2 31.6c.2-.5 1-1 .5-1.7a1.6 1.6 0 00-2.2-.4 6.2 6.2 0 012.8-1.3v.1a1.3 1.3 0 000 1.5c.6 1 0 1.8-1.1 1.8z" fill="#ad991c"></path><path d="M91.8 57.5c-1.3.3-1.4-.5-1.2-1.4.5-.3.9-.4 1.3 0s.2 1-.1 1.4z" fill="#d4642d"></path><path d="M195.8 41h1a6.6 6.6 0 01-5.7 1 3.5 3.5 0 001.4-.3c1-.5 2.2-.4 3.3-.7z" fill="#786c36"></path><path d="M17 68.3a5.1 5.1 0 01-.6.8c-1.7 1.4-1.7 3.1-1.1 5a4 4 0 011.7-5.8z" fill="#e8af92"></path><path d="M78.1 41.6a2 2 0 001.4-.1c.6.2 1.6-.5 1.6.9a.3.3 0 01-.4 0c-.2-.3-.6-.2-1-.2-1-.1-2.3.3-2.8-1a.3.3 0 010-.2c.5 0 .8.5 1.2.6z" fill="#7b7e80"></path><path d="M148 38.3c.4-.4.4-1.3 1.2-.6a6 6 0 01-.8 3 .2.2 0 01-.3 0 6.5 6.5 0 010-1.8c.1 0 .4 0 .4-.3s-.3-.3-.4-.3z" fill="#474e3e"></path><path d="M114.8 9.3v.5a7.8 7.8 0 01-1 2.4 11.9 11.9 0 01-.9 1.2l-.4.2a8.7 8.7 0 012.3-4.3z" fill="#b6b2b3"></path><path d="M133.4 36.5a6.9 6.9 0 01.1-5.1 1.5 1.5 0 01.3 1.3c-.2 1 .1 1.8 0 2.7a1.4 1.4 0 01-.2 1z" fill="#b3afaa"></path><path d="M88.5 57.8c.4.5 0 .8-.4 1a1 1 0 01-1.4-.3 1 1 0 010-1.3.8.8 0 011.1-.3.9.9 0 01.7.9h-.2c-.3 0-.6-.5-1-.2a.2.2 0 000 .3c.5.4.8.1 1.2-.1z" fill="#e39c79"></path><path d="M120.7 29c-.3 0-.5.6-.5.3-.2-.4-.5-1.1-.1-1.4s1.1-.7 1.5.3a2.8 2.8 0 00-.9.9z" fill="#0e0e0d"></path><path d="M87.3 8l.1.3c0 .5.6 1 .2 1.3a1.4 1.4 0 01-1.6 0z" fill="#0f0e0d"></path><path d="M96.6 60.7c.8 0 1 .6.7 1.1s-1 .6-1.6.5a.8.8 0 01-.5-1.2c.2-.6.7-1 1.4-.4-.2.3-.8.3-.6.8a.3.3 0 00.3.2c.6-.2 0-.7.3-1z" fill="#e6a787"></path><path d="M153.7 27h-1a3.7 3.7 0 00-1.5 0 .7.7 0 01-.7.2.6.6 0 01-.3-.2 3.2 3.2 0 013.5 0z" fill="#b1afaf"></path><path d="M142.8 28.3V28a3.3 3.3 0 012.5 1.6l-.1.1c-1.2.3-1.7-.7-2.4-1.4z" fill="#95abb6"></path><path d="M71.9 47.6c.1-.2.4-.1.6-.2a6.9 6.9 0 01-.3 3.4h-.3a.6.6 0 01-.2-.3c.2-1 0-2 .2-2.9z" fill="#655c4b"></path><path d="M80.7 42.5h.4a6 6 0 010 2.4l-.1.6c-.9-1-.7-2-.3-3z" fill="#e5d77c"></path><path d="M189.4 64.5a9.5 9.5 0 00-3.9-.3 3.4 3.4 0 013.9.3z" fill="#d25e24"></path><path d="M71 15.4c.1-.3.5-.6.4-1l.3-.8a.4.4 0 00.2 0c.5 1.2 0 2-.7 3-.7-.3-.6-.8-.3-1.2z" fill="#3c3f40"></path><path d="M190.6 68a4 4 0 00-1.2-3.5c1.4.6 1.8 2 1.2 3.6z" fill="#d25e24"></path><path d="M168.8 38.4l.2-.4h1.1a.7.7 0 01.3 0c.2.2.4.2.4.5a7.7 7.7 0 01-.8 1.1c-.7-.2-.9-.8-1.2-1.2z" fill="#4e5b64"></path><path d="M120.4 40.5l.4-.8a3.3 3.3 0 01-1.1 2.8l-.1-.1a.5.5 0 01-.2-.3 2.5 2.5 0 011-1.6z" fill="#beb89e"></path><path d="M148.1 40.6l.3.1c0 1-.8 1.4-1.5 1.9v-.4a1.9 1.9 0 011.2-1.6z" fill="#c3bd9c"></path><path d="M133.5 32.8v-1.4l.4-.8a1.4 1.4 0 00.8 1.3 3.6 3.6 0 01-.5.6 2.5 2.5 0 01-.2.2c-.2.1-.3.3-.5 0z" fill="#544c4d"></path><path d="M172.1 41.7h-.2a1 1 0 01.1-1 2.7 2.7 0 011.5-.3l.1.2c0 .8-1 .6-1.5 1.1z" fill="#a8a48f"></path><path d="M172.6 35.5c.1.8-.8 1-1 1.7 0 .2 0 .3-.3.3a.4.4 0 01-.2-.1 7.4 7.4 0 011.5-2z" fill="#b7b2b2"></path><path d="M97.5 7.7c-.3 0-.6.4-1 0l.5-1.1c.2.3.7.6.5 1z" fill="#332f1c"></path><path d="M66.1 13l-1.5-.4-.8-.4a2.4 2.4 0 012.3.7z" fill="#d1c8af"></path><path d="M147.7 29v-.3c0-.7 1-.6 1.1-1.1a.5.5 0 01.2.4 1 1 0 01-.3.6c-.3.3-.6.5-1 .4z" fill="#8daab7"></path><path d="M156 41.5v-.3c.6-.2 1.3.4 1.7-.4l.4.1a1.2 1.2 0 01-2 .6z" fill="#5d5757"></path><path d="M157.7 30.3l.4-.1.1.4a2.3 2.3 0 01.4 1.7 2.1 2.1 0 01-.9-2z" fill="#554b42"></path><path d="M220.3 23.2a2 2 0 000 .2 4 4 0 01-1.7-.6v-.1c.9-.7 1.3 0 1.8.5z" fill="#276d8e"></path><path d="M148.9 28v-.5a3.4 3.4 0 011.4-.5h.3c-.3.9-1 1-1.7 1z" fill="#9ca0a2"></path><path d="M127.7 40.8v-.3a1.4 1.4 0 011 1.1 1.5 1.5 0 01-1-.8z" fill="#222523"></path><path d="M112.1 17.2v1.4a2.3 2.3 0 010-1.4z" fill="#c2aa15"></path><path d="M130.4 42.5h2a2.7 2.7 0 01-2 0z" fill="#d2b80b"></path><path d="M25.6 72.9c-.6-.2-.9.4-1.4.5.4-.6.7-1.2 1.4-.5z" fill="#e8af92"></path><path d="M170.3 38h-.2c.1-.5.7-.3 1-.6v.1c.1.8-.4.5-.8.6z" fill="#baa527"></path><path d="M209.7 35.2a1 1 0 011-.2 1 1 0 01-1 .2z" fill="#1183be"></path><path d="M32.7 51.8a27 27 0 00-4.8-.3c-1.3.1-2.3-.8-3.5-1-2.2-.5-4.4-1.1-5.7-3.2a11 11 0 01-1.2-3.6.4.4 0 01.3-.5c4.1-1.9 8.2-4 13-4.1s9.3.6 13.1 4c.3.2.6.4 1 .1a.7.7 0 000-1 7 7 0 00-2.2-1.7L39 38.8l-.4-.2c-2.6 0-5.1-1-7.8-1-4.1.3-7.9 1.8-11.6 3.4l-.9.4c-.3.1-.8.8-1.2.4s-.2-1-.1-1.4a5.2 5.2 0 011.2-2.4c2.1-2 4.2-4.2 7.1-5.1a3.5 3.5 0 011.5-.3c2.1.2 4.2.1 6.2.2 1.5 0 2.7 1 4 1.5 2.1 1 4.4 1.3 6.3 2.7a8.8 8.8 0 013.3 5.4c.4 1.7-.6 3.1-1.7 4.2-2 2.1-4.1 3.8-7.1 4a10.9 10.9 0 00-2.9.9 5 5 0 01-2.3.3z" fill="#daa663"></path><path d="M38.1 10.3c2.1 0 3.8 1.1 5.6 1.9.8.3 1.5 1 2.3 1.4 3.4 1.7 4.7 4.6 4.9 8.2.1 2.4-.6 4.7-1 7-.3 1.9-.8 3.7-.2 5.6.3 1-1.3 4.1-2.3 4.6-.3.1-.5 0-.6-.3a9.1 9.1 0 00-2.3-2.6c-.6-.4-.4-.8 0-1.2a21 21 0 003-4.5 15 15 0 00.8-8A5.4 5.4 0 0047 20a49.3 49.3 0 00-3-4.2c-2-2.1-4.4-2.4-7-1.8a15.5 15.5 0 00-4.2 1.8 1.2 1.2 0 01-1.3 0 10.3 10.3 0 00-7.6-1c-2.2.5-4.2 1.4-5 3.7a2.4 2.4 0 01-.3.5c-3 4.1-1.9 8.3-.2 12.5a8.8 8.8 0 001.6 2.1.6.6 0 01-.1 1 13 13 0 00-3.4 3.7c-.3.4-.5.2-.8-.1a20.4 20.4 0 01-4.1-12 14.4 14.4 0 015.7-11.8 23 23 0 0114-5.5 32 32 0 013.7.5c.4 0 .3.3.2.6-1 .9-2 1.6-3.5 1.2-.6-.1-.9.2-1 .6a1.2 1.2 0 00.4 1.5c.4.4.8 0 1-.3a3.9 3.9 0 01.7-.7c1.8-.7 3.3-2 5.3-2z" fill="#e3c054"></path><path d="M1.9 22.7a9.1 9.1 0 01.3-2.5 5.6 5.6 0 012.7-4c1.4-.8 2.6-1.8 4.3-1.8a3.5 3.5 0 011.5 0c2.8 1.2 3 1.9 1.6 4-.6 1-1 1.6-2.3 1.2-1-.2-2 .9-2.1 2.1-.2 1 0 2 1 2.4s1.4 1.6.4 2.3a5.8 5.8 0 01-5.1.9c-1.5-.5-2.4-2.4-2.3-4.6z" fill="#decd99"></path><path d="M55.4 22a12.7 12.7 0 012.4-5 .8.8 0 01.3-.2 6 6 0 012-1 1.4 1.4 0 011.7.8 5.7 5.7 0 01.5 3.3 7.9 7.9 0 00-.1 1.1c-.2 4-3.1 6-7 4.8a1 1 0 01-.7-1l.7-2.5a.6.6 0 01.2-.2z" fill="#e0cf9b"></path><path d="M20 31.4c-1-1-1.1-2.4-1.5-3.8-.2-.7-.1-1.5-.3-2.2-.6-3 .9-5.4 2.6-7.4 2-2.3 5-2.5 8-1.9 1.1.2 1.8 1.1 2.9 1.4.4.3.9-.1 1.2.2-.2.8-.9.5-1.4.5a21.5 21.5 0 01-3.7-.9c-2.8-.7-5.4 0-6.8 2.3-2 3-2.6 6.3-.9 9.7a5.6 5.6 0 01.9 2.4c-.6.5-.6-.2-1-.3z" fill="#c9b370"></path><path d="M53.2 16.8a2.7 2.7 0 00-1 0c-.7.2-1.2.1-1.5-.7a1.7 1.7 0 01.4-2c1.2-1.3 2.8-1.4 4.4-1.7a11.3 11.3 0 011.5 0c.5.2.3.5 0 .7-.8 1.2-2 2-2.8 3.3a.7.7 0 01-1 .4z" fill="#dbcb97"></path><path d="M51.3 27.6a1.8 1.8 0 01-.3-.1c.2-1.1-.4-2.3.4-3.3a6 6 0 01.8 1.4c.4 1 .8 1.2 1.7.5a1.5 1.5 0 01.9-.4 10.2 10.2 0 003 .4 1.9 1.9 0 011.5.8 1 1 0 01.1.5c-.2.5.3.9.4 1.4a1.6 1.6 0 01-2 .4c-.3-.3 0-.6.1-.9a.7.7 0 00-.2-1 .6.6 0 00-.8 0 .8.8 0 00-.3 1c0 .3.3.5.3.9a.7.7 0 01-1 .2c-.5-.4-.3-1-.4-1.4s-.2-.7-.6-.4-.2.7 0 1a1 1 0 010 .3c-.3.6-.6.5-1 .2-.2-.8-.7-.1-1-.2-.5-.5-.9-1.1-1.6-1.3z" fill="#0d0c0a"></path><path d="M32.8 12.4l-.2.4c-.3.5-.6 1.1-1.3 1a1 1 0 01-.9-.7 2.1 2.1 0 01.3-2c.2-.2.5-.4.7-.2 1.3.6 2.3-.2 3.3-.7a2.4 2.4 0 01.5-.1l1.2-.3c.4 0 .7 0 .7.5-1.3.8-2.8 1.4-4.3 2.1z" fill="#2a2824"></path><path d="M51.3 35.4l-.8.8c-.4-2.6-.9-5 0-7.5.1-.3.2-.5.6-.5.6.4.4.9.3 1.4-.4 1-.3 1 .6.8a2 2 0 01.8-.1.5.5 0 01.3.2 2.3 2.3 0 010 1.6c-.2.5-.5.3-.8 0a.7.7 0 00-1.1.2c-.3.3-.5.6-.3 1a1 1 0 001.2.5c1.2-.6 1.6.1 2 1a.8.8 0 01-.2.7.7.7 0 01-.6 0l-.3-.1a1.7 1.7 0 00-1.1 0 1.1 1.1 0 01-.6 0z" fill="#0d0c0a"></path><path d="M32.8 17.7c-.4 0-.8.2-1.2-.2a3.3 3.3 0 002.1-.7 9.7 9.7 0 017-1.7c1.8.3 3 1.8 4 3.4.6 1 1.2 2 2 3a3.8 3.8 0 01.6 2.5 12.5 12.5 0 01-.8 5.2c-.5-.6 0-1.3 0-2a8.6 8.6 0 000-3.1 12 12 0 00-5.3-7.9c-2.2-1.3-4.3-.3-6.3.8-.7.4-1.2 1-2 .7z" fill="#a89867"></path><path d="M20 31.4l.9.5c1.7.3 3-.7 4.4-1.2.5-.2.5-.5.2-.8s-.7-.7-.3-1.2h.4a4.1 4.1 0 004.3 1.3.5.5 0 01.3.1c.2.6.6.7 1.2.7a10 10 0 013 .3c.3 0 .8.1 1 .7l-.2.1c-3.1-.8-6.3-.5-9.5-.5a5 5 0 00-3 1.2c-.9.8-1.4.5-2-.2a3 3 0 01-.6-1z" fill="#b39d75"></path><path d="M46.7 27a13.7 13.7 0 01-.2 2.3c-.6 2-2.2 3.5-3.4 5.2a.7.7 0 01-.9.2c-1.2-.6-2.5-.7-3.6-1.4a.3.3 0 010-.3 3.3 3.3 0 012.3.3 1.6 1.6 0 002-.5 21.2 21.2 0 003-4.5c.1-.4.1-1.1.8-1.3z" fill="#c8b175"></path><path d="M55.4 22a.4.4 0 010 .3c-.5.7-.3 1.8-1 2.4-.7-.3-1.4-.3-2-.8-.5-.2-1-.3-1-1 0-.2 0-.5.2-.4 1.3.2.7-.5.5-1 0-.3-.2-1 .5-.6.4.4.4 1.4 1.4 1.2s.3-1.2.7-1.7c.1-.3.3-.6.7-.4s.2.4.2.7a3 3 0 00-.2 1.4z" fill="#102027"></path><path d="M53.2 16.8a1.8 1.8 0 001.3-1 9 9 0 012.6-2.6v.3c.9.4 1.6-.3 2.5-.4.6 0 1.3-.4 1.5.6a1.3 1.3 0 01-1.3 1.5c.1-1.1-.5-1.1-1.3-.9a5.9 5.9 0 01-.6.1c-1.4.2-1.4.3-1.5 1.7-.2 1.9-.4 2-1.7 1.7-.1-.9-1-.7-1.5-1z" fill="#837439"></path><path d="M62.3 13h.7c1-.2 1.3.1 1.3 1.2a1.5 1.5 0 01-.6 1.3 2 2 0 01-2.4 0c-.6-1.5-.2-2.5 1-2.6z" fill="#147eaf"></path><path d="M51.3 35.4l.5-.2a2.3 2.3 0 011.4 0c.5.2.5.8.7 1.2s.7.8.2 1.3-.7 0-1-.2-.7 0-1 0l-1.2-.6.4-1.5z" fill="#c5ac0e"></path><path d="M62.3 13c-1.2.4-1.3 1.2-.9 2.3a1.5 1.5 0 01-2 .2c0-.3 0-.4.3-.4 1.2 0 1.1-.9 1.1-1.6 0-.5-.5-.4-.8-.2-.8.6-1.7.2-2.6.5-.2.2-.6.1-.3-.4.4 0 .8 0 1-.2 1.3-1.4 2.8-.5 4.2-.3z" fill="#0d0c09"></path><path d="M52.7 30.4l-1 .4a.8.8 0 01-1-.1c-.3-.4 0-.7.2-1a1.2 1.2 0 00.1-1.4l.3-.7c1-.3 1.3.5 1.6 1.2a1.3 1.3 0 01-.2 1.6z" fill="#1d7aa4"></path><path d="M52.3 23.9a2.4 2.4 0 012 .7.2.2 0 01.3.1.8.8 0 00.5.9c-.1.2-.4.1-.5.2l-.7.7c-.5.5-1.6.5-1.8-.1s-.8-1.4-.7-2.2z" fill="#aa9420"></path><path d="M54.6 20.4a3 3 0 01.2.7 1.2 1.2 0 01-.8 1.4 1 1 0 01-1.3-.8l-.2-.8.4-.6c0-.2 0-.4.3-.4.6 0 1.2-.4 1.4.5z" fill="#0789c3"></path><path d="M54.7 17.8c1 0 1.7-.3 1.2-1.5a2.3 2.3 0 01.4-.2 1 1 0 01.8.2c.2.3.9 0 .9.7a.3.3 0 01-.2 0l-2.3 1.3c-.7.5-.8 0-.8-.5z" fill="#0b0909"></path><path d="M10.7 21.7c-.3.3-.2 1.1-.9 1.2-.5 0-.7-.4-.6-.8s.2-1 .9-1a.6.6 0 01.6.6z" fill="#e0dac5"></path><path d="M52.7 19.6c-.3 0-.3.8-.6.5a1.4 1.4 0 01-.3-1.5.8.8 0 01.8-.6c.6 0 .3.6.4 1s0 .5-.3.6z" fill="#9c8b5c"></path><path d="M63.5 15.3c.9-1 .7-2-.5-2.4.4-.5 1-.1 1.4-.2l.3.4a.8.8 0 01.2.5 6.5 6.5 0 00-.2 2 .7.7 0 01-.3.3c-.5.1-.9.1-.9-.6z" fill="#040504"></path><path d="M38.6 33v.4a10.2 10.2 0 01-3.4-1.5h.1a4.5 4.5 0 013.3 1.2z" fill="#b39d75"></path><path d="M52.7 19.6l.3-.7c.3 0 .7-.2.8.2s-.5.4-.6.8l-.3.4c-.3-.1-.1-.4-.2-.7z" fill="#08090a"></path><path d="M57 13.2a.6.6 0 000-.7c.4 0 .9 0 .9.3s-.5.3-.8.4z" fill="#837439"></path><path d="M71.2 79.5c.1 2.5-.8 3.2-3 2.8a9 9 0 01-2.4-.8 1.6 1.6 0 01-.7-2.4c1-1.8 2.7-3 4.3-4.3.3-.3.6 0 .7.3.5 1.6 1.2 3 1.1 4.4z" fill="#fcf7f4"></path><path d="M66.3 72.2c-1.3 0-2-.5-2-1.6a2.8 2.8 0 012.3-2.6 2.7 2.7 0 012.2 2.5c0 1.1-.8 1.7-2.5 1.7z" fill="#faf0ea"></path><path d="M59.6 69.9c-.1 1-.1 2-1 2.7-.6.6-1.2.8-1.8.3a1.6 1.6 0 01-.4-2.4 4.9 4.9 0 012.8-1.4c.7-.2.4.5.4.8z" fill="#f9ece6"></path><path d="M75.8 69.8c.4 0 .7 0 .6.5a3.5 3.5 0 01-1.1 2.4c-.8.6-1.5.2-2-.4s-.1-1.2.4-1.5a5.8 5.8 0 012-1z" fill="#fcf8f6"></path><path d="M186.4 68.6c-.4-.3-1.3.4-1.5-.6a3 3 0 011.9-2.3c1-.1 2.2.5 2.3 1.3 0 1.2-1.1 1.1-1.8 1.5-.2.2-.6 0-1 0z" fill="#fdfbfa"></path><path d="M183.6 72l.3.7c-1.7.1-1.8 0-1.4-3.5.2.7.2 1.3.6 1.8 0 .4.3.7.5 1z" fill="#f6e1d7"></path><path d="M165.7 68.9c-.7-.2-1.9 0-2-.9s1-1.1 2-1.3c1-.1 2.2.4 2.1 1.1-.2 1.2-1.3.9-2 1z" fill="#f9ebe4"></path><path d="M147.9 68.3c1.2 0 2.6 1 2.6 2a2.8 2.8 0 01-2.7 2.8c-1.9 0-3.3-1.2-3.3-2.7s1-1.8 3.4-2.1z" fill="#fbf3ef"></path><path d="M153.6 67.6c.6-.5 1.3-.3 2-.2a1 1 0 01.7 1 1 1 0 01-.7 1.1 2.9 2.9 0 01-1.7.1c-.4 0-1.1.1-1.2-.6s.2-1.2 1-1.4c-.1 1.3.3 1.7 1.3 1.4.2-.1.5-.2.5-.5s-.2-.5-.5-.5c-.5-.2-1 0-1.4-.4z" fill="#e8ac8f"></path><path d="M201.4 34.7l-1.6-.6a2.7 2.7 0 000-3.2c-.1-.2-.2-.6.3-.5a1 1 0 00.7.5c1.2.2 1.2.2 1.8 1.3-1.3.3-1.4.6-1.2 2.5z" fill="#181711"></path><path d="M228.5 15.6l.7-.8c1-1.1 2-1.3 2.8-.4.1 1 .7 2-.2 3a3 3 0 01-1.7 1 1.7 1.7 0 00-1.1 1 1.1 1.1 0 01-.2.3c-.7.5-1.3 1-2 .3a1.5 1.5 0 01.7-2.3c1-.5.5-1.5 1-2.1z" fill="#058fce"></path><path d="M223.9 27c-.2.6-.9.6-1.2 1a1.3 1.3 0 00-.2 1.2c.1.5.5.1.8.1.6 0 1 1.2.4 2a7.9 7.9 0 01-2.8 2.1 1.2 1.2 0 01-1.6-.2c-.4-.5-.1-1 .3-1.5l.6-.8a1.1 1.1 0 00.5-.7 9.5 9.5 0 012.2-3.4.6.6 0 011 .3z" fill="#068dc9"></path><path d="M227.7 23a5.8 5.8 0 00-.6 1.9c-.2.6-.5.8-1 .7a1 1 0 01-1-1 3.2 3.2 0 011.5-2.6c.8-.3 1.2 0 1.1.7a.4.4 0 010 .3z" fill="#dec201"></path><path d="M220 28.8c0-.8.6-1.3.8-2 .3-.9.8-1.7 1.2-2.6 0 1 .6.7 1.2.7.2 0 .6 0 .6.3a.5.5 0 01-.4.6c-1.7.3-2.4 1.8-3.3 3z" fill="#544c4e"></path><path d="M222.9 26.8c-1 1.3-1.5 3-2.7 4 .7-1.4 1-3.2 2.7-4z" fill="#1875a2"></path><path d="M228.8 19.6a.6.6 0 010-.2 2.2 2.2 0 011.2-1c.5-.1.9 0 .8.6 0 .4-.5.5-.7.8-.5.6-1 .8-1.3-.2z" fill="#9f871e"></path><path d="M217.7 34.8l.9-3.2c.1.8-.1 1.5.1 2.4s-.5.7-1 .8z" fill="#635957"></path><path d="M219.3 30.4a3.4 3.4 0 01.8-1.6 1.7 1.7 0 01-.8 1.6z" fill="#544c4e"></path><path d="M223.9 27l-1-.2c.6-.7.8-.4 1 .3z" fill="#1875a2"></path><path d="M32.8 12.4a20.4 20.4 0 014.3-2.1h1c-1.9.4-3.4 1.6-5.3 2.1z" fill="#44413d"></path><path d="M221.2 68.9c-.3-.1-1 .1-1-.4s.3-.7.7-1a2.4 2.4 0 011.5-.5c.4 0 .8 0 1 .5s-.2.8-.6 1a3.2 3.2 0 01-1.6.4z" fill="#fcf7f4"></path><path d="M189.1 38c-.3-.6-1-.5-1.6-.8.3-.1.7.1.9-.3a.2.2 0 010-.3c1.3.3 2.5.8 3.7 1a2.6 2.6 0 003-3.2c-.3-1.2-.7-2.3-2-2.6a.5.5 0 01-.2-.3c2.4-.7 2.5-.7 3.2 1.7a6 6 0 001 2.4c.5.7-.6 2.5-1.5 2.7a10.4 10.4 0 01-5.5-.4c-.4 0-.7-.2-1 .2z" fill="#615859"></path><path d="M188.4 36.7v.2c-1-.4-.3-1.1-.1-1.6.1-.4.5-.6 0-1 .2-.4.4-.7.9-.5.5.3.7-.1.7-.5-.2-1.2.6-1.4 1.5-1.5l1.5-.3.1.2c-.2.8-1 1-1.5 1.5a13.2 13.2 0 00-3.1 3.5z" fill="#5e5455"></path><path d="M195.4 39.3c-.8.7-.6 1.2.2 1.7-1.6.5-2 .5-2.5-.5-.1-.5-.6-.8-.8-1.2a13.7 13.7 0 013 0z" fill="#786c36"></path><path d="M189.2 33.8l-.8.5c-.4-.2-1.2.3-1.1-.6s.8-1.1 1.5-1 .6.6.3 1z" fill="#786730"></path><path d="M180.8 68c-.1.9-.1 1.7-.3 2.5A2.1 2.1 0 01178 72c-1-.2-1.3-1-1.1-2.3a4.2 4.2 0 013-3.6c1-.3 1.1 0 1 .8v1z" fill="#fcf7f5"></path><path d="M17.7 69.5c-.2.7-1 .9-1.2 1.6s-.5 1.6.2 2a2 2 0 002.5-.1l.7-.6a2.1 2.1 0 01-3.1 1.2c-.9-.4-1-1.7-.5-2.9a2.2 2.2 0 011.4-1.2z" fill="#e8af92"></path><path d="M81 42.4c0-1.1-1.1-.4-1.5-1 .5-.1.9-.7 1.5-.3.3.2.6 0 .8-.3a.6.6 0 00-.1-.8c-.2-.2-.4-.5-.8-.3a1 1 0 01-1.1 0v-.2c.7-.2 1.2-.5 1-1.4a.5.5 0 01.2-.5 1 1 0 01.3.2c.5.3 1 .3 1.2-.3 0-.2.2-.4.4-.4 1 .7 1 1.5 0 2-.6.2-.6.5-.4 1.2.3 1.2 1.4 1.9 1.6 3a2.9 2.9 0 010 1.3c-.2.7-.5 1.3.5 1.6v.5c-1.6 0-2 .3-2.1 1.7.2 1 .2 1.1-.5 1.1a4.3 4.3 0 01-.1-1.7c0-.7.5-1.3-.2-2l.5-.5c.9-.5.9-1.2.6-2a1.3 1.3 0 00-1.7-.8z" fill="#0c0b0a"></path><path d="M92.8 30.6c.2.4.3.7 0 1-1.4 1.6-2.4 3.5-4.3 4.7-.4 0-.8-.1-.9.5s-.6 1-1.3.6c-.3 0-.8-.3-.5-.4.6-.5.7-1.5 1.4-1.7 2-.5 3.1-2 4.2-3.6.4-.5.7-1 1.4-1z" fill="#272310"></path><path d="M82.9 37l-.2.6c-.5.8-1 .8-1.7.2v-.2a8.1 8.1 0 01-.2-2.6.9.9 0 011-1c.6 0 .8.4.9.9a1.3 1.3 0 00.3.7l-.1 1.5z" fill="#bea613"></path><path d="M86.3 37.4c.6 0 1 0 1-1 0-1.4.8-.2 1.2-.1-.1.8-1.2 1-1.3 1.8-.5 0-1.5.6-1-.7z" fill="#497d75"></path><path d="M100.4 40.5c-.5.7-1 0-1.6.3-.2 0-.3 0-.4-.2a9.3 9.3 0 010-1.4c0-1 1-.3 1.3-.6a1.6 1.6 0 011.3-.8 14 14 0 012.4-.3c1 0 1.7-.2 2-1.3.2-.6 1-.9 1.5-1.2l2.5-.6a.8.8 0 011 .7c0 .4-.3.1-.4.2a8.1 8.1 0 00-4 1.6c1.2.6 2-.5 3-.3.3 0 .6.1.3.4l-1.3 1c-1.4-.3-2.7.6-4 .4a19 19 0 00-2.4.1 1.3 1.3 0 00-1.2.6c-.5.4-.3 1 0 1.4z" fill="#040404"></path><path d="M109 36.6c-.9.4-1.7 1-2.8.8-.4 0-.9-.2-.4-.6a7.7 7.7 0 013.8-1.8l.4.2c.1.8-.5 1-1 1.4z" fill="#1a74a1"></path><path d="M114 30.4c0 .5 0 1 .6 1.2.8.4 1.3 1.5 2.4.7.3 0 .7 0 .7.4 0 .3-.1.7-.5.8a14 14 0 01-3.4 0l.7-.5a.6.6 0 00.3-.6c-.1-.3-.4-.2-.6-.3s-.9.4-1-.1.2-1 .5-1.3a4.6 4.6 0 01.4-.3z" fill="#22211c"></path><path d="M117.7 34.7c-.3.7-.6 1.2-1.2.2s-1 .2-1.4 0c0-.2-.2-.7.2-.7a15.7 15.7 0 002-.3c.7 0 .4.5.4.8z" fill="#0f0d09"></path><path d="M83.5 27.1c.4-.5.1-1.1.1-1.7a.4.4 0 00-.3-.5c-.6-.2-1 .3-1.6.3-.8 0-.6.6-.7 1a11.3 11.3 0 000 3.3 2.9 2.9 0 01-.6 2 .5.5 0 01-.3-.3 17.4 17.4 0 01.2-5.6c0-.3.6-1-.3-1a.5.5 0 01-.4-.3.7.7 0 01.1-.7 1.2 1.2 0 01.9-.5c.7 0 .8-.5.9-1 .3-.7-.3-1.5.4-2 1.3.3 1.3.3 1.2-1.2a9.6 9.6 0 01.5-2 1.2 1.2 0 01.8-.7c.6 0 .4-.6.4-1 0-.7.2-1.3 1.1-1.4.4 0 .7-.4.9-.6l1-1.9c.2-.3.4-.7 1-.4a5.1 5.1 0 01-1.1 2.7c-1.3 2-1.5 4.2-2.3 6.3s-.9 4-1.1 6c-.1.5 0 1.1-.5 1.5-.2 0-.4 0-.3-.3z" fill="#655d5b"></path><path d="M75.7 36.1l-1.1 1.4c-.4 0-.5-.7-1-.6a.4.4 0 01-.1-.3 5.1 5.1 0 012.3-2 15.3 15.3 0 004-3 .7.7 0 01.4-.3.7.7 0 00.1.1c0 .5-.2 1-.3 1.4a1.8 1.8 0 01-1.3 1 1.3 1.3 0 00-.8.6c-.8.6-1.9.6-2.2 1.8z" fill="#5f5657"></path><path d="M83.5 27.1l.2.2c.4.7 0 1-.6 1.4s-1 .4-1.3-.1a1 1 0 010-1.4 4.2 4.2 0 00.4-.8c.2-.3.2-.9.6-.8s.6.6.6 1v.5z" fill="#1b79a3"></path><path d="M83.2 28.7c0-.5.6-.8.5-1.4.4-.4 0-1 .2-1.5.5.1.5.6.5 1a1.7 1.7 0 00.4 1 .8.8 0 01.2.4.5.5 0 01-.1.3c-.6 0-1 .8-1.8.2z" fill="#647b87"></path><path d="M77.9 34.5c.4-1 1.5-1 2.1-1.7 0 .8-.2 1.5-1.3 1.3-.2-.1-.5.2-.8.4z" fill="#50474a"></path><path d="M113.6 12.2a9.3 9.3 0 011.2-2.4c0 2.2 1 2.6 3.3 1.4.4-.2.8-.5 1.3-.2h.4c.4-.3.7 0 1 .2l.7.8.5.6a.2.2 0 010 .4c-.5 0-.8-.4-1.2-.6a2.4 2.4 0 00-3.7.8 9.5 9.5 0 00-1 5.7 29.8 29.8 0 001.3 6.3 1.2 1.2 0 001.1 1 1 1 0 01-.3 1.2h-.7c-.7 0-1-.3-1.2-1a5.3 5.3 0 00-.5-1.3c0-.7-.9-1.3-.7-2.1-.6-1.1 0-2.3-.3-3.4a3 3 0 010-3v-1a3.5 3.5 0 00-1.2-3.4z" fill="#655c5c"></path><path d="M122 13v-.4c1.3 1 1.6 2.7.8 4.8-.4 1.2-.9 2.3 0 3.4a.4.4 0 01-.1.6 2.5 2.5 0 00-1.7 2.1c0 .3-.4.4-.7.5a1.2 1.2 0 000-.2 1 1 0 010-.9 17 17 0 001.5-9.2 1 1 0 01.2-.8z" fill="#433f3a"></path><path d="M125 17.7a5.5 5.5 0 00-.1 2c0 .6-.2 1-.8 1a1 1 0 01-1-.8 5.2 5.2 0 01.7-3 .6.6 0 01.7-.3c.5.2.5.7.5 1z" fill="#1c77a1"></path><path d="M184 15.3l-.4.9c-.5.5-1.3.8-1.2 1.8 0 .6-.1 1.3 1 1.2.2 0 .5.4.8.6s.4.4.3.7a.7.7 0 01-.7.5 12 12 0 01-3.2-.3 4.4 4.4 0 00-1-.7c-.4-.2-.6-.6 0-1h1c-.4-1.9-.5-3.6.7-5.2a1.5 1.5 0 012-.5c.9.5 1.2 1.1.8 2z" fill="#c0aa10"></path><path d="M179 29.5l-.2.7c-1.3.3-2-.2-1.8-1.4 0-.7-.4-1.1-.3-1.7s0-1.2.7-1.5c.6 0 .8-.5 1-1 0-.3 0-.7.2-1s.2-.8.8-.8.8.4 1 .8a3.6 3.6 0 01-.6 4.6c-.4.4-1 .2-1.5.4z" fill="#af9919"></path><path d="M187.8 18.6a3.1 3.1 0 011.8-.1c.8.3 1.6 0 2.4.1a3.7 3.7 0 012 .4 1.6 1.6 0 01.9 1.6 1.4 1.4 0 01-1.5 1.2 3.5 3.5 0 01-2.5-.3 1.3 1.3 0 00-1.1-.1c-.4 0-.8.3-1.2 0a1.8 1.8 0 01-1-.3v-.5c.1-.3 0-1 .7-.7a47.8 47.8 0 014.6 1.1.7.7 0 001-.5c0-.5-.5-.7-.9-.7a28.6 28.6 0 01-4-.3c-.3 0-.4.5-.8.4-.3-.4-.7-.7-.4-1.3z" fill="#b39e1b"></path><path d="M185.2 18.5a2.1 2.1 0 011.8-.2c1.1 1 1.1 1.2.2 2-.5.5-1 1-1.7.5s-1.2-1.4-.3-2.3z" fill="#0e8ac4"></path><path d="M179.5 19.2c-.2.4 0 .6.4.6s.8.3.7.9l-.6.4a2.8 2.8 0 01-1.7-.5 2 2 0 01-1.2-.3c-.4-.2-.8-.5-.6-1a1 1 0 011.4-.8 11.3 11.3 0 011.6.7z" fill="#25869f"></path><path d="M187.2 20.4c.8-.8.1-1.5-.2-2.1.4-.2.7-.1.8.3s.6.7.4 1.3c-.4 0-.5.4-.7.7z" fill="#18251d"></path><path d="M181 40c.7.5 1.5 0 2.3.3a2.6 2.6 0 01-3 .5c-1-.3-1.8-.3-2.7-.5-.8-.5-.9-1.6-1.5-2.3-.8-.1-.7-.7-.5-1.3.5-.3.8 0 1 .4.8 2.2 1.2 2.5 3.3 2.3.6 0 .8.3 1.1.6z" fill="#090806"></path><path d="M176.6 37.1l-1-.4c-.2 0-.3-.2-.2-.5.6-.4 1-.8.6-1.6a.8.8 0 010-.4.9.9 0 01.6-.4 3 3 0 00.9-.2c.5-.3.5-1 1-1a4.4 4.4 0 01.3 2.4c-1.2 0-1.7.4-2.2 2.1z" fill="#040504"></path><path d="M187 36.3c0 .8-.5 1.2-1.3 1.3-.5 0-.6-.4-.6-.8a1.6 1.6 0 011.3-1.5c.5-.1.6.4.6 1z" fill="#e0c401"></path><path d="M65.7 40.2l2.9-1.4a1.4 1.4 0 011.3.7 1.8 1.8 0 001.3.9c.7.8.7.8-.4 1.4a2.7 2.7 0 01-1 0h-.3c0-.6-.4-.6-.7-.3a17.8 17.8 0 01-1.8 0c-.7-.1-1.3-.4-1.3-1.3z" fill="#5c544f"></path><path d="M71.9 47.6a3.5 3.5 0 010 3c-.3 0-.4-.2-.5-.4.2-1-.1-1.5-1.2-1.5-.4-.1-1.1 0-.4-.8a1.6 1.6 0 000-1.9c-.2-.6-.9-1.3 0-1.9a.3.3 0 00.2-.1c.3-.3.5-.2.8 0l.5.3c1.1-.6 1.1.1 1.1.9-.6.2-1.5 0-1.7 1-.4 1.3-.2 1.5 1.2 1.4z" fill="#050506"></path><path d="M71 63c.2 0 .5 0 .5.2s-.3.5-.6.6a1.7 1.7 0 01-2.3-1.9l.2-1.3c.1-.5.3-.8.5-1.1 1.5-1 2-1 2.8.7.3.7 0 .9-.6.7s-1.4-.9-2 .1v.3c-.4 1.4.7 1.3 1.5 1.6z" fill="#0f0f0c"></path><path d="M70 52.3h.7c1 .3 1.1 1.2 1.2 2.1a1.8 1.8 0 01-.6 1.4c-.6.6-1.2 1-1.8 0-.2-.5-.7-1-.6-1.6a1.4 1.4 0 011.1-2z" fill="#b19b1b"></path><path d="M71.7 54.4a3 3 0 00-1-2.2c0-.7-.5-1.2-.8-1.7s-.6-1 .3-1.2a2.7 2.7 0 001.4.8c0 .1 0 .3.3.4a.5.5 0 010 .3c-.5.5-.3 1 0 1.5s0 1 .2 1.4v.9c-.3.3-.3 0-.4-.2z" fill="#262423"></path><path d="M72.1 60.2a2 2 0 00-2.8-.7c.1-1.2-.6-2.3-.5-3.4a16.4 16.4 0 002.8.6c-.1.5-.1.5-.9.6-.3.1-.6.1-.6.5s.2.6.6.6a1.6 1.6 0 011.4 1z" fill="#3d3733"></path><path d="M71.7 50c-1 .6-1.3 0-1.5-.6v-.7c1.5-.6 1.7-.4 1.5 1.4z" fill="#266e8e"></path><path d="M71.7 56.8c-1 0-2.2.4-2.9-.7 0-.7.5 0 .7-.3.6.4 1.2.5 1.7-.2.3-.1.6-.3.7.3a.3.3 0 000 .1c-.2.3 0 .6-.3.8z" fill="#080706"></path><path d="M69.7 41.7c.4-.2.7-.5 1 0a.8.8 0 010 .5 3.1 3.1 0 01-.7 1.4c-1.3-.3-1.3-.6-.3-1.9z" fill="#a29329"></path><path d="M70 52.3c-.5.5-1.2 1-1 1.8-.5-.4-.3-1-.3-1.4 0-.3 0-.7.3-.9a.7.7 0 011 .5z" fill="#17140e"></path><path d="M70 43.6c0-.6.5-1 .8-1.4 0-.1 0-.1.1 0 .2.6-.5 1.2-.1 1.9L70 44z" fill="#5c544f"></path><path d="M68.8 41.5c0-.5.4-1 .9-.7s-.1.6-.2.9c-.3 0-.5 0-.7-.2z" fill="#131111"></path><path d="M69.8 44.1c-.6.6 0 1.3 0 2-.8-.7-1-1.4 0-2z" fill="#5c544f"></path><path d="M91 61.9c-.6-.1-1.3 0-1.3-.8s1-1.3 1.8-1.4c.6 0 .9.4.8 1A1.1 1.1 0 0191 62z" fill="#fbf4f0"></path><path d="M142.8 28.3c1 .1 1.3 1.4 2.4 1.4l.4.9c-.2.3-.4.2-.7.2a1.2 1.2 0 00-1.2 1.1 1.3 1.3 0 00.7 1.5c.4.2.8.3 1 .6v.6c-1.1 0-2.3 0-3 1.2-.2.2-.8.5-.3.8s.8 0 1-.3.4-1 1-1a.7.7 0 01.7.2c0 .4-.4.5-.5.7.3.4 0 .7-.2 1a3.3 3.3 0 01-2.2 1.2 1.5 1.5 0 00-2.3-.2c-.5.3-1 1-1.5.1s-.2-1.1.8-1.6a7.3 7.3 0 003-2.6c.7-1.1.5-1.7-.6-2.3-.4-.1-1 0-.9-.7.3-.4.4-1.6 1.2-.4a.8.8 0 001.2.2 1.4 1.4 0 00.4-1.5c-.1-.5-.6-.3-1-.3-1 .3-1.5-.5-2-1 .2-.8.6-.4 1-.3a4.8 4.8 0 001.6.5z" fill="#0a0908"></path><path d="M148.1 40.6c-.2.7-.8 1-1.2 1.6a6 6 0 01-2.1.2 16.3 16.3 0 01-1.9.1 1 1 0 01-1.1-1c-.2-.8-.3-1.7.7-2.1a.8.8 0 01.6 0c.4.3.8.9 1.2 0 .2-.3.4-.7.8-.8a.8.8 0 010 .1c.6.6 1.3-.3 2 0a2.6 2.6 0 001 .1 1.8 1.8 0 010 1.8z" fill="#c5ad10"></path><path d="M147.7 29l1-.6a5.6 5.6 0 012.2-.6c.8 0 1.4.2 1 1.2-1 .8-1.5 2.4-3 2.9-.7.1-1.4.5-1.5-.6-.5-.8.2-1.5.3-2.3z" fill="#048ecd"></path><path d="M145.5 34c-2.1-.4-2.8-1.6-1.7-3 .5-.8 1.2-.4 1.8-.5a1.5 1.5 0 00.8 1.1c.4.3.3.6.2 1 0 .7-.2 1.4-1.1 1.4z" fill="#1188bf"></path><path d="M142.7 39.6c-.9.3-.9 1.2-.7 1.9s.8 1 1.6.6a1.2 1.2 0 011.2.3c0 .3.1.5-.2.5a6.4 6.4 0 01-3-.4c-.6-.3-1-.7-1-1.5a.7.7 0 00-.2-.8c.1-.7.9-1 1-1.6a.4.4 0 01.4-.3c1-.5 2.1-.8 2.5-2.1h.5c.1 1-.8 1.5-1.4 2.2a2.5 2.5 0 00-.7 1.2z" fill="#292524"></path><path d="M144.8 35.5c-.8-.1-1.2 0-1.4.9s-.8.8-1.4.7a.6.6 0 01-.5-1 3.3 3.3 0 014-1.5c.2.2.7-.3.7.2s-.3.5-.6.4a1.1 1.1 0 00-.8.3z" fill="#998428"></path><path d="M152 29c0-.9-.5-1-1.2-1a6.2 6.2 0 01-2.2.5l.3-.5 1.7-.9h.6c0 .5.6.5.8.8s.4.7 0 1.1z" fill="#2f677f"></path><path d="M146.6 32.6c-.3-.2 0-.6-.2-1a.7.7 0 011-.3c.2.7.9.5 1.4.5-.5.8-1.6.2-2.2.8z" fill="#393a3a"></path><path d="M126.3 31.4l-.7.3-1.4-.9c0-1.6 1.3-2.2 3-1.5 0 .8.5 2-1 2.1z" fill="#1b79a3"></path><path d="M119.5 42.2a.4.4 0 010 .2c-.5 0-1 .3-1.6.2-1-.1-1.6-1-1.7-2.7l.3-.1a2.3 2.3 0 001.7 1.4 1.8 1.8 0 011.3 1z" fill="#867238"></path><path d="M119.6 28.8a1.2 1.2 0 01-.8 1 2.7 2.7 0 00-1.7 1.6c-.1.4-.5.8-1 .6a1.6 1.6 0 01-1-1.5c0-.6.3-1 .9-1 .9 0 1.6 0 1.7-1.2.1-.5.6-.5 1-.5.7 0 .7.6.9 1z" fill="#dfc301"></path><path d="M115.8 25.1c.5 0 .8.3.7.8a1.3 1.3 0 001 1.4c-.2 1.1-.7 1.8-2 1.7-.6 0-.6.6-1 1a2.3 2.3 0 01.1-2.3c.2-.4.7-.4 1-.8s.2-.6-.1-1-.6-.2-.7-.5c.1-.8.6-.3 1-.3z" fill="#22211c"></path><path d="M121.6 25a1.7 1.7 0 01-1 2.1.9.9 0 01-1-.4.8.8 0 010-1 1.6 1.6 0 012-.6z" fill="#dfc401"></path><path d="M118.4 26c0-.2 0-.4.3-.4.3.5.2 1 .7 1.5a2.1 2.1 0 01-1.3.2l.3-1.2z" fill="#27251f"></path><path d="M81 42.5c.5-.4 1-.8 1.6 0s.9 2 .3 2.6l-.5.4c-.6.4-.9 0-1.2-.5L81 45c-.4-.8 0-1.6 0-2.4z" fill="#c3ab10"></path><path d="M83 55c-.6 0-.8-.3-.8-.8a2.9 2.9 0 010-1.4c0-.6 0-1.1.6-1.4a1.3 1.3 0 011.6.4c.5.7 0 1.8.7 2.5.5.8 0 1.2-.6 1.5s-1.4.4-1.6-.6v-.3c1.2-.2 1.2-.4.4-1.7-.7.4.1 1.3-.4 1.7z" fill="#877732"></path><path d="M84.3 52c-.4-.4-.9-.7-1.4-.4s-.6.8-.7 1.4v1.2c-.5-1 0-2.2-.2-3.2v-1.4c.8-.2.4-.8.5-1.2.2.8.4 1.6 1.5 1.6-.3.4-.7 1 .3.8a.7.7 0 01.5.2v.8a.6.6 0 01-.5.2zM84.4 55.6c.4-.3 1.1-.5.4-1.2a1.1 1.1 0 01.3-1.2 3 3 0 01-.2 3.4 1.3 1.3 0 01-2.2-.3.9.9 0 011-.3c.2 0 .6 0 .7-.4z" fill="#47403a"></path><path d="M84.8 51l-.7.2c-.4 0-.8.3-1-.3s.3-.8.8-.8c.3.2.6 0 1 0 .5 0 .4.3.1.7z" fill="#0a0909"></path><path d="M81.3 45c.4.1.6.7 1.1.5.2.3-.9.1-.2.6.3.2.2.5 0 .8a5.7 5.7 0 00-.2 2.7c-.3-.2-.2-.6-.2-.9a7.8 7.8 0 00-.5-3.7z" fill="#47403a"></path><path d="M85.1 53.2c0 .4 0 .8-.3 1.2-.9-.6-.4-1.6-.4-2.4a.4.4 0 01.4-.2z" fill="#0a0909"></path><path d="M84.4 55.6c.4.1.6.3 0 .5a11 11 0 01-1.7.2c-.2-.4-.4-.8.2-1.1.4.5.8.8 1.5.4z" fill="#11100e"></path><path d="M85 50.8c0-.3 0-.6-.2-.7l.2-.7c.1-.1.2-.3.3 0-.1.4.3 1-.3 1.4z" fill="#47403a"></path><path d="M93.9 36c.3.3.6.6-.1 1a9.7 9.7 0 00-1.4.8.8.8 0 01-1.3-.4 7 7 0 002-1.3.5.5 0 01.8-.2z" fill="#080706"></path><path d="M219.6 39.3l-.5 1.4a.5.5 0 01-.5-.3 1.1 1.1 0 011-1.1z" fill="#030302"></path><path d="M226.1 43.7c.2-1.2.9-1.8 2-1.5a1.9 1.9 0 010 2.8c-.9.4-1.3-.3-1.8-.9l-.2-.4z" fill="#1a779f"></path><path d="M228.2 45a2.7 2.7 0 000-2.9 6 6 0 013.5 0c-.2 1-1 .5-1.5.5s-1 0-1.1.7c-.4.5-.2 1 0 1.5-.2.4-.6.2-1 .2z" fill="#040403"></path><path d="M95.2 31.6c1.4-.4 1.4-1 .2-2.7.2-.4.7-.2 1-.6.3 0 .7 0 .8.5.4 2 .4 2 2.5 2.1a.6.6 0 01-.7.5 6.2 6.2 0 00-4 1.8c-.4-.3-.7-.7-1.2-.6-.3 0-.6 0-.6-.4s.3-.4.6-.4c.5 0 1 .1 1.4-.2z" fill="#060504"></path><path d="M188.6 21.3c1.1-.3 2.2-.8 3.2.3.3.3 1 .2 1.6.2-1.5.5-3 .1-4.5.1-.4.1-.4-.3-.3-.6z" fill="#413f3a"></path><path d="M192 18.6a1.8 1.8 0 01-2.4-.1c.8 0 1.6-.3 2.4.1z" fill="#292720"></path><path d="M206.2 33.4a.2.2 0 010 .1c-.8.8-2 1-3 1.5-.5.4-1.2 0-1.5-.8s-.2-1.2.7-1.4a12 12 0 012.7-.5c.7 0 1 .3 1 1z" fill="#dec201"></path><path d="M203.3 31a1.4 1.4 0 01-.5-2.2 1.1 1.1 0 011.4-.2c.5.3.3.9 0 1.3l-.9 1z" fill="#dfc301"></path><path d="M206.6 31.9a.9.9 0 00-.2 0l-.8-.2c-.4-1.2.5-1.9 1.2-2.6h.5a.3.3 0 01.1.3c-.4.7-1.7 1-.8 2.1a.3.3 0 010 .4z" fill="#9a9894"></path><path d="M210.6 43.9c-2.2.8-3.9-.4-5.5-1.7-.7-1.3-.5-1.8.9-2a6.9 6.9 0 011.8-.2c.7 1.2 2.3.7 3.2 1.6 1-1.1 3-.2 3.7-1.8.4.5.6.9.5 1.4a24 24 0 00-2.5.5c-.4 0-1 .2-.9.7s.8.4 1.2.3a3.2 3.2 0 001.7-1c.1-.1.2-.4.5-.3 0 1.7-1.8 2.7-3.6 2-.7-.4-.8 0-1 .5z" fill="#b7a015"></path><path d="M215.2 41.5a3.1 3.1 0 01-3 1.6 1 1 0 01-1-.6c0-.4.3-.7.6-.8 1.1-.4 2.2-1 3.4-.5z" fill="#dfc301"></path><path d="M139.5 31a.8.8 0 01-.8.2c-1-.4-1.8.1-2.8.2-.4 0-1 .2-1.2-.4a1.3 1.3 0 01.5-1.4 5.7 5.7 0 014.4-1 1.1 1.1 0 011 .7c.3.6-.2.8-.4 1.1s-.7.3-.7.7z" fill="#dec201"></path><path d="M137.9 31.6a3.8 3.8 0 00-.7 4 7 7 0 01.2 1h-.2a.6.6 0 01-.3-.3 13.2 13.2 0 01-1-1.5c-.4-.6-.7-1.2-1.5-1.3a.5.5 0 01-.4-1c.4-.3.8 0 1.2 0a3.5 3.5 0 002.1-.9z" fill="#544c4d"></path><path d="M137.3 31.6c-.4 1.4-1.6 1-2.5 1.1a2.5 2.5 0 01-.8-.1c0-.5.3-.7.7-.7z" fill="#070704"></path><path d="M220.3 23.2c-.6 0-1-.8-1.7-.5l-1-.9c1.2.2 2.4-.3 3.5.4a1.3 1.3 0 01-.8 1z" fill="#0a0a0a"></path><path d="M220.2 20c-.2.3-.4.7-.8.8s-.5-.4-.6-.7c0-.5.3-.5.6-.5s.7 0 .8.4z" fill="#141516"></path><path d="M207.3 29.4a.3.3 0 000-.2.4.4 0 000-.6c-.7-1-.4-1.4.9-1.6 1.6-.1 3 .5 4.5 1a2 2 0 01.8.6c.4.4.8 1 .4 1.5s-1 .4-1.6.1a5.8 5.8 0 00-3.7-.5 1 1 0 01-1.3-.3z" fill="#dec202"></path><path d="M204.4 26.8a6 6 0 014.8-1.4 10.7 10.7 0 013.3 1.7l-4.3-.5c-1.6-.1-1.7 0-1.8 1.7-.8-.3-1-1.3-2-1.5z" fill="#2c2a28"></path><path d="M209.6 34.2c-.6-.5-.3-1.2-.3-1.8a1 1 0 01.9-.4c.5.2 1.1 0 1.7.3.4.2 1-.6 1.1.2s-.4.8-1 1c-.8.1-1.6.5-2.4.7z" fill="#b79f16"></path><path d="M211.9 32.3a3 3 0 01-1.7 0c-.4-.1-1-.5-.3-.8a.8.8 0 00.6-1 .4.4 0 01.5-.4c.8.3 1.5 1 2.4.8a.4.4 0 01.5.5.5.5 0 01-.6.4 1 1 0 00-1.4.5z" fill="#050503"></path><path d="M211 30.1c-.5.5 0 1.5-1 1.7-.2 0 .2.3.3.5h-1c0-.4-.3-.4-.7-.4s-.4.1-.3.4h-.9c.2-.8-.5-.3-.7-.5a.4.4 0 000-.2c.9-.3 2 .1 2.8-.5.6-.2.6-.7.5-1.2.3.1.7 0 1 .2z" fill="#494641"></path><path d="M210 30c.3.6.4 1-.5 1.2.3-.4.5-.8 0-1.2z" fill="#9a9894"></path><path d="M137.2 36.5h.2c.4.4 1 .3 1.4.5 0 .4-.8 0-.6.6 0 .3 0 .7.3.8s.6-.1.7-.4a2.1 2.1 0 011.9-.6c.6 0 .8.3.7.9l-.2.2a9.8 9.8 0 01-5.2 2.7c-.9 0-1-.6-1-1.3s.6-1 1.2-.7a1.2 1.2 0 001.2-.3c-.4-.5-1.2-.3-1.5-1-.2-.3-.6-.4-.4-.9a1.1 1.1 0 011.3-.5z" fill="#b6a014"></path><path d="M137.2 36.5c-.4.4-1.7.2-.9 1.4-.2 0-.6-.4-.8 0-.2.7-.6 1.5-1 1.5-1-.2-2 .2-3-.6h2c1 0 1.3-.5.8-1.5-.2-.3-.5-.5-.6-.9h.2a3 3 0 002.4-.2.7.7 0 01.8.2z" fill="#4a423c"></path><path d="M136.4 41.2l5.2-2.7c.6.6-.2.6-.3.8-.1.5-.6.7-.8 1l-.7.4c-.4 1-1.3.5-2 .7h-.2c-.4 0-.9.2-1.2-.2z" fill="#080706"></path><path d="M130.6 39c.5 1-.4 1.5-1 1.7s-1.3-.2-1.3-1q.8-2.3 2.3-.7z" fill="#0c85be"></path><path d="M130.6 39c-1.1-.7-1.4-.6-2.3.6l-.3-.3a7.4 7.4 0 01.7-.8c.6-.5.5-.9-.2-1.1-.4 0-.7 0-.9-.5.5-.2 1 0 1.4-.2s.6.1.7.6a1.3 1.3 0 001.4 1.3l.1.2c-.2 0-.4 0-.6.3z" fill="#222523"></path><path d="M222.4 42.4c-.8 0-1-.5-1.1-1.2 0-.4.1-.7.5-.7a1.6 1.6 0 011.3 1.4c.1.5-.3.5-.7.5z" fill="#dfc401"></path><path d="M87 13.4c-.4.3-.7.8-1.4.8-.4-.1-.4.3-.5.6a6.8 6.8 0 010 1.4c-.2.5-.5.8-.8 0-.3-.3-.2-.7-.2-1.1s0-.8-.6-.7a1.5 1.5 0 01-1.2 0c-.6-.4-1.5 0-1.4-1.1.2-1.2.9-2.4 0-3.6-1.2-1-1.8-1-2.8.1l-3 3a.8.8 0 00-.3.8 4.8 4.8 0 01-1 3.6c-.4.2-.7.4-.7.9 0 1.8-.9 3.6-.1 5.5a3.3 3.3 0 010 2.3c-.2.5-.4.8-.9.8a.4.4 0 01-.4-.4 37 37 0 00-.4-3.9c0-.3 0-.7-.4-.7a2.8 2.8 0 01-2-.8c-.3-.3-.6-.1-1 0-1.2.3-1.3.2-1.3-1a2.2 2.2 0 01.1-1.1c.3-.3.5-.1.6 0a1.8 1.8 0 002 .6.8.8 0 01.4 0c1.6.6 2 .3 1.8-1.5 0-.5-.4-1-.3-1.4.2-1 .9-1.9.7-3 .1-.7 1.2-1 1.2-1.8 0-.2.5-.1.7 0 .5.2 1 .5 1.4-.1s-.1-1-.6-1.4-.3-.6 0-.9c.5 0 1 .5 1.5.4s.9-.2 1-.6-.5-.6-.8-.7-.6 0-.8-.2c.5-.4.5-1.5 1.5-1a2.5 2.5 0 002.4 1.2 1.2 1.2 0 001-2c0-.3-.4-.4-.2-.7s.6-.2.9 0l1.5.9c.4.2.4.4 0 .7-1-.2-1 .7-1 1.2a1.4 1.4 0 001.5 1.2c1 0 1.2.4 1.2 1.2l-.1.4c-.5 1.5-.9-.2-1.5 0a.8.8 0 000 1c.3.4.6 0 .8-.2s.6 0 .6.3c.7 1 1.1 1 2.5.4.3 0 .7 0 .4.6z" fill="#090909"></path><path d="M91.3 8.7l-.3.2c-.4 0-.7 0-.8-.5s-.5-.7-.8-1A1.6 1.6 0 0191.1 6c-.3 1 .5 1.7.2 2.6z" fill="#0e0e0d"></path><path d="M84 12.5c-.2-.3-.5-.2-.6.2a.6.6 0 01-.8.4c-.4-.1-.4-.5-.4-.8a3.4 3.4 0 010-.7c0-.3 0-.6.4-.8s.6.3.8.5c.2.6.4.7.7 0z" fill="#9c8822"></path><path d="M87 13.4c0-.4-.2-.5-.5-.5a6.1 6.1 0 001-1.8 1.8 1.8 0 012.2-1.2l-1 .9c-1.1.5-1 1.7-1.7 2.6z" fill="#34322a"></path><path d="M137.8 41.4c.6-.3 1.4 0 2-.7 0 .6.3 1.6-1 .8-.2-.2-.6 0-1 0z" fill="#221f13"></path><path d="M58 4.5c.2 0 .4.2.4.5s-.3.2-.5.2-.5 0-.4-.4.2-.2.4-.3z" fill="#fefefe"></path><path d="M91.3 8.7c0-.8-1.1-1.6-.2-2.5.5-.4 1-.8 1.5-.3s.9 1 .4 1.7c-.2.2 0 .4.3.4a.3.3 0 000 .2c-.7 0-1.2.6-2 .5z" fill="#177dac"></path><path d="M72.6 37.8l-.2.5c-.6 0-.5-.4-.5-.7s.1-1-.5-1.1-.8.5-1 .9c-.1.1 0 .5-.4.5a.8.8 0 01-.6-.7 10.8 10.8 0 010-1.4 6 6 0 01.9-1.4c.2-.4.4-.8 0-1.2s-.8-.3-1.3 0a1.3 1.3 0 00-.8 1.2 3.6 3.6 0 01-.7 2.2l-.8.7c-1.2 0-1.8.8-2.5 1.6-.3.4-.8.4-1.2.6s-.4.6-.9.5c.2-.7.9-1.4 0-2-.1-.8-.7-.9-1.2-.8-.3 0-.5.3-.8 0 .8-1 1.4-1 3-.2a.3.3 0 00.1-.3c0-.4-.3-1 .2-1.2s.7.3 1 .6a.7.7 0 00.4.2 3.4 3.4 0 001.7-.4.9.9 0 00.5-1.1c-.1-.5-.5-.4-.9-.4a1.4 1.4 0 01-.8 0c-.2-.2 0-.4 0-.6l2.8-2c.5-.2 1.2-.2 1-1.1a.7.7 0 01.7-.5c.4 0 .5.5.7.8.4 1 1.4.9 2.2 1 .8.5.8 1 .2 1.5-1.1 1-1.2 1.4-.5 2.9a.8.8 0 010 .4c.1.5.5.5.8.5s.8 0 .8.5c-.4.3-1-.8-1.4 0z" fill="#0d0c05"></path><path d="M65.5 33.8l-.2.4a2.6 2.6 0 00-.6 2.4c-.8.1-.7-.9-1.3-1.2a1.4 1.4 0 00.2 1.4c.1.3 0 .5-.2.6s-.6.3-.7 0C62 36 61 37 60 37.1c-1 .4-2.1 1.3-3.1-.1H56.1a.2.2 0 010-.4 1.4 1.4 0 011-.1 7 7 0 006.3-2 2.7 2.7 0 011.7-.8.5.5 0 01.4.1z" fill="#544f51"></path><path d="M55.1 39.8c-.3-1-.6-1.8.5-2.4.4 0 1-.2 1.3.3s.8 1 .6 1.5-1 .5-1.4.6h-1z" fill="#277294"></path><path d="M119.5 42.2a5.8 5.8 0 00-1.7-.9c-.7-.2-1.5-.5-1.3-1.5a3.6 3.6 0 003.9.7l-.9 1.7z" fill="#0a0a09"></path><path d="M193 40.5c.8.9 1.8.3 2.6.5a.3.3 0 00.2 0c-1 .9-2.2.7-3.4.7a2.4 2.4 0 00.7-1.2z" fill="#0a0a0a"></path><path d="M99.3 30.4c-.8 0-1.2-.1-1.4-.6a1.1 1.1 0 01.1-1c.7-1.2 3.1-2.1 4.4-1 .9.7 1 1.6-.2 2a24.4 24.4 0 01-3 .6z" fill="#dec201"></path><path d="M67.5 36.6A24.2 24.2 0 0068 34c.1-.9 1-1.1 1.6-1.3a1 1 0 011.3.6 1 1 0 01-.4 1.4 9.4 9.4 0 00-.8 1c-.1.1-.2.3-.4.3-.7-.2-1.1.3-1.7.6z" fill="#dfc402"></path><path d="M69.2 35.9l.4-.2a2.1 2.1 0 00.3 1.8c.4.5.4-.1.6-.1.2.5-.9 1.2.2 1.7.2.4.7.8.5 1.4-.6 0-1.4.3-1.5-.8 0-.3-.7-.6-1.1-.9a6.8 6.8 0 00.6-2.9z" fill="#3a3430"></path><path d="M64 38.8c.7-.9 1.2-2.1 2.7-1.5a3.7 3.7 0 01-1.3 2.2c-.5.5-1 .5-1.4 0a.4.4 0 010-.7z" fill="#d7bf29"></path><path d="M64 38.8v.6a1.6 1.6 0 01-1 .1c.2-.5.7-.5 1-.7z" fill="#6d6d6c"></path><path d="M173.5 40.4c-.5.2-.9.6-1.4.5a3 3 0 01-2 0 2.2 2.2 0 00-3 .8c-.2 0-.2 0-.3-.2-.9-1.7-1.7-3.4-1.3-5.6.2-.8.5-.8 1-.6a1.2 1.2 0 011.5-.3 1.6 1.6 0 01-.2 1.2c-1.5.2-1.9.7-1.5 2a1.4 1.4 0 001.2 1.1 1 1 0 001.3-.9c.7.1.8.7 1 1.2a3.8 3.8 0 003-.5.8.8 0 011.1.2c-.7.1-.6.6-.4 1.1z" fill="#090807"></path><path d="M167 30.2a3.6 3.6 0 011.5 3c0 .4-.2.6-.7.6-1.4-.3-1.4-.3-.8-1.5a.7.7 0 00-.4-1c-.5-.3-.6 0-.8.4s-.3.7-.7.9a.5.5 0 00-.2 0 .5.5 0 01-.4-.3 1 1 0 01.2-.7c.3-.4.4-.8 0-1.2a1 1 0 00-1.3 0 .8.8 0 00-.4 1.1c.1.3.4.5.2.8-.5.1-1 .4-1-.5.1-.7-.7-1.5.2-2a3.4 3.4 0 013.2-.3l1.5.7z" fill="#1f282b"></path><path d="M165 32.6a3.4 3.4 0 01.4-.7c.3-.4.2-1.2 1-1.2a1.5 1.5 0 011 1c.4.7-.5 1-.7 1.4.3.4.9.3 1.1.7a2 2 0 01.2 1.2c-.5 0-1 .4-1.4.3l-.5-.8a1 1 0 01.2-1c-.4-.3-1.2-.1-1.2-1z" fill="#ad981b"></path><path d="M166.3 33.5a1 1 0 01-.2 1c-.4 0-1 .2-1-.5s.8-.4 1.2-.5z" fill="#080706"></path><path d="M84.8 28l5-4.3a1.5 1.5 0 01.2 0 13.2 13.2 0 00.1 2.6h-1c-.5-.4-1-.1-1.1.3-.7 1.3-1.9 1.6-3.2 1.7z" fill="#645b58"></path><path d="M90.1 26.3a2 2 0 01-.1-2.6l1.2-1.7a1.2 1.2 0 001 1c1 .2 1.1.6.5 1.4l-.1-.1c-.3-.8-1-1.1-1.6-.7a1.3 1.3 0 00-.1 1.9c.5.5.3.8-.2 1z" fill="#0d0e0d"></path><path d="M116 35.5c.4 0 .6.4 1 .4a1.8 1.8 0 001.4-.7c.4-.5.8-.9 1.3-.4s-.2 1.1-.5 1.3a6 6 0 00-2.5 1.4.4.4 0 01-.6 0 2.8 2.8 0 01-.5-1.7c0-.3.2-.3.4-.3z" fill="#dfc302"></path><path d="M179.5 19.2a2.1 2.1 0 01-1.5-.3c-.5-.4-1-.1-1.2.3s0 .8.6 1a1.6 1.6 0 01.9.4c-.3 1.2-1.2.3-1.8.5s.2-.6-.3-.7L176 19c-.3-.4-.4-.8.3-.9a6.1 6.1 0 012.2.1c.7.2 1.3.2 1.2-.9a6.4 6.4 0 01.9-3.7 31.5 31.5 0 001.4-2.9c.3-.2.6-.5 1-.2s0 .4 0 .6c-.5 1.4-.2 1.7 1.4 1.8a2.4 2.4 0 01-.3 2.3c0-1.2-.5-1.9-1.4-1.9s-2 1.2-2 2.3a6.5 6.5 0 00.6 4c-.7-.6-1.3-.3-1.8-.5z" fill="#0d0c0b"></path><path d="M176.2 34.3a1.5 1.5 0 010 .3 12.8 12.8 0 00-1.4 1.2c-.7.1-.7.4-.3.9s.9.6.5 1.2a2.4 2.4 0 00-2.9.4 1 1 0 01-1.4 0c-.1 0-.4 0-.3-.3.2-.2.6 0 .7-.5l.6-.4c1.2-.3 1.2-1.8 2.3-2.1l.1-.2c-.4-1.3.4-2.4.5-3.6.4-.7.6-1.5 1.6-1.8.5-.2.1-.9 0-1.4s-.5-1 .5-1c.5.7 1.2 1.2.5 2.2-.3.3 0 .6.4.6a10.4 10.4 0 001.3.3c0 .5.2 1-.5 1.3a.4.4 0 01-.4-.1c-.3-.7-.8-1-1.6-.7a1.4 1.4 0 00-.8 1.6.7.7 0 01-.2.5c-.5.5-.5 1 .3 1.2l.5.4z" fill="#090908"></path><path d="M115.8 27c-.2.6-.8.4-1.2.7-1-1.2-1-1.7.2-2.3a1 1 0 00.9.3c.4.4.2.9 0 1.4z" fill="#b29c1b"></path><path d="M115 19.4a13.7 13.7 0 010 3.6c-.3 0-.4.5-.7.3s0-.4 0-.6v-3.3c0-.2 0-.2.3-.3s.3.1.5.3z" fill="#030303"></path><path d="M114.6 19.1l-.3.3c-.3-.2-.5-.5-1-.5a.4.4 0 01-.1 0 1 1 0 01-.3-1.6 4.3 4.3 0 011.2.7c.2.4.6.7.5 1.1z" fill="#0a0908"></path><path d="M78.8 7.9c-.6 0-1-.3-1.1-1a.9.9 0 011-1 1.1 1.1 0 011.2 1.2c0 .7-.6.8-1 .8z" fill="#dfc301"></path><path d="M119.4 11l-1.3.2v-.4a2.5 2.5 0 001.5-.5l-.2.7zM120.8 11.3l-1-.3c.5-.3.9-.5 1 .3z" fill="#433f3a"></path><path d="M163.2 32.3c-.2-.5-1-.8-.6-1.5a1.5 1.5 0 011.4-.9c.4 0 1-.1 1.2.5s.3 1-.3 1.4c-.2 0-.3.4-.4.5-.5.3-.9 0-1.3 0z" fill="#058ecf"></path><path d="M160.4 34.2c-.8-.4-.8-.9-.1-1.3 1-.6.6-1-.2-1.5 0-.4 0-.7.4-.7a.7.7 0 01.8.4 2.4 2.4 0 01-1 3.1z" fill="#0b0a08"></path><path d="M100.4 40.5c-.6-.5-.7-1 0-1.4a2.2 2.2 0 000 1.4z" fill="#625a44"></path><path d="M78.1 41.6A1.3 1.3 0 0177 41l.1-.6c.1-.1.4.1.5.3l.6 1z" fill="#1f2326"></path><path d="M232 14.4c-1-.7-2 0-2.8.4-.4-.5.1-.8.4-1a4.1 4.1 0 012.8-.4c.4 0 .3.4.3.7z" fill="#060707"></path><path d="M230.8 19c-.2-.4-.4-.6-.9-.2a12.3 12.3 0 01-1.1.7 1 1 0 01.9-1.2l2-.8c.4.8-.4 1-.9 1.5z" fill="#060a0b"></path><path d="M128.9 31.6c.5 0 1-.1 1 .7a1.3 1.3 0 01-1.3 1.1c-.5 0-.8-.7-.8-1.1 0-.8.7-.6 1.1-.7z" fill="#276a8c"></path><path d="M71.7 56.8c0-.3 0-.6.2-.8-.1 1.2.4 2.3.2 3.5-.4-.4-.7-.9-1.4-.8-.9.2-1-.4-1-1 0-.8.6-.6 1-.7s.7.2 1-.2z" fill="#655c4b"></path><path d="M69.3 61.1c.4-1.2 1-1.3 2.1-.4a1.3 1.3 0 01.7.8c0 .9-.9.9-1.1 1.4-1.8.2-2.3-.3-1.7-1.8a8.4 8.4 0 00.6.7.6.6 0 00.7 0 .3.3 0 00.1-.2c0-.3-.3-.3-.5-.3s-.7.1-1-.2z" fill="#a49120"></path><path d="M71.9 55.9c-.2-.3-.5-.2-.7-.3.2-.4.6-.7.5-1.2l.4.2c0 .4.2.9-.2 1.3zM72.1 61.5l-.7-.8c.4 0 .9.2.7-.5.6.4 0 .9 0 1.3zM72.1 53.8c-.3-.5-.1-1-.2-1.5.4.4.2 1 .2 1.5z" fill="#655c4b"></path><path d="M229.1 43.3a3.6 3.6 0 012.6-.2.7.7 0 01.6.7.8.8 0 01-.5.9 2 2 0 01-2.7-1.4z" fill="#dfc301"></path><path d="M98.5 40.5l.3.3a3.3 3.3 0 01-2.7-.2 19.8 19.8 0 00-2-.9c-.1-.4.1-.4.4-.4 1.2 0 1-1 1.4-1.6l.3-.3c1 .6 2.5.4 3.6 1.2 0 .3-.2.4-.5.2s-.5-.2-.5.3h-.2a.8.8 0 01-.2-.1c-.4-.5-.8-.8-1.4-.4-.4.7-.4 1.2.5 1.5.3.1.7 0 1 .4z" fill="#090a09"></path><path d="M95.8 37.6c.2 2 0 2.2-1.3 1.7-.4-1.1 0-1.6 1.3-1.6z" fill="#267297"></path><path d="M118.3 8.6c.5 0 1 0 1 .6s-.3.8-.7 1a.7.7 0 01-.4 0c-.6 0-1.3.7-2 0-.1-.2-.2-.4 0-.6a2.8 2.8 0 012.1-1z" fill="#dfc301"></path><path d="M75.5 8.2a7.5 7.5 0 011 0c.5 0 1 .3 1 .7a1.3 1.3 0 01-1 1.2 1.7 1.7 0 01-2-.7z" fill="#1a76a1"></path><path d="M170.7 38.3a2.3 2.3 0 001.7-.6c1-.9 1.5-.7 2.6.4v.3c-.2.5-.5 1-1.1.9a1.7 1.7 0 00-1.4.3 2 2 0 01-2.7 0c0-.6.5-1 .9-1.3z" fill="#0e7cad"></path><path d="M175 38.4V38c.1-.5-.3-.8-.7-1.1s-.7-.5-.5-1 .7 0 1-.1a.6.6 0 01.7.5c0 .1 0 .3.2.4a1.5 1.5 0 00.4 1.4c-.4 0-.8 0-1.1.3z" fill="#8c822d"></path><path d="M157.7 30.3l1 2a1.7 1.7 0 010 2c-.3.2-.2.6-.3 1-.2.4-.4 1 0 1.4s.7-.5 1.2-.2c0 .6-.6 1-.8 1.5s-.5 0-.8-.1c-.6-.6-1.7-.6-2-1.5l-.2-.5V35a1 1 0 010-1c.9 0 .9.6 1 1.1 0 .3 0 .6.5.6s.3-.4.3-.7a4.9 4.9 0 010-1.7 1.2 1.2 0 00-.5-1.4c-.5-.3-1 0-1.3.4a.5.5 0 01-.5.1c-.2-1-1.3-1-1.7-1.9a.8.8 0 00.5-.7l.8-.3a2.5 2.5 0 002.8.8z" fill="#050505"></path><path d="M149 36l-.4-.3c0-.5.3-.7.9-1 0 .6.3 1-.4 1.2z" fill="#1e2c33"></path><path d="M56.1 36.6v.3c-.6 0-1-.3-1.3-.7s-.4-.7-.8-.8l-.1-.7a.5.5 0 01.3 0 6.3 6.3 0 012 1.9z" fill="#443f34"></path><path d="M54 36.4c-.5-.3-.5-.8-.8-1.2l.7.3z" fill="#44413d"></path><path d="M113.9 18.2a2.8 2.8 0 01-1-1c1.1.2 1.5-.4 1.4-1.5v-1.9a.8.8 0 00-.6-.8c-.3-.1-.5.1-.6.4h-.3a2.1 2.1 0 01.8-1.2 2 2 0 011.5 2v2.5l-1.2 1.5z" fill="#171510"></path><path d="M184.4 13c-.8.8-1.5.1-2-.4s0-1 .5-1.3c1.4-.3 1.2.9 1.5 1.7z" fill="#127bb0"></path><path d="M156 36.2c.4.9 1.8.6 2 1.7-1.6 0-2 .3-2.2 1.5-.1 1 .6 1.6 1.7 1.4a.3.3 0 01.2 0c-.3 1-1 .7-1.6.4-1.1-.9-1.3-1.5-.8-3.1a3 3 0 00.8-2z" fill="#272320"></path><path d="M84.8 28.3l.3-.2c1.5-.3 2.4-1.3 3.3-2.4.5-.7.6.1.7.6l-.7 1a1.8 1.8 0 00-1.1 1.7c0 .4-.1.8-.5 1 0-1.3-.8-1.7-2-1.4z" fill="#191715"></path><path d="M71.2 40.5c0-.5-.9-.8-.5-1.4 1.2-.1 1.5.7 1.5 1.6a5.1 5.1 0 00.1 1.3c-.4.7-1-.6-1.4.1h-.2v-.4c.4-.3 1.3-.5.5-1.2z" fill="#040402"></path><path d="M155.3 32.4a1.4 1.4 0 012-.9 1.5 1.5 0 01.5 2c-.3.6.2 1 .2 1.5s-.1 1.1-.8 1.1-.7-.5-.7-1a1.2 1.2 0 00-.5-1.2.7.7 0 01-.4-.1 2 2 0 01-.3-1.4z" fill="#117db0"></path><path d="M156 36.2c.3.8.3 1.5-.7 1.9-.1-.8.7-1.4.5-2.2zM155.6 33.8l.4.1c-.3.3-.1.7-.2 1-.4-.3-.2-.7-.2-1z" fill="#5d5757"></path><path d="M72.4 36.7l-.2-.3c-1-.5-.7-1.3-.5-2.1 0-.5 0-1 .8-1s.8-.7.1-1.1c.4-.5.7-1 1.5-.8a36 36 0 00-.9 3.7c0 .6-.1 1 .4 1.5v.3a1.6 1.6 0 01-1.2-.2z" fill="#605758"></path><path d="M83.4 31.9c0 .8-.2 1.2-.8 1.2a1.2 1.2 0 01-1.3-1 1 1 0 012-.2z" fill="#c7ae0e"></path><path d="M70.7 46.2c0-1.3 1-1 1.7-1-.6.4-1.4.4-1.8 1z" fill="#1180b5"></path><path d="M175.4 32.3c-.4-1-.1-1.8 1-2 .7-.2 1.6-.4 1.7 1l.2.2c.6.2.3.6.2 1-.3.4-.3 1-.8 1.3-1.3.2-1.8-.5-2.3-1.5z" fill="#068dca"></path><path d="M167 41.6c.5-1.2 1-1.7 2.2-1.3s2 .3 3 .6a1.2 1.2 0 01-.3.8c-1.6.9-3.2 1.1-4.8 0z" fill="#cbb417"></path><path d="M64.7 13.7V13c.8.3 2 0 2 1.5 0 .2.3.3.5.2.6-.3.8.1 1.1.5s.3.9-.2 1.1h-.4c-.6-.6-1.2-.6-1.6.2a.5.5 0 01-.6.3c-.4-.4-1.2-.3-1-1.2v-.1a1.4 1.4 0 01.3-.2c.4-.2.9-.4.9-1s-.7-.4-1-.7z" fill="#080806"></path><path d="M67.8 16.3c.6 0 .5-.6.5-1h.3v.5l1.4 1.5c.3.3.5.6.2 1s-.8.3-1.2 0l-.8-.8c-.2-.3-.7-.6-.4-1.2z" fill="#383211"></path><path d="M133.6 36.4l-.1-1c.1 0 .2-.3.5-.2a.6.6 0 01.1.4 1.7 1.7 0 01-.3.7v.1z" fill="#4a423c"></path><path d="M68.4 17.4a1.1 1.1 0 01.7.6c.2.4.5.6 1 .2s-.2-.5-.4-.8c-.4-.5-1.2-.8-1-1.6.6-1 1.4-.6 2.2-.4 0 .4-.1.8.3 1.1.8 1 .5 2 .4 3.1a.9.9 0 01-1.4.6c-.3-.2-.4-.6-.9-.5a1.4 1.4 0 01-1.7-.7c-.3-.5-.8-.8-1.1-1.2s-.5-1.1 0-1.5.9 0 1.2.4a2.7 2.7 0 00.7.7z" fill="#dabe07"></path><path d="M134 35.2l-.5.3a24.1 24.1 0 010-2.7l.6-.2c0 .3 0 .6.4.6 2 .2 2 2 2.7 3.2a2.3 2.3 0 00-1 .2 1.7 1.7 0 01-2.3-.2c0-.3-.1-.5.2-.7a1 1 0 01.4.1 1 1 0 001-.1c.2-.7-.4-1-.8-1.1s-.4.5-.7.6z" fill="#141211"></path><path d="M88.5 57.8c-.2.4-.4.8-1 .7a.8.8 0 01-.7-.6.6.6 0 01.2-.7.7.7 0 011 .1l.5.5zM96.6 60.7c.3.5 1 1-.1 1.4-.5.1-1 0-1-.6-.1-.8.6-.7 1.1-.8z" fill="#ce4e0f"></path><path d="M64.5 15.7c.1.6 1 .6 1.2 1 0 .2 0 .3-.3.4-1.8-.6-1.8-.6-1.8 1.4a8 8 0 01-.1 1.8c-.3 1.2 0 2.5-.8 3.8 1.1 0 1.8-1 2.8-.7a.5.5 0 010 .5 44.2 44.2 0 01-4.5 3.4 1 1 0 01-.8 0 2.2 2.2 0 00-1-.3c-.8-.8-1.8-.7-2.8-.8a8.6 8.6 0 01-1.8-.4l.5-.2c1.4.3 2.9.6 4.3-.2a4.2 4.2 0 002.4-3.8c0-1.5.5-3-.1-4.5-.5-1.3-1.2-1.6-2.4-.8-.4.2-.7.8-1.3.7-.3-.5-.9 0-1.2-.5a13.7 13.7 0 012.6-1.2 1.7 1.7 0 002 0 2.1 2.1 0 002.1 0 .7.7 0 001 .4z" fill="#4a4743"></path><path d="M54.6 24.7h-.3c.3-.9.3-1.8 1-2.4a5.5 5.5 0 01-.7 2.4z" fill="#69604b"></path><path d="M38.6 33l-3.3-1.2a5 5 0 00-3.3-.7h-1.5c-1 0-.7-.4-.4-1 .4-1 1.3-1.5 2.1-2.1.4-.3.8 0 1 .3a5.9 5.9 0 001.6 1.3c1.4.8 2.8 1.5 4.4.5 1.9-1.2 3-2.7 2.6-5.2-.3-1.9-.7-3.5-2.4-4.7a3 3 0 00-4.2.2 12.7 12.7 0 00-1 1.2c-.7.8-1 .8-1.6-.2a4 4 0 00-3.5-2c-3-.2-5.2 2.2-5 5.7a19.8 19.8 0 001 3.7 1 1 0 00.4.7c1 1 1 1-.4 1.6l-2.5 1a1.4 1.4 0 01-1.8-.2c-.4-1.4-1-2.6-1.6-4-1-2.4-.3-4.6.5-6.8a6.4 6.4 0 012.9-3.5 6.8 6.8 0 015.6-.5 24 24 0 003.1.8 1.7 1.7 0 001.5-.2 5.6 5.6 0 001.7-.8c4.2-2.6 7.3-2 10 2.2a13.7 13.7 0 00.8 1.2 7.5 7.5 0 011.4 6.8 21.9 21.9 0 01-4 6.3 1.2 1.2 0 01-1.5.4l-2.6-.7z" fill="#c4c1b7"></path><path d="M53 32.3v-1.9c.1-.6-.3-1.5 1-1.4.3.2.7.3.8-.2a1.8 1.8 0 011.1.3c.3.1.6.2 1 0a1 1 0 011-.2c.6.2 1.3.4 1.8-.4h.2c.7.2 1-.3 1.5-.8a4.1 4.1 0 001.4.2.4.4 0 01.3.5 3.5 3.5 0 01-2 1 16 16 0 01-5.3.5c-1.8-.2-1.9 0-2.2 1.7a1.8 1.8 0 01-.3.7.3.3 0 01-.3 0z" fill="#7f7a60"></path><path d="M57.8 29a1.6 1.6 0 01-1 0c-.3-.3-.8-.7-.6-1.3.2-.3.4-.8.9-.8a1.2 1.2 0 011.1.7c.4.5 0 1-.4 1.4z" fill="#0d80b7"></path><path d="M55.9 29.1c-.5.2-.8 0-1.2-.3v-.3a.9.9 0 010-1c.1-.3.3-.7.7-.6s.5.6.5 1v1.2z" fill="#af9419"></path><path d="M54 29c-.9.2-.7 1-1 1.4h-.3l.2-1.6.9-.6c.2.2 0 .5.1.8z" fill="#242a2b"></path><path d="M59.2 27c.4-.8.7-.3 1 0 0 .4-.3.5-.6.6a.5.5 0 01-.4-.1z" fill="#020202"></path><path d="M59.2 27.5h.5a.8.8 0 01.1 1c-.4-.2-1-.3-.6-1z" fill="#4a4743"></path><path d="M54.6 27.5v1c-.5-.3-.5-.6 0-1z" fill="#242a2b"></path><path d="M53 32.3h.3c.3.8 1 1.5.8 2.4h-.2c-.4-.5-.5-1.3-1.6-.5-.4.4-1-.2-1.5-.5a1 1 0 01-.1-1.2 1.8 1.8 0 011.3-1c.6-.1.5.7 1 .8z" fill="#b9a116"></path><path d="M53.2 35.2h-1.4a1.2 1.2 0 011.4 0z" fill="#44413d"></path><path d="M25.2 28.8a6.8 6.8 0 01-.7-7.1c.9-2 2.5-2.6 4.5-2.6a4 4 0 014 2.4c.3.8.6.4 1 0 .8-1 1.5-2 3-2.3 2.2-.4 4.8 2.1 5 4.3v1.2c.7 3.5-.7 4.4-3.2 6a2.2 2.2 0 01-2 0 7.3 7.3 0 01-3.8-2.3c-.3-.5-.6-.3-1 0l-2 1.8a4.1 4.1 0 01-4.8-1.4z" fill="#454545"></path><path d="M59.4 15.3a4.2 4.2 0 01-2.6 1.2l-.5-.4c-.5-1.4-.2-1.8 1.2-2l1.7-.2c.4 0 .9-.3 1.1.2s-.4.6-.6 1z" fill="#c6ad0e"></path><path d="M55.6 15c0 .4.3.8-.3 1l-.3-.1c-.1-.5.2-.7.6-.9z" fill="#110f0b"></path><path d="M54 25.3c-.2.4-.3.8-.8.8-.8 0-1-.7-1-1.3-.1-.4.4-.4.7-.4a1 1 0 011 .9z" fill="#dfc401"></path><path d="M64.7 13.7c.7-.2 1.3-.1 1.4.7 0 1-.8 1.2-1.6 1.1-.1-.6-.3-1.3.2-1.8z" fill="#998322"></path><path d="M153.6 67.6a9.9 9.9 0 011.6 0c.6 0 1 .4.7 1.1-.3.6-2.3.8-2.6.3s.1-1 .3-1.5z" fill="#fcf8f6"></path><path d="M81 37.8a1.2 1.2 0 001.6-.2c-.3 1-.8 1-1.6.2z" fill="#504f48"></path><path d="M98.5 39a.8.8 0 01.3 0 2 2 0 01-.3 1.4c-.4 0-.8.2-1.2-.2a5.1 5.1 0 001.2-1.2z" fill="#625a44"></path><path d="M79.8 24.6a13 13 0 00-1 2.5c-.1.7-1.2.6-1.8.7a.8.8 0 01-.2-.1 4.4 4.4 0 00.3-3 1.3 1.3 0 011.8-1.2.9.9 0 01.6.7z" fill="#bfa81d"></path><path d="M83.7 17c.1.7-.3 1.3-.5 2-.3.1-.5 0-.7-.2-1.3-.9-1.3-.9-2 .5a.8.8 0 01-.8-.3 1.5 1.5 0 01.1-1.3 2.3 2.3 0 00.2-.7c0-.7.4-1 1.1-.8a4.5 4.5 0 002 0c.3.1.4.5.6.8z" fill="#161311"></path><path d="M80.6 19.1c0-.5-.3-1 .3-1.3s1 0 1.5.4a10.3 10.3 0 01.8.7 1.7 1.7 0 01.2.6c0 .4.2 1-.3 1.2s-.9-.2-1.1-.6c-.3-.6-1.2-.3-1.4-1z" fill="#817339"></path><path d="M80.6 19.1a1.7 1.7 0 001 .3c.7 0 .5.4.4.7-.4.7 0 1.5-.3 2.1-.8 0-.6-.7-.8-1.1a1.7 1.7 0 00-.6-.6c-.4-.4-1-.6-.8-1.3a.5.5 0 01.4-.3zM79.5 24.2c-.3 0-.3-.3-.4-.5-1.9-.5-1.9-.5-1-2.3a.8.8 0 01.3-.2c.5 0 .4.6.7.9s.7.4.9.8a1 1 0 01-.2.8z" fill="#0b0b09"></path><path d="M83.7 17c-.6 0-.5-.3-.6-.7v-.1a2.5 2.5 0 00.3-2c.8-.1 1 0 1 .7v1.5z" fill="#867943"></path><path d="M79.8 23.7v-1c1-.3.8-1.3 1.3-2 .4.4 0 1.2.6 1.5-.1.6-.2 1-1 1-.3 0-.6.4-.9.5z" fill="#191715"></path><path d="M113.9 18.2c0-.8.7-1 1.1-1.4-.7 1-.5 1.8 0 2.6l-.4-.3c-.2-.3-.3-.7-.7-1z" fill="#443d36"></path><path d="M180.5 25.4a3.6 3.6 0 01-1.2 2.7.9.9 0 01-1.3-.2c-.4-.5-1-1.1-.3-1.7a4.1 4.1 0 001.3-2c.1-.3.3-.6.6-.6s.6.4.6.7l.3 1.1zM188.2 19.9c.2-.8.5-1 1.4-.6s2 0 3 0c.4 0 .9 0 1.2.3s.7.5.6 1-.5.6-.9.6c-.6.2-1.3.3-1.8-.1a2.3 2.3 0 00-2.4-.5c-.6.2-1.1.1-1-.7z" fill="#dfc301"></path><path d="M175.5 36.2l-.6-.5c-.2-1 .6-1 1.3-1.1.7 1 .6 1.3-.7 1.6z" fill="#1679a5"></path><path d="M176.2 34.3c-.6 0-1.4 0-1.5-.7 0-.4-.1-1 .5-1 .5.4 1.3.5 1.4 1.4z" fill="#a29726"></path><path d="M176.6 34c-.3-.7-1-.8-1.4-1.4l.2-.2c.8.4 1.2 1.4 2.3 1.4-.3.3-.7.1-1 .2z" fill="#42656a"></path><path d="M71.2 54.4a.8.8 0 11-1.7-.1c0-.6.1-1.2.8-1.3s.9.6 1 1.4z" fill="#dfc301"></path><path d="M143 39.6a3.3 3.3 0 011.5 0c0 .3-.2.5-.5.6s-.8-.2-1-.6z" fill="#494427"></path><path d="M115.8 27a3.7 3.7 0 00-.1-1.4c.5.5.4 1 0 1.5z" fill="#27251f"></path><path d="M83 55c-.2-.7-.6-1.3 0-2l.3-.4c.2 0 .5.2.5.4.2.7.8 1.3.4 2-.1.3-.5.3-.8.1l-.5-.2z" fill="#c7ae0e"></path><path d="M206.5 40.5a12 12 0 014 1.6c.2.1.5.3.2.7s-.8 1-1.5.8a7.7 7.7 0 01-3.4-1.5c-.4-.3-.9-.7-.7-1.2s.8-.3 1.4-.4z" fill="#dec201"></path><path d="M209.5 31.1c-.2.9-.9.4-1.4.5a7.6 7.6 0 01-1.5 0 16.2 16.2 0 012.9-.5z" fill="#9a9894"></path><path d="M79.8 19l-.2.2a8.4 8.4 0 01-1.2 2.1 30.4 30.4 0 01-1.8 2.5 20 20 0 00-1.3 1.7 4 4 0 01-1.2.9 1.4 1.4 0 00-1 1c-.2.7-.9.9-1.5 1 .2.5 1 .2.8.8a3.3 3.3 0 00-2.2 1.7c-.2-.2-.1-.7-.5-.8a.5.5 0 010-.5 1.3 1.3 0 01.2-.5 2.9 2.9 0 00.4-1.7c0-.4.1-.8.6-.9a1.9 1.9 0 011 0c.5 0 .7-.2.8-.7a4.6 4.6 0 000-2.4 4.1 4.1 0 01-.2-3.2 3.4 3.4 0 00.1-1.7 1.3 1.3 0 011.2-1.6.5.5 0 01.2.3 24.9 24.9 0 00-.4 4.4c.1 1 0 2.3.8 2.6s1.3-1 1.8-1.6a28.9 28.9 0 003-4.1c.1-.3.2-.7.6-.9a.3.3 0 01.3.1 3 3 0 00-.3 1.2z" fill="#665c55"></path><path d="M80.1 17.7H80c-.5-.4-.2-.9-.1-1.3.2-1.7.6-3.3.6-5 0-.7.2-1.5-.7-1.9s-1.2.5-1.7 1a17.3 17.3 0 00-3.3 5.8c-.1.4-.2 1-.9.9v-.3a12.2 12.2 0 00.7-2 2.3 2.3 0 00-.4-2.2 1.6 1.6 0 001.8-1.3.8.8 0 01.6-.6c.7-.1 1-.7 1.3-1.1 1-1.4 2-1.5 3.2-.2.7 1.2.3 2.4 0 3.7 0 .3-.1.7.4.7.4 0 .7-.2 1 .2a2.7 2.7 0 01-.5.5.8.8 0 00-.3 1c.2.3.6.3 1 .1s.7-.2.7.5h-.1a2.2 2.2 0 01-2 .3c-.7-.3-1 0-.9.7a1.5 1.5 0 01-.2.5z" fill="#867943"></path><path d="M71.9 26.5a1.4 1.4 0 01-1 .3c-1-.5-.7-1.3-.7-2.1.2-.5.3-1 0-1.3a3.2 3.2 0 01-.4-.4 5.3 5.3 0 00-.6-1.2 1.9 1.9 0 00-1-1 .5.5 0 01-.2-.2l.3-.2c1.1.3 2 1.2 3.2 1.2a.5.5 0 01.2.8c-.5.4-.5.7 0 1.1a1 1 0 01.3 1c-.3.8 0 1.4-.1 2z" fill="#24769c"></path><path d="M71.9 15.6c-.1-.5.3-1 .3-1.5a1 1 0 01.7-.9c.4-.1.6.2.8.5s.5.8.2 1.2c-.2.2-.5.4-.5.8a.8.8 0 01-.8 1c-.7 0-.7-.6-.7-1.1z" fill="#1b77a4"></path><path d="M83.2 16.2c0-.2-.2-.5-.5-.2-.7.5-1.3.4-1.5-.4s.3-1.4 1.2-1.5a.7.7 0 001 0 1.2 1.2 0 01-.2 2z" fill="#bfa811"></path><path d="M65.5 17.1l.2-.4.2-.2c.7-1.3 1.1-1.3 1.9-.2l.6 1.1a1.6 1.6 0 01-1-.7c-.1-.3-.3-.5-.7-.3a.7.7 0 00-.3.8 6.2 6.2 0 003 2.5c-1.4.6-2-.3-2.6-1.2-.4.1-.6 0-.8-.2s-.7-.7-.5-1.2z" fill="#b09b1f"></path><path d="M66.1 18.2l.7.3.1 2.3 1.1-.2c0 .5-.4.7-.7 1s-.5.8 0 1.2.7 0 1.1-.1.4-.8.9-.7a.9.9 0 01.1.8 1 1 0 01-.1.4 2.7 2.7 0 01-1.3.7 1.3 1.3 0 01-1.6-.6c-.2-.3-.5-.4-.8-.3a.6.6 0 01-.1-.3 8.6 8.6 0 00.6-4.5z" fill="#4b7284"></path><path d="M81 13.2c0-1.2.3-2.4 0-3.7a3 3 0 010 3.7z" fill="#5a504e"></path><path d="M70.2 31c.2-1.3.8-2 2.1-1.8s2.1-.7 3-1.1c.6-.3 1-.7 1.6-.3-.4 1.7-1.7 2.6-2.9 3.6-.6 0-.8.7-1.5.7-.8-.1-2 .1-2.3-1.2z" fill="#c1aa11"></path><path d="M64.7 36.6c-.8-1.1-.7-1.4.6-2.4a7.7 7.7 0 01.8-.1c.4 0 1-.2 1.2.4a1.2 1.2 0 01-.6 1.5 6.6 6.6 0 01-2 .6z" fill="#0b83bf"></path><path d="M69.8 29.7v.4l-.5.5c-.2.7-.7 1-1.2 1.2a12.5 12.5 0 01-2.6 2h-.3c0-.5.4-.7.7-1 1-1 2.1-1.7 3-2.7.2-.3.5-.6.8-.4z" fill="#949393"></path><path d="M68 31.8a4.6 4.6 0 011.2-1.2c.7 1.5-.5 1-1.1 1.2z" fill="#665c55"></path><path d="M69.3 61.1a6 6 0 01.8-.2c.4 0 .9-.1 1 .4a.7.7 0 01-.2.9 1 1 0 01-1.3-.1 1.2 1.2 0 01-.3-1z" fill="#dec201"></path><path d="M98.5 39c.1 1-.3 1.3-1.2 1.3-1.1-.4-1.2-.8-.5-2 .8-.3 1.3.1 1.7.7z" fill="#b8a117"></path><path d="M98.5 39c-.5-.2-1-.7-1.7-.7.9-.3 1.6-.4 1.7.8z" fill="#625a44"></path><path d="M134.2 36a2.7 2.7 0 01-.2-.2v-.5a9.3 9.3 0 01.1-1l.3-.3c.8 0 .9 1 1.6 1.3.4.2 0 .5-.3.7a2 2 0 01-1.5 0z" fill="#a08d23"></path><path d="M134.2 36h1.5a1.1 1.1 0 01-1.5 0z" fill="#4a423c"></path><path d="M62.6 28c-.5.5-.9.1-1.3-.2-.3 0-.4-.2-.4-.5-.2-1 .7-1 1.1-1.1a7.9 7.9 0 002.5-2 1 1 0 01.9-.3c.3 0 .4.2.4.4a1 1 0 01-.2.5c-.7.7-1 1.8-2.2 2-.9-.2-.8.4-.7 1a.4.4 0 01-.1.2z" fill="#040403"></path><path d="M65.7 24.4a.6.6 0 00-.3-.5v-.5c0-.2.1-.3.3-.4l.6-.6c.6 1.5 1 1.6 3 .6a.5.5 0 010 .7 12.8 12.8 0 01-1.8 2.5c-.6-.2-.4-1-.8-1.3l-1-.5z" fill="#131415"></path><path d="M65.7 23l-.3.4-2.5 1.2c-.2.1-.7 0-.5-.3.8-1.2.4-2.7.9-4a10.3 10.3 0 01-.1 3c-.1.7.1.7.6.5l1.9-1z" fill="#aba6a8"></path><path d="M60.9 27.3l.4.5c-.1 1-.6 1.3-1.5.7l-.1-1 .5-.4z" fill="#c1a910"></path><path d="M66.9 24.7c.7.3.4 1 .6 1.5-1.2 1.2-2.9 1.6-4.4 2l-.5-.2a.6.6 0 010-.2c-.1-.6-.4-1.3.7-1.2 1.1-.1 1.4-1.3 2.2-2a1.4 1.4 0 011.4 0z" fill="#bca61f"></path><path d="M34 25.7a5.5 5.5 0 011.6-4.3A2.4 2.4 0 0139 21a5.2 5.2 0 01-.7 8.4c-.8.4-1.4 0-2-.3-2-.8-2.4-1.3-2.4-3.5z" fill="#fcfcfc"></path><path d="M25.4 26.9a6.2 6.2 0 01.3-4.8 3.6 3.6 0 013.9-1.7 3.6 3.6 0 012.4 2.8 5.2 5.2 0 01-2.6 5.8c-1.7.6-3 0-4-2.1z" fill="#fafafa"></path><path d="M25.4 26.9l.8 1a2.6 2.6 0 003.3 1.1 1.7 1.7 0 01-2.7-.2c-.5-.6-1.4-1-1.4-2z" fill="#b39d75"></path><path d="M77 27.8a9.3 9.3 0 00-3.5 1.7c-.8.5-.8 0-1.2-.3s-.6-.2-.9-.2-.5 0-.6-.3a.4.4 0 01.5-.4 1.6 1.6 0 001.6-1.7c0-.4.8-.3 1.2-.5l1.2-.8c.2-.4.7-.6 1-1v-.2c.3-.3.2-1 .8-.9s.2.7.2 1.1a.8.8 0 000 .6 2.6 2.6 0 01-.4 2.9z" fill="#050505"></path><path d="M77.4 24.9c-.5-.4 0-1-.2-1.5-.9 0-.3 1-.8 1.2-.2-.3-.1-.6 0-.9a10.8 10.8 0 012-2.4c-.7 1-.7 2 .7 2.4-.9-.1-1.7 0-1.7 1.2z" fill="#484237"></path><path d="M81 20.8c0 .9.4 2.1-1.2 2a1.6 1.6 0 01-1-.5.8.8 0 01-.1-.5c-.1-1.6.2-1.9 1.8-1.4z" fill="#a69221"></path><path d="M80.5 20.3c-1.7 0-1.7 0-1.6 2-.4-.3-.1-.8-.5-1a3.7 3.7 0 011.2-2.1c0 .7.6.8 1 1.1z" fill="#484237"></path><path d="M69.3 23.7V23a.6.6 0 01.7 0l.2.2a4.6 4.6 0 01.2 1.3c0 .8-.1 1.6.5 2.3-.4.1-.3.3-.3.6a2.4 2.4 0 01-.7 2c.6-1.6 0-3.2.1-4.9 0-.4-.1-.9-.7-.8z" fill="#7e7e7e"></path><path d="M76.4 23.7v1l-1.2.6a3 3 0 011.2-1.6z" fill="#5f5452"></path><path d="M69.3 22l-.2.2c-.2.9-1 1-1.6 1.1a.7.7 0 01-.8-.6 1.6 1.6 0 01.7-1.6 5.3 5.3 0 01.7-.5c.9 0 1.1.4 1.2 1.2a.1.1 0 010 .2z" fill="#0491d0"></path><path d="M69.3 22a.7.7 0 000-.2c.7.1.5.8.7 1.1h-.7zM70.5 24.4c-.2-.3-.6-.7-.3-1.2a.8.8 0 01.3 1.3z" fill="#131415"></path><path d="M63.2 26.6c-.8 0-.6.7-.7 1.2-.1-.6-.7-1.5.7-1.2z" fill="#7f7a60"></path><path d="M66.9 24.7h-1.5l.3-.3a.8.8 0 011.2.3z" fill="#4a4743"></path><path d="M38.4 25.3c0 .8-.3 1.3-1 1.3A1.4 1.4 0 0136 25c0-.7.3-1.2 1-1.1a1.3 1.3 0 011.4 1.4z" fill="#1d1d1d"></path><path d="M27.9 24.9c0-.8.3-1.5 1.2-1.5a1.2 1.2 0 011.3 1.3 1.3 1.3 0 01-1.4 1.6c-.8 0-1-.7-1.1-1.4z" fill="#373737"></path><path d="M74.3 28.3c-.3-.1-.9.1-.9-.5a1.1 1.1 0 011-1.2c.6 0 1.1 0 1.4-.8a.5.5 0 01.7-.2.8.8 0 01.4.8 8.9 8.9 0 01-2.6 2z" fill="#1d74a0"></path><path d="M79.9 22.3a.7.7 0 01-.6-.8c0-.4.3-.7.7-.6a.7.7 0 01-.1 1.4z" fill="#e6c901"></path></svg> 